<svg id="Layer_1" data-name="Layer 1" xmlns="http://www.w3.org/2000/svg" xmlns:xlink="http://www.w3.org/1999/xlink" viewBox="0 0 1010.31 727.47"><defs><style>.cls-1{fill:#f2371c;}.cls-2{fill:#f7941d;}.cls-3{fill:#dbdfe2;}.cls-4{fill:#fff;}.cls-5{fill:#ccc;}.cls-6{fill:#f6f7f8;}.cls-7{fill:#ff9800;}.cls-8{fill:#e87a03;}.cls-9{fill:#e62e04;}.cls-10{fill:#f4c1c1;}.cls-11{fill:#f9c2c2;}.cls-12{fill:#f2f2f2;}.cls-13{fill:#f9cbcb;}.cls-14{fill:#e6e6e6;}.cls-15{fill:url(#linear-gradient);}</style><linearGradient id="linear-gradient" x1="517.92" y1="776.92" x2="526.73" y2="776.92" gradientTransform="matrix(1, 0, 0, -1, 0, 962)" gradientUnits="userSpaceOnUse"><stop offset="0" stop-color="#e87a03"/><stop offset="1" stop-color="#ff9800"/></linearGradient></defs><path class="cls-1" d="M1186.2,797.19H265a1,1,0,0,0-1,1h0a1,1,0,0,0,1,1h921.2a1,1,0,0,0,1-1h0A1,1,0,0,0,1186.2,797.19Z" transform="translate(-176.89 -73.17)"/><path class="cls-1" d="M244.34,799.11H182.7a1,1,0,0,1-1-1h0a1,1,0,0,1,1-1h61.64a1,1,0,0,1,1,1h0A1,1,0,0,1,244.34,799.11Z" transform="translate(-176.89 -73.17)"/><path class="cls-2" d="M364.23,370.53A6.22,6.22,0,0,0,358.3,368a9.41,9.41,0,0,0-5.79,3.3,20.29,20.29,0,0,0-3.35,5.9,25.52,25.52,0,0,0-2.15,11,108.54,108.54,0,0,1-11.33-12.06c-.32-.39-.62-.79-.93-1.19l9.7-6.73a21,21,0,0,0,5.81-5.25c1.44-2.2,1.95-5.22.55-7.44a6.2,6.2,0,0,0-5.93-2.59,9.48,9.48,0,0,0-5.79,3.3,20.29,20.29,0,0,0-3.35,5.9,25.11,25.11,0,0,0-2.12,11.34,107.26,107.26,0,0,1-9.81-15.54l9.56-7.2a20.86,20.86,0,0,0,5.61-5.47c1.36-2.25,1.75-5.29.26-7.46a6.23,6.23,0,0,0-6-2.35,9.49,9.49,0,0,0-5.66,3.52,20.08,20.08,0,0,0-3.12,6,25.78,25.78,0,0,0-1.76,10.71,109,109,0,0,1-5.13-12.28c-.43-1.24-.82-2.49-1.21-3.75l9.6-7.73a20.68,20.68,0,0,0,5.42-5.65c1.29-2.3,1.58-5.35,0-7.47a6.22,6.22,0,0,0-6.1-2.15,9.4,9.4,0,0,0-5.53,3.7,20.45,20.45,0,0,0-2.93,6.12,27.52,27.52,0,0,0-1.5,9.6,104.26,104.26,0,0,1-2.59-13.1q2.31-5.55,4.64-11.09a21,21,0,0,0,2.08-7.56c0-2.63-1.16-5.45-3.54-6.57a6.2,6.2,0,0,0-6.38,1,9.4,9.4,0,0,0-3.1,5.9,20.08,20.08,0,0,0,.33,6.78c.77,4.12,2.17,8.27,4.88,11.43h0a103.59,103.59,0,0,0,2.79,13.94A26.9,26.9,0,0,0,306.9,330a20.57,20.57,0,0,0-6.15-2.87,9.45,9.45,0,0,0-6.63.66,6.2,6.2,0,0,0-3.35,5.53c.14,2.62,2.31,4.8,4.75,5.75a20.71,20.71,0,0,0,7.78.93l12-.12A107,107,0,0,0,321.68,356a26,26,0,0,0-9.39-5.12,20.27,20.27,0,0,0-6.67-1.26,9.46,9.46,0,0,0-6.26,2.28,6.2,6.2,0,0,0-1.86,6.19c.78,2.51,3.41,4.08,6,4.4a20.42,20.42,0,0,0,7.76-1l11.6-3.09c.08.16.16.33.25.49A111.43,111.43,0,0,0,332.75,374a24.78,24.78,0,0,0-11.3-3.81,20.31,20.31,0,0,0-6.78.13,9.39,9.39,0,0,0-5.67,3.5,6.21,6.21,0,0,0-.57,6.44c1.27,2.3,4.17,3.3,6.79,3.09a21,21,0,0,0,7.39-2.59l11.07-5.55.15.19v.12l.08-.06a110.6,110.6,0,0,0,11.81,12.86,26.77,26.77,0,0,0-10.77.31,20.71,20.71,0,0,0-6.52,2.3,9.61,9.61,0,0,0-4.36,5.21,6.33,6.33,0,0,0,1.51,6.41c2,1.81,5.09,1.85,7.55.8s4.43-3,6.32-4.88l8.07-8.07.28-.2a105.22,105.22,0,0,0,15.54,11.33c.59.35,1.24-.5.65-.85a104.68,104.68,0,0,1-15.28-11.1q4.59-3.21,9.2-6.4a20.76,20.76,0,0,0,5.81-5.24C365.13,375.78,365.64,372.75,364.23,370.53Z" transform="translate(-176.89 -73.17)"/><path class="cls-1" d="M336.1,510.65l-4.78,6.93c-2.07-7.43-4.17-14.94-7.84-21.73-10.91-20.16-33.77-30.77-56-36.3s-45.58-7.45-66.58-16.64c-6-2.6-12.4-6.85-12.82-13.34a10.6,10.6,0,0,1,.52-3.91,238.63,238.63,0,0,1,30.84.24A165.31,165.31,0,0,1,266.28,436a126.43,126.43,0,0,1,34.26,19.66,103.61,103.61,0,0,1,25.31,29.56,106.82,106.82,0,0,1,7.92,18.55C334.54,506,335.28,508.35,336.1,510.65Z" transform="translate(-176.89 -73.17)"/><path class="cls-1" d="M343.14,500.42l-6.47,9.39-.57.84c-.82-2.3-1.56-4.62-2.33-6.92a106.82,106.82,0,0,0-7.92-18.55,103.61,103.61,0,0,0-25.31-29.56A126.57,126.57,0,0,0,266.28,436a165.38,165.38,0,0,0-46.86-10.06,238.63,238.63,0,0,0-30.84-.24q.13-.43.3-.84a18.79,18.79,0,0,1,4.56-6.48c9.4-9.07,23.48-11.26,36.54-10.93,40.82,1,80.47,23.68,102.11,58.31C338.62,476.17,343.69,488.11,343.14,500.42Z" transform="translate(-176.89 -73.17)"/><path class="cls-3" d="M336.67,509.81l-.57.84c-.82-2.3-1.56-4.62-2.33-6.92a106.82,106.82,0,0,0-7.92-18.55,103.61,103.61,0,0,0-25.31-29.56A126.57,126.57,0,0,0,266.28,436a165.38,165.38,0,0,0-46.86-10.06,238.63,238.63,0,0,0-30.84-.24q.13-.43.3-.84a231,231,0,0,1,36.44.79A158.53,158.53,0,0,1,270.92,437a125.39,125.39,0,0,1,33.47,20.85,102.11,102.11,0,0,1,24.07,30.52c3.13,6.21,5.28,12.75,7.47,19.32C336.17,508.37,336.42,509.08,336.67,509.81Z" transform="translate(-176.89 -73.17)"/><path class="cls-1" d="M346,530.3l-1.67,8.25c-4.83-6-9.71-12.09-15.75-16.89-18-14.24-43.16-15-65.79-11.33S218,521.43,195,521.25c-6.5,0-14.09-1.43-17-7.22a10.53,10.53,0,0,1-1.06-3.8,236,236,0,0,1,28.44-11.92,165.78,165.78,0,0,1,47-9.2,126.42,126.42,0,0,1,39.23,4.6,103.2,103.2,0,0,1,34.91,17.21,106.1,106.1,0,0,1,14.58,13.93C342.71,526.67,344.31,528.5,346,530.3Z" transform="translate(-176.89 -73.17)"/><path class="cls-1" d="M348.41,518.12l-2.25,11.18-.2,1c-1.65-1.8-3.25-3.63-4.86-5.45a106.1,106.1,0,0,0-14.58-13.93,103.2,103.2,0,0,0-34.91-17.21,126.42,126.42,0,0,0-39.23-4.6,165.78,165.78,0,0,0-47,9.2,236,236,0,0,0-28.44,11.92c0-.3-.05-.6-.05-.9a18.74,18.74,0,0,1,1.64-7.74c5.07-12,17.15-19.59,29.29-24.43,37.93-15.12,83.29-9.91,116.82,13.41C334.71,497.61,344.07,506.59,348.41,518.12Z" transform="translate(-176.89 -73.17)"/><path class="cls-3" d="M346.16,529.3l-.2,1c-1.65-1.8-3.25-3.63-4.86-5.45a106.1,106.1,0,0,0-14.58-13.93,103.2,103.2,0,0,0-34.91-17.21,126.42,126.42,0,0,0-39.23-4.6,165.78,165.78,0,0,0-47,9.2,236,236,0,0,0-28.44,11.92c0-.3-.05-.6-.05-.9a233.67,233.67,0,0,1,33.81-13.61A159,159,0,0,1,257,488.2a125,125,0,0,1,39,6,102.43,102.43,0,0,1,34.14,18.59c5.32,4.47,9.87,9.64,14.48,14.82C345.13,528.17,345.65,528.73,346.16,529.3Z" transform="translate(-176.89 -73.17)"/><path class="cls-2" d="M962.21,250c.73-2.23,3.61-3.15,5.83-2.4s3.83,2.7,5,4.72a39.54,39.54,0,0,1,4,10.23q.9-5.21,2.14-10.34c.54-2.26,1.14-4.51,1.78-6.74a26.73,26.73,0,0,1-12.67-9.08c-1.22-1.59-2.29-3.61-1.66-5.51.73-2.22,3.62-3.14,5.83-2.39a9.93,9.93,0,0,1,5,4.68,39.92,39.92,0,0,1,4,10.61,135.6,135.6,0,0,1,7.72-20.05,26.63,26.63,0,0,1-10.87-10.86c-.94-1.76-1.68-3.93-.76-5.7,1.07-2.08,4.07-2.53,6.13-1.44a10,10,0,0,1,4.2,5.42A38.84,38.84,0,0,1,990,221.86c3.39-6.76,7.52-13.45,13.17-18.5l.36-.31a26.78,26.78,0,0,1-9.36-12.4c-.68-1.88-1.1-4.13.06-5.76,1.37-1.9,4.39-1.91,6.28-.55s2.85,3.69,3.38,6a41.18,41.18,0,0,1,.63,11.88c6.68-5.65,14.44-10.1,20.92-16a26.72,26.72,0,0,1-9.57-12.56c-.69-1.88-1.11-4.13.06-5.76,1.36-1.9,4.38-1.91,6.28-.55s2.84,3.69,3.37,6a42,42,0,0,1,.61,12.21,46.5,46.5,0,0,0,4.49-4.82,35.35,35.35,0,0,0,6.14-11.91A26.58,26.58,0,0,1,1024,159c-1.15-1.64-2.13-3.71-1.42-5.58.82-2.18,3.74-3,5.92-2.15s3.7,2.84,4.8,4.9a43.31,43.31,0,0,1,3.77,11.81,46.43,46.43,0,0,0,.67-21.67,26.69,26.69,0,0,1-10.8-10c-1-1.71-1.89-3.83-1.07-5.66,1-2.12,3.93-2.73,6-1.76a10.1,10.1,0,0,1,4.48,5.19,38.27,38.27,0,0,1,2.77,10.4.79.79,0,0,1,.19.39A48.32,48.32,0,0,1,1040,163c-.2,1.32-.45,2.65-.75,4a26.7,26.7,0,0,1,11-9.08c1.83-.8,4-1.37,5.75-.31,2,1.23,2.2,4.25,1,6.22s-3.5,3.09-5.73,3.77c-4.17,1.26-8.22,1.36-12.54,1.41a35.63,35.63,0,0,1-3.12,7.84,40.63,40.63,0,0,1-7.8,9.8,26.69,26.69,0,0,1,14.38-3.25c2,.12,4.23.63,5.26,2.34,1.2,2,0,4.79-2,6s-4.52,1.15-6.82.73c-4.4-.8-8.13-2.63-12.12-4.62-5.14,4.59-11.09,8.4-16.54,12.5-1.72,1.29-3.39,2.61-5,4a26.69,26.69,0,0,1,15.48-3.92c2,.12,4.23.63,5.26,2.34,1.2,2,0,4.78-2,6s-4.52,1.15-6.82.74c-4.5-.81-8.3-2.7-12.4-4.74a42,42,0,0,0-4.68,4.94A71.9,71.9,0,0,0,993,220.23c-.53,1-1,2-1.54,3A26.66,26.66,0,0,1,1005,218c2-.19,4.28,0,5.56,1.5,1.5,1.8.75,4.73-1,6.22s-4.29,1.83-6.63,1.77c-4.31-.11-8.15-1.26-12.23-2.56a132.15,132.15,0,0,0-7.49,19.62,26.74,26.74,0,0,1,12.42-8.65c1.9-.62,4.16-1,5.75.24,1.86,1.42,1.79,4.44.36,6.29s-3.77,2.74-6.06,3.2c-4.35.87-8.45.56-12.84.18-.26.9-.51,1.79-.76,2.68-1.33,4.91-2.45,9.9-3.29,14.93A26.77,26.77,0,0,1,990.89,255c1.9-.63,4.17-1,5.76.23,1.85,1.42,1.78,4.44.35,6.3s-3.77,2.73-6.06,3.19c-4.23.85-8.22.58-12.48.22A118.64,118.64,0,0,0,977,282.29c0,1.21-1.88,1.11-1.88-.09a119.71,119.71,0,0,1,1.47-17.53,26.9,26.9,0,0,1-12.74-9.15C962.66,253.92,961.59,251.88,962.21,250Z" transform="translate(-176.89 -73.17)"/><path class="cls-1" d="M976.66,285.05l1,46.54c4.16-3.43,8.69-6.46,13.06-9.54A90.32,90.32,0,0,0,1003,312.1a48.47,48.47,0,0,0,9-13c2.31-4.63,4.4-9.43,7.63-13.53a36.05,36.05,0,0,1,9.23-8c7.19-4.52,15.3-7.27,22.6-11.57a38.38,38.38,0,0,0,9.89-8c3.35-3.93,5.68-8.6,7.83-13.25a119,119,0,0,1,6.89-13.73,46.32,46.32,0,0,1,8.5-9.92,59.43,59.43,0,0,1,23-12.19c20.53-5.92,42.09-1.8,62.35,3.22l3.59.91c.87-12.16-17.21-20.59-28.34-22-7.62-1-15.17,2.1-22.83,2.33-38.84,1.16-64.88-10.53-80.37,35.13-1.73,5.12-3.15,10.55-6.69,14.62C1019.11,259.23,975.42,251.56,976.66,285.05Z" transform="translate(-176.89 -73.17)"/><path class="cls-1" d="M1012.44,377.85c32.14,9.53,62.43-19.71,39.9-53.71-15.28-17.3,2.35-29.73,18.49-34.84,8-2.54,17.93-3.56,21.81-11,6.51-16.82-16.15-36.53,18.48-47,19.54-5.94,57.49,9.27,62.24-16.86a1,1,0,0,1,.05-.37c-19.24-4.91-39.37-9.51-59.16-5.71a64.12,64.12,0,0,0-24.48,9.95,48.33,48.33,0,0,0-9.59,8.75,57.25,57.25,0,0,0-7.44,12.32c-2.17,4.62-4.12,9.36-6.74,13.76a36.39,36.39,0,0,1-8.7,10.12c-6.41,5.06-14.13,8-21.39,11.58a57.57,57.57,0,0,0-10.56,6.44,35,35,0,0,0-8.73,10.8c-2.45,4.54-4.37,9.36-7.18,13.7a48.73,48.73,0,0,1-10.06,11c-6.9,5.77-14.78,10.28-21.64,16.08C977.74,332.79,976.29,367.14,1012.44,377.85Z" transform="translate(-176.89 -73.17)"/><path class="cls-1" d="M977.7,331.59v1.2c6.86-5.8,14.74-10.31,21.64-16.08a48.73,48.73,0,0,0,10.06-11c2.81-4.34,4.73-9.16,7.18-13.7a35,35,0,0,1,8.73-10.8,57.57,57.57,0,0,1,10.56-6.44c7.26-3.6,15-6.52,21.39-11.58a36.39,36.39,0,0,0,8.7-10.12c2.62-4.4,4.57-9.14,6.74-13.76a57.25,57.25,0,0,1,7.44-12.32,48.33,48.33,0,0,1,9.59-8.75,64.12,64.12,0,0,1,24.48-10c19.79-3.8,39.92.8,59.16,5.71,0-.32.09-.64.11-1l-3.59-.91c-20.26-5-41.82-9.14-62.35-3.22a59.43,59.43,0,0,0-23,12.19A46.32,46.32,0,0,0,1076,231a119,119,0,0,0-6.89,13.73c-2.15,4.65-4.48,9.32-7.83,13.25a38.38,38.38,0,0,1-9.89,8c-7.3,4.3-15.41,7.05-22.6,11.57a36.05,36.05,0,0,0-9.23,8c-3.23,4.1-5.32,8.9-7.63,13.53a48.47,48.47,0,0,1-9,13A90.32,90.32,0,0,1,990.68,322C986.39,325.13,981.86,328.16,977.7,331.59Z" transform="translate(-176.89 -73.17)"/><path class="cls-2" d="M339.39,442h-.21c-.08,0-1.78-.76-4.67-2.28a.56.56,0,0,1,.51-1c2.86,1.5,4.57,2.24,4.59,2.24a.56.56,0,0,1,.29.73A.53.53,0,0,1,339.39,442Z" transform="translate(-176.89 -73.17)"/><path class="cls-2" d="M325.89,434.61a.52.52,0,0,1-.29-.09c-2.89-1.8-5.75-3.75-8.53-5.77a.55.55,0,1,1,.65-.89c2.76,2,5.6,3.93,8.46,5.73a.55.55,0,0,1,.18.76h0A.56.56,0,0,1,325.89,434.61Zm-16.57-12.08a.51.51,0,0,1-.35-.13c-2.64-2.21-5.21-4.53-7.64-6.9a.54.54,0,0,1,0-.76l0,0a.54.54,0,0,1,.78,0h0c2.41,2.35,5,4.65,7.58,6.85a.55.55,0,0,1,.06.78h0A.55.55,0,0,1,309.32,422.53Zm-14.68-14.29a.57.57,0,0,1-.42-.19c-2.28-2.58-4.46-5.27-6.49-8a.55.55,0,1,1,.88-.66c2,2.69,4.18,5.35,6.44,7.91a.55.55,0,0,1-.05.78h0A.54.54,0,0,1,294.64,408.24Zm-12.26-16.41a.56.56,0,0,1-.47-.26,99.19,99.19,0,0,1-5-9,.56.56,0,1,1,1-.5c1.52,3,3.2,6,5,8.89a.55.55,0,0,1-.18.76h0A.61.61,0,0,1,282.38,391.83Zm-9.21-18.28a.54.54,0,0,1-.51-.35c-1.25-3.18-2.37-6.46-3.32-9.74a.56.56,0,0,1,.37-.69.57.57,0,0,1,.69.38h0c.94,3.25,2.05,6.5,3.28,9.65a.53.53,0,0,1-.28.7h0A.45.45,0,0,1,273.17,373.55Zm-5.68-19.66a.56.56,0,0,1-.54-.45c-.64-3.33-1.13-6.76-1.47-10.18a.56.56,0,0,1,.5-.61.56.56,0,0,1,.6.5h0c.34,3.39.82,6.78,1.45,10.09a.54.54,0,0,1-.42.64h-.12Zm-2-20.36a.55.55,0,0,1-.55-.54v-1.53c0-2.88.1-5.83.3-8.76a.55.55,0,0,1,.59-.52.54.54,0,0,1,.51.57v0c-.19,2.91-.3,5.83-.3,8.69V333a.54.54,0,0,1-.52.56h0Zm1.33-20.44h-.07a.55.55,0,0,1-.48-.61h0c.45-3.5,1-6.92,1.61-10.15a.56.56,0,0,1,.65-.44.55.55,0,0,1,.43.65h0c-.61,3.21-1.15,6.6-1.59,10.08a.56.56,0,0,1-.57.48ZM270.7,293h-.15a.56.56,0,0,1-.39-.68c.93-3.44,2-6.74,3.12-9.81a.57.57,0,0,1,.79-.1.55.55,0,0,1,.21.49c-1.14,3-2.17,6.3-3.09,9.71a.56.56,0,0,1-.51.4Zm46.92-15a10.92,10.92,0,0,1-4.22-.88.54.54,0,0,1-.3-.7v0a.55.55,0,0,1,.72-.29,9.51,9.51,0,0,0,9.22-1,.56.56,0,0,1,.77.14.55.55,0,0,1-.13.77h0a10.57,10.57,0,0,1-6.09,2Zm-39.69-4.14a.54.54,0,0,1-.25-.06.55.55,0,0,1-.24-.74h0a62,62,0,0,1,5.48-8.75.53.53,0,0,1,.75-.12h0a.55.55,0,0,1,.11.77,60.71,60.71,0,0,0-5.38,8.6.55.55,0,0,1-.51.3Zm28.56-3.76a.55.55,0,0,1-.49-.3,31.6,31.6,0,0,1-3.13-9.9.55.55,0,0,1,1.09-.17,30.55,30.55,0,0,0,3,9.55.56.56,0,0,1-.22.75h0a.61.61,0,0,1-.26.08Zm22-2.49h-.1a.57.57,0,0,1-.39-.6,18.14,18.14,0,0,0,.31-3.37V262.3a9.53,9.53,0,0,0-1.69-4.75.55.55,0,1,1,.92-.62h0a10.67,10.67,0,0,1,1.88,5.3v1.4a20.34,20.34,0,0,1-.32,3.57.55.55,0,0,1-.58.41Zm-38.2-9.88a.56.56,0,0,1-.42-.2.54.54,0,0,1,0-.75l0,0a34.69,34.69,0,0,1,8.79-5.49.57.57,0,0,1,.66.44.58.58,0,0,1-.22.56,33.45,33.45,0,0,0-8.52,5.31.52.52,0,0,1-.33.16ZM319,251.65h-.2a24,24,0,0,0-9.82-1.58.57.57,0,0,1-.57-.53.56.56,0,0,1,.52-.58h1.16a25.16,25.16,0,0,1,9.12,1.68.55.55,0,0,1,.34.7.53.53,0,0,1-.55.37Zm-16.14-1.5h0a.56.56,0,0,1-.53-.57h0v-.48a84.82,84.82,0,0,1,.93-9.8.57.57,0,0,1,.63-.46.55.55,0,0,1,.46.63h0a82.24,82.24,0,0,0-.91,9.65v.49a.55.55,0,0,1-.55.55h0Zm3.05-20.25h-.15a.56.56,0,0,1-.39-.68,99.33,99.33,0,0,1,3.19-9.81.55.55,0,0,1,1,.4h0a96.91,96.91,0,0,0-3.15,9.69.55.55,0,0,1-.58.4Zm7.34-19.1a.54.54,0,0,1-.25-.06.56.56,0,0,1-.24-.75,95.15,95.15,0,0,1,5.19-8.9.54.54,0,0,1,.74-.17h0a.55.55,0,0,1,.17.76h0a94.28,94.28,0,0,0-5.13,8.8.55.55,0,0,1-.54.3Zm11.25-17.09a.51.51,0,0,1-.35-.13.55.55,0,0,1-.09-.76h0a96.37,96.37,0,0,1,7-7.57.55.55,0,1,1,.77.79,97.76,97.76,0,0,0-6.91,7.48.56.56,0,0,1-.48.2Zm14.66-14.25a.54.54,0,0,1-.44-.22.55.55,0,0,1,.1-.77,100.11,100.11,0,0,1,8.4-5.93.54.54,0,0,1,.76.16h0a.56.56,0,0,1-.17.76,98.18,98.18,0,0,0-8.32,5.87.55.55,0,0,1-.39.12Zm243.67-10.6h-4.32a.54.54,0,0,1-.54-.54v0a.55.55,0,0,1,.55-.54h4.38c2,0,3.94,0,5.85-.06a.56.56,0,0,1,0,1.11c-1.91,0-3.89.05-5.87.05Zm-14.56-.32h0c-3.34-.14-6.78-.34-10.25-.57a.57.57,0,0,1-.45-.65.56.56,0,0,1,.53-.46c3.45.24,6.89.43,10.22.58a.55.55,0,1,1,0,1.1Zm-211.85,0a.56.56,0,0,1-.5-.3.55.55,0,0,1,.24-.74h0c3-1.53,6.15-3,9.36-4.26a.54.54,0,0,1,.66.41.55.55,0,0,1-.24.59c-3.19,1.29-6.31,2.71-9.27,4.22a.52.52,0,0,1-.3,0ZM599,168.41a.54.54,0,0,1-.55-.52.56.56,0,0,1,.52-.58h0c3.48-.2,6.91-.48,10.18-.82a.56.56,0,0,1,.61.48h0a.56.56,0,0,1-.49.61c-3.29.34-6.74.62-10.24.82Zm-51.19-1.26h0c-3.32-.3-6.76-.65-10.21-1a.54.54,0,0,1-.48-.59v0a.56.56,0,0,1,.61-.49c3.44.39,6.87.74,10.18,1a.57.57,0,0,1,.46.65.57.57,0,0,1-.51.46Zm71.56-.89a.55.55,0,1,1-.09-1.1c3.48-.56,6.85-1.21,10-1.95a.55.55,0,0,1,.25,1.08c-3.19.74-6.59,1.4-10.09,2Zm-91.93-1.4h-.07c-3.32-.44-6.74-.92-10.16-1.43a.57.57,0,0,1-.47-.63.55.55,0,0,1,.63-.46h0c3.42.51,6.83,1,10.14,1.42a.57.57,0,0,1,.52.59.56.56,0,0,1-.59.51Zm-20.27-3H507c-3.29-.54-6.7-1.13-10.1-1.74a.57.57,0,0,1-.45-.65.55.55,0,0,1,.64-.44c3.4.61,6.8,1.2,10.09,1.74a.55.55,0,0,1,.46.63h0a.56.56,0,0,1-.51.45Zm132.13-.28a.54.54,0,0,1-.52-.38.55.55,0,0,1,.34-.7h0a84.54,84.54,0,0,0,9.47-3.72.55.55,0,0,1,.47,1,84.94,84.94,0,0,1-9.6,3.77.5.5,0,0,1-.21,0Zm-263.95-.79a.56.56,0,0,1-.53-.38.55.55,0,0,1,.36-.69h0c3.19-1,6.52-1.94,9.9-2.76a.55.55,0,0,1,.72.32.57.57,0,0,1-.32.73l-.14,0c-3.35.8-6.66,1.72-9.82,2.73a.5.5,0,0,1-.21,0ZM487,158.28h-.1c-3.39-.59-6.79-1.14-10.1-1.63a.54.54,0,0,1-.46-.62.54.54,0,0,1,.62-.47c3.32.49,6.73,1,10.13,1.63a.56.56,0,0,1,.45.64.55.55,0,0,1-.58.44ZM395.19,156a.55.55,0,0,1-.59-.51.54.54,0,0,1,.5-.59c3.29-.58,6.71-1.08,10.16-1.48a.55.55,0,0,1,.2,1.08h-.07c-3.43.41-6.83.91-10.1,1.48Zm71.47-.68h-.07c-3.42-.41-6.84-.77-10.17-1.07a.55.55,0,0,1-.51-.59h0a.56.56,0,0,1,.6-.5c3.35.3,6.78.66,10.21,1.07a.57.57,0,0,1,.49.62.57.57,0,0,1-.55.44Zm-51.14-1.74a.56.56,0,0,1,0-1.11c3.34-.22,6.79-.37,10.26-.45h0a.56.56,0,0,1,0,1.11c-3.45.07-6.88.22-10.2.45Zm30.72-.08h0c-3.45-.19-6.88-.32-10.22-.38a.55.55,0,0,1-.54-.56h0A.56.56,0,0,1,436,152c3.35.07,6.8.2,10.26.39a.55.55,0,0,1,0,1.1Z" transform="translate(-176.89 -73.17)"/><path class="cls-2" d="M657.89,152.46a.54.54,0,0,1-.44-.22.53.53,0,0,1,.09-.76h0a18.69,18.69,0,0,0,3.66-3.39.57.57,0,0,1,.91.69,21.14,21.14,0,0,1-3.89,3.61A.57.57,0,0,1,657.89,152.46Z" transform="translate(-176.89 -73.17)"/><polygon class="cls-2" points="479.88 78.97 494.55 70.62 485.45 65.97 479.88 78.97"/><polygon class="cls-2" points="494.99 73.69 509.67 56.05 486.21 69.88 494.99 73.69"/><polygon class="cls-2" points="509.67 56.01 472.46 60.9 480.94 65.06 509.67 56.01"/><polygon class="cls-2" points="509.67 56.05 486.2 69.98 479.88 78.97 480.87 64.96 509.67 56.05"/><rect class="cls-4" x="166.61" y="193.78" width="701.06" height="373.21"/><rect class="cls-3" x="456.42" y="584.06" width="118.65" height="104.38"/><path class="cls-5" d="M752,657.23V761.61H736c1.14-10.43,2.42-41.85-19.27-65.93-20.1-22.27-63.26-24.83-83.36-24.64V657.23Z" transform="translate(-176.89 -73.17)"/><path class="cls-3" d="M811.73,761.61H573.55A35.58,35.58,0,0,0,538,797.19H847.3a35.58,35.58,0,0,0-35.56-35.58Z" transform="translate(-176.89 -73.17)"/><path class="cls-3" d="M1036.32,252.75H349A10.25,10.25,0,0,0,338.71,263V652.75A10.23,10.23,0,0,0,348.94,663h687.43a10.23,10.23,0,0,0,10.24-10.22V263a10.23,10.23,0,0,0-10.21-10.25Zm-1.38,360.75a11,11,0,0,1-11.06,10.92H357.26a11,11,0,0,1-11.07-10.92V277.87A11,11,0,0,1,357.26,267h666.62a11,11,0,0,1,11.06,10.92Z" transform="translate(-176.89 -73.17)"/><path class="cls-6" d="M811.73,761.61H573.55a35.49,35.49,0,0,0-27.46,13,35.31,35.31,0,0,1,14-2.89H798.3a35.57,35.57,0,0,1,34.1,25.51h14.9a35.58,35.58,0,0,0-35.52-35.62Z" transform="translate(-176.89 -73.17)"/><path class="cls-1" d="M960,203.65H425.29c-16.51,0-29.9,12.71-29.9,28.39V552.62c0,15.68,13.39,28.44,29.9,28.44H960c16.52,0,29.9-12.76,29.9-28.44V232C989.88,216.36,976.5,203.65,960,203.65Zm21.64,346.68c0,13.83-13,25-29.12,25H432.71c-16,0-29.06-11.16-29.06-25v-282c0-13.82,13-25,29.06-25H952.5c16.1,0,29.12,11.22,29.12,25Z" transform="translate(-176.89 -73.17)"/><path class="cls-4" d="M981.62,268.35v282c0,13.83-13,25-29.12,25H432.71c-16,0-29.06-11.16-29.06-25v-282c0-13.82,13-25,29.06-25H952.5C968.6,243.31,981.62,254.53,981.62,268.35Z" transform="translate(-176.89 -73.17)"/><path class="cls-4" d="M487.47,224a4.24,4.24,0,1,0-4.21,4.74A4.49,4.49,0,0,0,487.47,224Z" transform="translate(-176.89 -73.17)"/><path class="cls-4" d="M466.16,224a4.24,4.24,0,1,0-4.2,4.74A4.49,4.49,0,0,0,466.16,224Z" transform="translate(-176.89 -73.17)"/><path class="cls-4" d="M444.85,224a4.24,4.24,0,1,0-4.2,4.74A4.49,4.49,0,0,0,444.85,224Z" transform="translate(-176.89 -73.17)"/><path class="cls-4" d="M845.51,228.78H949.19a4.8,4.8,0,0,0,4.86-4.74h0a4.8,4.8,0,0,0-4.86-4.74H845.51a4.8,4.8,0,0,0-4.86,4.74h0a4.8,4.8,0,0,0,4.86,4.74Z" transform="translate(-176.89 -73.17)"/><rect class="cls-3" x="277.01" y="204.93" width="268.64" height="113.62"/><rect class="cls-3" x="368.28" y="395.61" width="23.36" height="27.31"/><rect class="cls-3" x="398.76" y="395.61" width="23.36" height="27.31"/><rect class="cls-3" x="368.28" y="439.01" width="23.36" height="27.31"/><rect class="cls-3" x="398.76" y="439.01" width="23.36" height="27.31"/><rect class="cls-3" x="704.78" y="395.61" width="23.36" height="27.31"/><rect class="cls-3" x="735.26" y="395.61" width="23.36" height="27.31"/><rect class="cls-3" x="704.78" y="439.01" width="23.36" height="27.31"/><rect class="cls-3" x="735.26" y="439.01" width="23.36" height="27.31"/><path class="cls-3" d="M712.13,422.44H456.76c-1.35,0-2.44-1.75-2.44-3.9h0c0-2.15,1.09-3.9,2.44-3.9H712.13c1.35,0,2.45,1.75,2.45,3.9h0C714.58,420.69,713.48,422.44,712.13,422.44Z" transform="translate(-176.89 -73.17)"/><path class="cls-3" d="M712.13,440.48H456.76c-1.35,0-2.44-1.74-2.44-3.9h0c0-2.15,1.09-3.9,2.44-3.9H712.13c1.35,0,2.45,1.75,2.45,3.9h0C714.58,438.74,713.48,440.48,712.13,440.48Z" transform="translate(-176.89 -73.17)"/><rect class="cls-3" x="450.13" y="395.61" width="234.22" height="70.71"/><rect class="cls-3" x="586.37" y="206.76" width="68.63" height="60.19"/><rect class="cls-3" x="684.32" y="206.76" width="68.63" height="60.19"/><rect class="cls-3" x="586.37" y="287.85" width="68.63" height="60.19"/><rect class="cls-3" x="684.32" y="287.85" width="68.63" height="60.19"/><rect class="cls-3" x="281.07" y="394.5" width="75.93" height="71.81"/><path class="cls-1" d="M407.23,420h-43A29.2,29.2,0,0,0,335,449.17v61.41h14V451a17,17,0,0,1,17-17h39.5a17,17,0,0,1,17,17v59.62h13.95v-61.4A29.2,29.2,0,0,0,407.27,420Z" transform="translate(-176.89 -73.17)"/><path class="cls-2" d="M303.31,506v22.42a82.42,82.42,0,0,0,82.41,82.42h0a82.42,82.42,0,0,0,82.42-82.42V506a24.25,24.25,0,0,0-24.25-24.25H327.56A24.25,24.25,0,0,0,303.31,506Z" transform="translate(-176.89 -73.17)"/><circle class="cls-4" cx="211.59" cy="469.54" r="34.38"/><circle class="cls-2" cx="211.57" cy="469.6" r="29.93"/><path class="cls-4" d="M395.49,536.09a7,7,0,1,0-10.62,6l-1.27,16a1.12,1.12,0,0,0,1,1.22h7.63a1.12,1.12,0,0,0,1.12-1.12v-.1l-1.27-16A7,7,0,0,0,395.49,536.09Z" transform="translate(-176.89 -73.17)"/><path class="cls-1" d="M380.34,797.64a1.46,1.46,0,0,0,1.45,1.47h2.53a1.12,1.12,0,0,0,1.12-1.12V793.2a1.12,1.12,0,0,0-1.12-1.12h-1.58a1.55,1.55,0,0,1-1.54-1.54v-7.91a1.54,1.54,0,0,1,1.54-1.53h1.11a1.59,1.59,0,0,0,1.59-1.59h0V773h59.7v.61a2.51,2.51,0,0,0,5,0V773h6.32v.61a2.51,2.51,0,0,0,5,0V773h.77c4.3,2.83,11.79,4.71,20.31,4.71s16-1.88,20.31-4.71h0v.61a2.51,2.51,0,0,0,5,.45,3.38,3.38,0,0,0,0-.45V773h5.39v.61a2.51,2.51,0,0,0,5,0V773H562v.61a2.51,2.51,0,0,0,5,0v-.37a6.25,6.25,0,0,0,5.59,0,18.69,18.69,0,0,0,2.3,16.09l-.09.1a2.71,2.71,0,0,0,3.71,3.91,18.7,18.7,0,0,0,24.79-.8,2.71,2.71,0,0,0,3.86-3.8l-.46-.5a18.7,18.7,0,0,0,1.59-15.1,6.29,6.29,0,0,0,5.58,0v.41a2.5,2.5,0,1,0,5,.29l3,3a1.7,1.7,0,0,0,2.38,0l7.78-7.78a1.7,1.7,0,0,0,0-2.38l-7.78-7.78a1.7,1.7,0,0,0-2.38,0l-3,3v-.11a2.51,2.51,0,0,0-5,0,6.25,6.25,0,0,0-5.49,0,18.92,18.92,0,0,0,.82-5.49,18.72,18.72,0,0,0-2.51-9.35l.47-.51a2.71,2.71,0,0,0-3.87-3.78,18.69,18.69,0,0,0-24.76-.8,2.71,2.71,0,0,0-3.73,3.9l.1.11a18.63,18.63,0,0,0-2.34,16,6.25,6.25,0,0,0-5.56,0v-.08a2.51,2.51,0,0,0-5,0v.42h-43.8v-.42a2.51,2.51,0,0,0-5,0v.42h-5.39v-.42a2.51,2.51,0,0,0-5,0h0c-4.3-2.84-11.8-4.72-20.33-4.72-8.91,0-16.69,2.05-20.88,5.1h-.2v-.42a2.51,2.51,0,0,0-5,0v.42h-6.32v-.42a2.51,2.51,0,0,0-5,0v.42h-106a5.35,5.35,0,1,0,0,10.7h6.73v6.69a1.41,1.41,0,0,0,1.36,1.46h0a1.52,1.52,0,0,1,1.6,1.53v7.91a1.54,1.54,0,0,1-1.5,1.54,1.47,1.47,0,0,0-1.48,1.44v4.14a1.43,1.43,0,0,0,1.43,1.45h1.61a1.46,1.46,0,0,0,1.46-1.46h0a1.47,1.47,0,0,1,1.47-1.47h3.76a1.46,1.46,0,0,1,1.46,1.46h0a1.47,1.47,0,0,0,1.47,1.47h2.33a1.72,1.72,0,0,0,1.71-1.71h0V793.7a1.72,1.72,0,0,0-1.71-1.71H359.6a1.28,1.28,0,0,1-1.28-1.28h0v-6.13a6.89,6.89,0,0,1,6.74-6.92,6.69,6.69,0,0,1,6.65,6.69v6.36a1.28,1.28,0,0,1-1.28,1.28h0a1.72,1.72,0,0,0-1.71,1.71h0v3.61a1.72,1.72,0,0,0,1.71,1.71h1.74a1.47,1.47,0,0,0,1.47-1.47,1.46,1.46,0,0,1,1.45-1.47h3.77a1.47,1.47,0,0,1,1.48,1.46Zm199-47a2.71,2.71,0,0,0,3.33-4.15,12.63,12.63,0,0,1,16.77.74,2.69,2.69,0,0,0,.59,3.17h0a2.69,2.69,0,0,0,2.13.69,12.6,12.6,0,0,1-2.74,14.34l-2.26,2.19,2.26,2.19a12.61,12.61,0,0,1,2.75,14.32,2.64,2.64,0,0,0-2.14.69h0a2.7,2.7,0,0,0-.59,3.18,12.64,12.64,0,0,1-16.79.74h0a2.71,2.71,0,0,0-3.33-4.15,12.57,12.57,0,0,1,2.52-14.77l2.27-2.19-2.27-2.19a12.57,12.57,0,0,1-2.51-14.79Z" transform="translate(-176.89 -73.17)"/><path class="cls-1" d="M580.74,750.91a2.78,2.78,0,0,0,1.56-.62,1.45,1.45,0,0,0,.21-.22,2.56,2.56,0,0,1-1.27-.3A11.57,11.57,0,0,0,580.74,750.91Z" transform="translate(-176.89 -73.17)"/><path class="cls-1" d="M459,776.07a2.51,2.51,0,0,0,2.51-2.51h0v-.46a2.22,2.22,0,0,1-.72.12,2.5,2.5,0,0,1-2.51-2.49h0v-.62H452v.62a2.49,2.49,0,0,1-1.39,2.23h5.93v.61a2.51,2.51,0,0,0,2.51,2.51Z" transform="translate(-176.89 -73.17)"/><path class="cls-1" d="M515.09,770.72v-.62H509.7v.62a2.49,2.49,0,0,1-1.39,2.23h5v.61a2.51,2.51,0,0,0,5,0v-.46a2.59,2.59,0,0,1-.73.12A2.52,2.52,0,0,1,515.09,770.72Z" transform="translate(-176.89 -73.17)"/><path class="cls-1" d="M590.61,743.64a12.63,12.63,0,0,1,8.8,3.57,2.68,2.68,0,0,0,1.23,3.6,2.65,2.65,0,0,0,1.49.26,12.6,12.6,0,0,1-2.74,14.34l-2.26,2.19,2.26,2.19a12.55,12.55,0,0,1,2.92,13.89,2.66,2.66,0,0,1,1.76-.41,12.59,12.59,0,0,0-2.74-14.33l-2.27-2.18,2.27-2.19a12.59,12.59,0,0,0,2.73-14.34,2.69,2.69,0,0,1-3-2.37,2.65,2.65,0,0,1,.26-1.49,12.62,12.62,0,0,0-14.78-2.06A12.65,12.65,0,0,1,590.61,743.64Z" transform="translate(-176.89 -73.17)"/><path class="cls-1" d="M605.24,789.68a18.72,18.72,0,0,1-24.8.8,2.71,2.71,0,0,1-3.7-3.91l.08-.1a18.72,18.72,0,0,1-2.29-16.09,6.28,6.28,0,0,1-2.76.64,6.35,6.35,0,0,1-2.84-.68v.38a2.51,2.51,0,0,1-5,0v-.62H520.11v.62a2.49,2.49,0,0,1-1.39,2.23h43.41v.61a2.51,2.51,0,0,0,5,0v-.37a6.25,6.25,0,0,0,5.59,0,18.69,18.69,0,0,0,2.3,16.09l-.09.1a2.71,2.71,0,0,0,3.71,3.91,18.7,18.7,0,0,0,24.79-.8,2.7,2.7,0,0,0,4.55-2.26A2.72,2.72,0,0,1,605.24,789.68Z" transform="translate(-176.89 -73.17)"/><path class="cls-1" d="M601.79,784.11a2.64,2.64,0,0,0-1.79.69,2.7,2.7,0,0,0-.59,3.18,12.75,12.75,0,0,1-2.78,2,12.71,12.71,0,0,0,4.72-2.89A2.7,2.7,0,0,1,601.79,784.11Z" transform="translate(-176.89 -73.17)"/><path class="cls-1" d="M502.91,773v.61a2.51,2.51,0,0,0,5,.45,3.38,3.38,0,0,0,0-.45v-.46a2.22,2.22,0,0,1-.72.12,2.5,2.5,0,0,1-2.51-2.49h0v-.62h0c-4.3,2.83-11.78,4.71-20.31,4.71s-16-1.88-20.3-4.71h-.78v.62A2.49,2.49,0,0,1,461.9,773h.38c4.3,2.83,11.79,4.71,20.31,4.71s16-1.88,20.31-4.71Z" transform="translate(-176.89 -73.17)"/><path class="cls-1" d="M572,758.4a6.34,6.34,0,0,1,2.49.61,18.74,18.74,0,0,1,2.34-16l-.09-.11a2.6,2.6,0,0,1-.62-1.45,2.51,2.51,0,0,0-.84.48,2.72,2.72,0,0,0-.33,3.82l.1.11a18.17,18.17,0,0,0-3,12.54Z" transform="translate(-176.89 -73.17)"/><path class="cls-1" d="M349.12,789.23a1.55,1.55,0,0,0,1.51-1.54v-7.91a1.51,1.51,0,0,0-1.51-1.53H349a1.41,1.41,0,0,1-1.39-1.43V770.1h-6.73a5.36,5.36,0,0,1-5.35-5.35,5.46,5.46,0,0,1,.16-1.27,5.35,5.35,0,0,0,3.41,9.47h6.73v6.69a1.41,1.41,0,0,0,1.36,1.46h0a1.52,1.52,0,0,1,1.6,1.53v6.63A1.33,1.33,0,0,1,349.12,789.23Z" transform="translate(-176.89 -73.17)"/><path class="cls-1" d="M362.56,797.4v-1.14H360.3a1.46,1.46,0,0,1-1.46-1.46h0a1.46,1.46,0,0,0-1.46-1.46h-3.77a1.46,1.46,0,0,0-1.46,1.46h0a1.47,1.47,0,0,1-1.47,1.47h-1.6a1.45,1.45,0,0,1-1.44-1.45V792h-.3a1.47,1.47,0,0,0-1.48,1.44v4.14a1.43,1.43,0,0,0,1.43,1.45h1.61a1.46,1.46,0,0,0,1.46-1.46h0a1.47,1.47,0,0,1,1.47-1.47h3.76a1.46,1.46,0,0,1,1.46,1.46h0a1.47,1.47,0,0,0,1.47,1.47h2.33A1.71,1.71,0,0,0,362.56,797.4Z" transform="translate(-176.89 -73.17)"/><path class="cls-1" d="M445.14,773v.61a2.51,2.51,0,0,0,5,0v-.46a2.59,2.59,0,0,1-.73.12,2.5,2.5,0,0,1-2.51-2.49h0v-.62H385.47V773Z" transform="translate(-176.89 -73.17)"/><path class="cls-1" d="M380.34,797.64a1.46,1.46,0,0,0,1.45,1.47h2.53a1.12,1.12,0,0,0,1.12-1.12v-1.73h-1.85a1.47,1.47,0,0,1-1.47-1.47,1.46,1.46,0,0,0-1.46-1.46H376.9a1.46,1.46,0,0,0-1.47,1.45h0a1.47,1.47,0,0,1-1.47,1.47h-1.74a1.72,1.72,0,0,1-1.71-1.71h0v-2.48h-.07a1.72,1.72,0,0,0-1.71,1.71h0v3.61a1.72,1.72,0,0,0,1.71,1.71h1.74a1.47,1.47,0,0,0,1.47-1.47,1.46,1.46,0,0,1,1.45-1.47h3.77a1.47,1.47,0,0,1,1.47,1.47Z" transform="translate(-176.89 -73.17)"/><path class="cls-1" d="M626.19,774a1.7,1.7,0,0,1-2.38,0l-3-3a2.5,2.5,0,0,1-5-.28v-.42a6.27,6.27,0,0,1-5.57,0,19,19,0,0,1,.75,3.5h.27a6.32,6.32,0,0,0,2.77-.64v.41a2.5,2.5,0,0,0,5,.29l3,3a1.7,1.7,0,0,0,2.38,0l7.78-7.78a1.65,1.65,0,0,0,.45-1.52Z" transform="translate(-176.89 -73.17)"/><path class="cls-1" d="M383,779.78v1.32h.86a1.59,1.59,0,0,0,1.59-1.59h0v-1.26h-.92A1.53,1.53,0,0,0,383,779.78Z" transform="translate(-176.89 -73.17)"/><path class="cls-1" d="M360.47,779.65a6.51,6.51,0,0,1,4.6-1.9,6.69,6.69,0,0,1,6.65,6.69v4.88a1.7,1.7,0,0,1,.5-.09A1.28,1.28,0,0,0,373.5,788v-6.36a6.69,6.69,0,0,0-6.64-6.69A6.81,6.81,0,0,0,360.47,779.65Z" transform="translate(-176.89 -73.17)"/><path class="cls-7" d="M811.39,467.24,713.93,298.43a8,8,0,0,0-13.79,0L602.68,467.24a8,8,0,0,0,6.89,11.94H804.49a8,8,0,0,0,6.9-11.94Z" transform="translate(-176.89 -73.17)"/><path class="cls-8" d="M796.1,461.65l-85-147.18a4.72,4.72,0,0,0-8.18,0L618,461.65a4.72,4.72,0,0,0,4.09,7.08H792a4.72,4.72,0,0,0,4.1-7.08Z" transform="translate(-176.89 -73.17)"/><path class="cls-4" d="M707,425.88a7,7,0,0,1-6.94-6.39l-4.4-52.07a7,7,0,0,1,6.42-7.54l.52,0h8.81a7,7,0,0,1,7,7c0,.17,0,.35,0,.52L714,419.49A7,7,0,0,1,707,425.88Z" transform="translate(-176.89 -73.17)"/><path class="cls-4" d="M711.44,362.12h-8.81a4.71,4.71,0,0,0-4.71,4.71c0,.14,0,.27,0,.4l4.4,52.07a4.71,4.71,0,0,0,9.39,0l4.4-52.07a4.71,4.71,0,0,0-4.29-5.09Z" transform="translate(-176.89 -73.17)"/><path class="cls-4" d="M707,444.21a7.89,7.89,0,1,1,7.89-7.89A7.89,7.89,0,0,1,707,444.21Z" transform="translate(-176.89 -73.17)"/><path class="cls-4" d="M701.4,436.32A5.63,5.63,0,1,1,707,442a5.63,5.63,0,0,1-5.6-5.68Z" transform="translate(-176.89 -73.17)"/><path class="cls-5" d="M1036.09,693.4a226.7,226.7,0,0,1-11.88,76.53q-2.31,6.9-5.11,13.81l2.14,14.81H980.15l26.53-16.48c.6-3.93,1.1-8,1.53-12.14,2.8-28,1.61-58.92.81-72.86a37.18,37.18,0,0,1,2.2-14.81c7.15-19.39,26.34-73.17,32.53-106.43h45.11C1096.59,629.05,1075.77,652,1036.09,693.4Z" transform="translate(-176.89 -73.17)"/><path class="cls-5" d="M1068.88,656.65c-8.63,11.4-19.67,23.08-32.79,36.75.28,27.33-1.52,58.35-9.79,82.85l-20.54-1.11c2.79-28-1.93-74.75,2.28-92.45,4.78-20.16,29.52-73.6,35.71-106.86h45.11C1094,611.47,1086.41,633.55,1068.88,656.65Z" transform="translate(-176.89 -73.17)"/><path class="cls-5" d="M1068.9,656.56v.09c-8.63,11.4-19.67,23.08-32.79,36.75.28,27.33-1.52,58.35-9.79,82.85l-6.09-.33c8.58-23.07,11-53.3,10-84.11,44.81-38,15.07-51.69,29-79.22Z" transform="translate(-176.89 -73.17)"/><path class="cls-9" d="M1006.68,782.07c-9.89,5.27-27.14,3.81-28.15,16.48h42.71c.49-6,.21-11.56-1.47-16.48A37.86,37.86,0,0,1,1006.68,782.07Z" transform="translate(-176.89 -73.17)"/><path class="cls-5" d="M1135.27,778c1.92,3.94,3.73,7.6,5.6,11.44l-34.08,9.81c6.72-6.25,13.49-12.38,20.17-18.71-2.84-5.48-6.34-13.24-9.4-18.19-12.22-19.83-25.86-37.3-39.7-55.72a34,34,0,0,1-6.64-14.48c-7.48-37-8.09-75.43-15.88-112.49l30.32-6c30,45.07,24.9,69.87,14.81,119.77,14.82,19.37,23.41,41.55,29.93,65.36C1131.75,763.75,1134.05,772.54,1135.27,778Z" transform="translate(-176.89 -73.17)"/><path class="cls-5" d="M1071.25,692.21a33.29,33.29,0,0,0,6.71,14.61c15.7,21.18,28.27,45.49,42.22,68.06,5.62-1.55,11.15-3.15,16.73-4.72-7.48-26.65-19.45-54.73-36.44-76.65,10.08-49.93,15.21-74.68-14.78-119.76h0l-34.48,6.77c.2.91.39,1.81.59,2.72v.08C1059.24,619.4,1063.79,656.12,1071.25,692.21Z" transform="translate(-176.89 -73.17)"/><path class="cls-5" d="M1058.36,584.47c3.9,5.31.8,16.33,5.09,22.11,11.09,15,24.86,3.08,34.21,8.94,15.91,10,.39,58.54-2.55,71.65-.09.4-2.17,9.13-3.76,9,7.2.63,4.47-4.53,14.2,11.3,4.39,7.14,27.3,48.95,28.59,62.42,1.89,1.79,1.71-.06,2.78.28-7.51-26.7-19.45-54.73-36.45-76.67,10.08-49.93,15.21-74.69-14.79-119.76-11.17,3.09-25.31,1.8-36.22,4.85C1048.17,579,1055.81,581,1058.36,584.47Z" transform="translate(-176.89 -73.17)"/><path class="cls-9" d="M1125,777c-9.39,7.38-22.69,10-23.08,23.64l39.56-11.39a44.33,44.33,0,0,0-7.06-14.92C1131.62,777.09,1128.86,777.75,1125,777Z" transform="translate(-176.89 -73.17)"/><path class="cls-10" d="M1104,531.6c39.13-10.39,52.65-22.76,52.09-29.05-1.42-15.76-32.71-34.35-56-44.85,0,0-11.8-20-19.91-17.8-4.76,1.29,8.83,14,8.17,19.35-15.92-1.25,5.51,6.69,5.51,6.69,20.4,20.57,26.51,26.41,35.36,32.48-4.62,1.62-15.12,2.59-28.43,5.11Z" transform="translate(-176.89 -73.17)"/><path class="cls-10" d="M1032.19,528.71c-39.13-10.39-55.31-19.87-54.74-26.16,1.41-15.76,32.7-34.35,56-44.85,0,0,11.8-20,19.91-17.8,4.76,1.29-8.82,14-8.17,19.35,15.92-1.25-5.5,6.69-5.5,6.69-20.41,20.57-27.06,24.06-35.36,32.48,4.61,1.62,15.12,2.59,28.42,5.11Z" transform="translate(-176.89 -73.17)"/><path class="cls-7" d="M1103.85,537.27l.25-.07c23.16-6.58,54.82-19.82,53.52-36.48-1.36-17.46-54.6-42.59-54.6-42.59l-7.21,11,30.39,29a135.6,135.6,0,0,1-31-3,100.27,100.27,0,0,0-18.82-2.33l-18.39.91c-8.72.18-15,.43-19.82,1.4h0a213.62,213.62,0,0,1-31.93,2.88l31.47-28.87-7.22-11s-53.24,25.13-54.6,42.59c-1.29,16.66,26.4,29.78,51.58,33.42a40.11,40.11,0,0,0,7.67.22c.34,1.76.63,3.49.82,5.16,1.07,15.65,2.88,44.88-4.08,64.74,0,0,12.9,6.79,43.3,5.44,19.16-.86,30.56-5.1,30.56-5.1-3.74-20.71-3.83-49-2.73-58.94C1103.28,543,1103.57,540.14,1103.85,537.27Z" transform="translate(-176.89 -73.17)"/><path class="cls-2" d="M1081.55,466.81s9.62-9.8,1.6-21.1a18.94,18.94,0,0,0-22.52-6.31c-4.11,1.61-9.89,6.36-16.69,4.24,0,0-1.59,10.2,5,16.15a9.07,9.07,0,0,0,1.33,7C1052.61,470.3,1081.55,466.81,1081.55,466.81Z" transform="translate(-176.89 -73.17)"/><path class="cls-11" d="M1058,493.72c2,10.65,17.37,10.27,18.68,0l-1.33-7.1L1073,474.09v-.27h-11.6v.27l-2.28,13.19Z" transform="translate(-176.89 -73.17)"/><path class="cls-12" d="M1059.08,487.28c2.93,3,14.12,2.75,16.23-.66L1073,474.09h-11.6Z" transform="translate(-176.89 -73.17)"/><path class="cls-13" d="M1081.2,460.45s4.24-4.15,4.64-.12c.48,4.77-5.2,8.32-5.2,8.32s-1.38,14.74-13.82,14.74-14.41-14.8-14.41-14.8-6.49-1.77-5.11-7.38c.65-2.66,4,.06,4,.06v-7a33.15,33.15,0,0,0,9.72-1.76c4.93-1.82,5.46-4.06,11.1-4.14C1076.88,448.31,1081.38,453.73,1081.2,460.45Z" transform="translate(-176.89 -73.17)"/><path class="cls-14" d="M1096.37,520.73s.73,8.49,1.82,18.31c1.15,10.31,2.69,22.08,4.22,27a186.76,186.76,0,0,1,.57-20.35c.3-2.7.59-5.53.87-8.4l.25-.07a197.88,197.88,0,0,0,23.26-8.16c-6.94,1.64-18.64,4-22.67,2.64l-.31-.11C1098.72,529.32,1096.37,520.73,1096.37,520.73Z" transform="translate(-176.89 -73.17)"/><path class="cls-14" d="M1002.28,527.44a111.82,111.82,0,0,0,25.16,6.7,41.81,41.81,0,0,0,7.67.23c.35,1.75.63,3.48.81,5.16.38,5.43.84,12.5,1,20.25a96.27,96.27,0,0,0,1.5-25.64c-.1-1.45-.25-2.92-.44-4.41a33.57,33.57,0,0,1-3.73.7C1028.59,531.21,1017,531.86,1002.28,527.44Z" transform="translate(-176.89 -73.17)"/><path class="cls-2" d="M1096.1,412.06l-11.5-3.42.34-1.15a14.81,14.81,0,0,1,2.09-4.57,11.12,11.12,0,0,1,3-2.76,66.92,66.92,0,0,1,7.51-3.56q3-1.28,3.54-2.94a3.53,3.53,0,0,0-.22-2.88,4.4,4.4,0,0,0-2.7-1.81,5,5,0,0,0-4,.37c-1.22.67-2.32,2.14-3.28,4.43l-11.31-4.95a16.72,16.72,0,0,1,7.81-9q5.28-2.73,13.75-.21,6.6,2,9.83,5.93a12,12,0,0,1,2.56,11.57,10,10,0,0,1-2.9,4.54q-2.13,2-7.55,4.11a16.27,16.27,0,0,0-5,2.74A8.45,8.45,0,0,0,1096.1,412.06Zm-12.81-.48,12.32,3.66-3.23,10.87-12.32-3.67Z" transform="translate(-176.89 -73.17)"/><path class="cls-2" d="M1138,407.29l7.46,11L1137,424l-18.35,9.4-4.62-6.78,15.5-13.58Zm-27.64,19.37,7,10.24-9,6.16-7-10.24Z" transform="translate(-176.89 -73.17)"/><path class="cls-3" d="M305,120.73H443.09s8.12-4.72-10.26-6.83-13.15-14.24-17.6-12.13-8.72,9.1-16.64-.24C387.18,88.06,377.7,77.77,371.7,92s-12.93,11.28-16.05,8.1c-5.61-5.72-15.29-9.24-20.32,0s-12.78-1.47-18.37-2c-5.23-.53-4.45,12.66-12.58,14.24s-15.47,0-15.28,3.43S303.22,120.73,305,120.73Z" transform="translate(-176.89 -73.17)"/><path class="cls-3" d="M760,185.24H898.12s8.13-4.71-10.25-6.82-13.15-14.25-17.6-12.14-8.72,9.1-16.64-.24c-11.41-13.47-20.89-23.76-26.89-9.52s-12.94,11.28-16.06,8.1c-5.61-5.72-15.28-9.23-20.31,0s-12.78-1.47-18.38-2c-5.22-.53-4.45,12.66-12.57,14.24s-15.48,0-15.28,3.43S758.26,185.24,760,185.24Z" transform="translate(-176.89 -73.17)"/><path class="cls-3" d="M919.6,108.75h138.12s8.13-4.71-10.25-6.82-13.15-14.24-17.6-12.13-8.72,9.1-16.64-.25C1001.82,76.08,992.34,65.8,986.34,80s-12.94,11.28-16.06,8.09c-5.61-5.72-15.28-9.23-20.31,0s-12.78-1.46-18.38-2c-5.22-.53-4.45,12.66-12.57,14.24s-15.48,0-15.28,3.43S917.86,108.75,919.6,108.75Z" transform="translate(-176.89 -73.17)"/><path class="cls-2" d="M1168.36,585.61a1.66,1.66,0,0,1,.2,1.25,1.62,1.62,0,0,1-1.14,1.19l-5.52,1.61a1.64,1.64,0,0,1-2.06-2l1.37-5.58a1.64,1.64,0,0,1,2-1.21,1.68,1.68,0,0,1,.75.41l4.16,4A1.64,1.64,0,0,1,1168.36,585.61Zm-7.22,2.65.06.07a.33.33,0,0,0,.34.09l5.52-1.61a.36.36,0,0,0,.24-.25.36.36,0,0,0-.1-.34l-4.15-4a.33.33,0,0,0-.34-.08.32.32,0,0,0-.24.25L1161.1,588A.39.39,0,0,0,1161.14,588.26Z" transform="translate(-176.89 -73.17)"/><path class="cls-2" d="M217.68,353.73a1.66,1.66,0,0,1-.94,2.44l-5.52,1.61a1.64,1.64,0,0,1-2.06-2l1.36-5.58a1.65,1.65,0,0,1,2.74-.8l4.15,4A1.4,1.4,0,0,1,217.68,353.73Zm-7.22,2.65.06.07a.33.33,0,0,0,.34.08l5.51-1.61a.32.32,0,0,0,.24-.25.31.31,0,0,0-.09-.33l-4.16-4a.34.34,0,0,0-.33-.09.39.39,0,0,0-.25.25l-1.36,5.59a.3.3,0,0,0,0,.29Z" transform="translate(-176.89 -73.17)"/><path class="cls-15" d="M526.49,185.4a1.66,1.66,0,0,1-1,2.45L520,189.46a1.65,1.65,0,0,1-2.06-2l1.36-5.58a1.65,1.65,0,0,1,2.74-.8l4.15,4A3,3,0,0,1,526.49,185.4Zm-7.22,2.66.06.07a.31.31,0,0,0,.33.08l5.52-1.61a.34.34,0,0,0,.24-.25.36.36,0,0,0-.1-.34l-4.15-4a.33.33,0,0,0-.34-.08.36.36,0,0,0-.24.25l-1.36,5.58A.32.32,0,0,0,519.27,188.06Z" transform="translate(-176.89 -73.17)"/><path class="cls-2" d="M1115.72,334.91l2-2a1.18,1.18,0,0,0-1.67-1.67h0l-2,2-2-2a1.18,1.18,0,0,0-1.67,1.67l2,2-2,2a1.18,1.18,0,0,0,1.67,1.67l2-2,2,2a1.18,1.18,0,1,0,1.67-1.67h0Z" transform="translate(-176.89 -73.17)"/><path class="cls-1" d="M947.64,170.55l2-2a1.18,1.18,0,0,0,0-1.67h0a1.17,1.17,0,0,0-1.65,0h0l-2,2-2-2a1.18,1.18,0,0,0-1.67,1.67h0l2,2-2,2a1.18,1.18,0,0,0,0,1.67h0a1.17,1.17,0,0,0,1.67,0l2-2,2,2a1.18,1.18,0,1,0,1.67-1.67h0Z" transform="translate(-176.89 -73.17)"/><path class="cls-2" d="M263.1,193.71l2-2a1.18,1.18,0,0,0-1.67-1.66l-2,2-2-2a1.19,1.19,0,0,0-1.67.11,1.17,1.17,0,0,0,0,1.55l2,2-2,2a1.18,1.18,0,0,0,0,1.67h0a1.17,1.17,0,0,0,1.66,0l2-2,2,2a1.17,1.17,0,0,0,1.66,0,1.18,1.18,0,0,0,0-1.67h0Z" transform="translate(-176.89 -73.17)"/><path class="cls-2" d="M1168.83,268.67a4.64,4.64,0,1,1,4.64-4.64h0A4.64,4.64,0,0,1,1168.83,268.67Zm0-7.82a3.19,3.19,0,1,0,3.17,3.21V264A3.19,3.19,0,0,0,1168.83,260.85Z" transform="translate(-176.89 -73.17)"/><path class="cls-1" d="M744.13,139.61a4.64,4.64,0,1,1,4.64-4.64,4.64,4.64,0,0,1-4.64,4.64Zm0-7.82a3.19,3.19,0,1,0,3.19,3.19h0A3.19,3.19,0,0,0,744.13,131.79Z" transform="translate(-176.89 -73.17)"/><path class="cls-2" d="M272.23,569.47a4.64,4.64,0,1,1,4.63-4.65h0A4.64,4.64,0,0,1,272.23,569.47Zm0-7.82a3.19,3.19,0,1,0,3.18,3.2v0a3.2,3.2,0,0,0-3.18-3.18Z" transform="translate(-176.89 -73.17)"/><path class="cls-4" d="M513.1,343.71h9.33v13.18H513.1v17.82H496.75V356.89H463l-.74-10.29,34.34-54.25H513.1Zm-34.57,0h18.22V314.64l-1.07,1.86Z" transform="translate(-176.89 -73.17)"/><path class="cls-4" d="M586.64,340.66q0,17.08-7.07,26.13t-20.71,9q-13.46,0-20.59-8.88T531,341.51V326.35q0-17.27,7.16-26.2t20.62-8.93q13.47,0,20.59,8.85t7.3,25.43ZM570.29,324q0-10.25-2.8-14.92t-8.74-4.67q-5.78,0-8.51,4.44t-2.92,13.9v20.05q0,10.08,2.75,15t8.79,4.89q6,0,8.66-4.7t2.77-14.38Z" transform="translate(-176.89 -73.17)"/><path class="cls-4" d="M614.3,326.29H623q6.22,0,9.23-3.11a11.45,11.45,0,0,0,3-8.26,10.08,10.08,0,0,0-3-7.75q-3-2.78-8.17-2.77a12,12,0,0,0-7.86,2.57,8.21,8.21,0,0,0-3.17,6.7H596.71a20.07,20.07,0,0,1,3.48-11.56,23.11,23.11,0,0,1,9.73-8,32.5,32.5,0,0,1,13.77-2.88q13.06,0,20.48,6.25t7.41,17.22a17.34,17.34,0,0,1-3.45,10.41,22.45,22.45,0,0,1-9,7.3,20.45,20.45,0,0,1,10.38,7.47,20.24,20.24,0,0,1,3.42,11.76q0,11-8,17.6t-21.19,6.61q-12.33,0-20.16-6.5t-7.84-17.2H612a9.47,9.47,0,0,0,3.48,7.58,12.81,12.81,0,0,0,8.57,2.94q5.82,0,9.14-3.08a10.65,10.65,0,0,0,3.3-8.17q0-12.35-13.57-12.34H614.3Z" transform="translate(-176.89 -73.17)"/></svg>