<?xml version="1.0" encoding="utf-8"?>
<!-- Generator: Adobe Illustrator 22.0.1, SVG Export Plug-In . SVG Version: 6.00 Build 0)  -->
<svg version="1.1" id="OBJECTS" xmlns="http://www.w3.org/2000/svg" xmlns:xlink="http://www.w3.org/1999/xlink" x="0px" y="0px"
	 viewBox="0 0 431.9 393.6" style="enable-background:new 0 0 431.9 393.6;" xml:space="preserve">
<style type="text/css">
	.st0{fill:#B5DFEA;}
	.st1{opacity:0.55;fill:#90CEDD;}
	.st2{fill:#79C9E8;}
	.st3{fill:#D7F0F9;}
	.st4{fill:#0582C1;}
	.st5{fill:#FFFFFF;}
	.st6{fill:#FFBF4D;}
	.st7{fill:#00668E;}
	.st8{fill:#05556D;}
	.st9{fill:#F98D3D;}
	.st10{fill:#ED701B;}
	.st11{fill:none;}
	.st12{fill:#EFAA3A;}
	.st13{opacity:0.29;fill:#F98D2B;}
	.st14{fill:#49B4D6;}
	.st15{fill:#FF9F50;}
	.st16{fill:#F77E2D;}
	.st17{opacity:0.55;fill:url(#SVGID_1_);}
</style>
<g>
	<g>
		<path class="st0" d="M419,393.6c7,0,12.6-5.6,12.7-12.5c0.5-34.6,3.3-85.7-61.9-99.9c-52.8-11.4-21.5-105.3-163.7-99.2
			c-102.1,4.4-75,90.4-154.3,97.6C-1,284.3-1.5,351.1,0.6,381.7c0.4,6.7,6,11.9,12.7,11.9H419z"/>
		<g>
			<path class="st1" d="M369.8,281.2c-52.8-11.4-21.5-105.3-163.7-99.2c-24.3,1-41.2,6.7-54.1,14.8c4.3-0.6,8.9-1,13.8-1.2
				c142.2-6.1,110.9,87.8,163.7,99.2c64.5,14,62.5,64.1,61.9,98.8H419c7,0,12.6-5.6,12.7-12.5C432.3,346.4,435.1,295.3,369.8,281.2z
				"/>
		</g>
		<g>
			<rect x="143.7" class="st2" width="2.2" height="163.8"/>
			<rect x="304.7" class="st2" width="2.2" height="189"/>
			<g>
				<path class="st3" d="M306.7,177.9l-166.9-19.5c-7.1-0.8-13.6,4.3-14.4,11.4l-12.5,106.8c-0.8,7.1,4.3,13.6,11.4,14.4l166.9,19.5
					c7.1,0.8,13.6-4.3,14.4-11.4l12.5-106.8C319,185.2,313.9,178.8,306.7,177.9z"/>
				<path class="st4" d="M316.9,202.9l1.2-10.6c0.8-7.1-4.3-13.6-11.4-14.4l-166.9-19.5c-7.1-0.8-13.6,4.3-14.4,11.4l-1.2,10.6
					L316.9,202.9z"/>
				<g>
					<path class="st2" d="M151.1,245.1l21.2-37.3c1.4-2.4,4-3.7,6.7-3.4l0,0c3.8,0.4,6.4,3.8,6,7.6l-4.4,37.7l0.2,0
						c2.6,0.3,4.5,2.7,4.2,5.3l0,0c-0.3,2.6-2.7,4.5-5.3,4.2l-0.2,0l-0.8,6.9c-0.3,2.8-2.9,4.8-5.7,4.5l0,0
						c-2.8-0.3-4.8-2.9-4.5-5.7l0.8-6.9l-15.2-1.8c-2.6-0.3-4.5-2.7-4.2-5.3l0.4-3.5C150.5,246.6,150.7,245.8,151.1,245.1z
						 M170.5,247.9l2.7-23.4c0-0.2-0.2-0.2-0.3-0.1l-12.5,22.1c-0.2,0.4,0,0.9,0.5,0.9l8.9,1C170.2,248.5,170.5,248.2,170.5,247.9z"
						/>
					<path class="st2" d="M244.5,256l21.2-37.3c1.4-2.4,4-3.7,6.7-3.4l0,0c3.8,0.4,6.4,3.8,6,7.6l-4.4,37.7l0.2,0
						c2.6,0.3,4.5,2.7,4.2,5.3l0,0c-0.3,2.6-2.7,4.5-5.3,4.2l-0.2,0l-0.8,6.9c-0.3,2.8-2.9,4.8-5.7,4.5l0,0
						c-2.8-0.3-4.8-2.9-4.5-5.7l0.8-6.9l-15.2-1.8c-2.6-0.3-4.5-2.7-4.2-5.3l0.4-3.5C243.9,257.5,244.1,256.7,244.5,256z
						 M263.9,258.8l2.7-23.4c0-0.2-0.2-0.2-0.3-0.1l-12.5,22.1c-0.2,0.4,0,0.9,0.5,0.9l8.9,1C263.6,259.4,263.9,259.1,263.9,258.8z"
						/>
					<path class="st2" d="M202.5,223.1c1.2-10.5,7.5-15.9,17.6-14.7c10.2,1.2,15,7.9,13.8,18.4l-4,34.2
						c-1.2,10.5-7.5,15.9-17.6,14.7c-10.2-1.2-15-7.9-13.8-18.4L202.5,223.1z M208.8,259.3c-0.5,4.7,1.3,6.7,4.6,7.1
						c3.3,0.4,5.6-1.2,6.1-5.9l4.2-35.6c0.5-4.7-1.3-6.7-4.6-7.1c-3.3-0.4-5.6,1.2-6.1,5.9L208.8,259.3z"/>
				</g>
				<g>
					<path class="st5" d="M143.8,173.2c-0.2,1.9-2,3.3-3.9,3.1c-1.9-0.2-3.3-2-3.1-3.9c0.2-1.9,2-3.3,3.9-3.1
						C142.7,169.6,144,171.3,143.8,173.2z"/>
					<path class="st2" d="M160.6,175.2c-0.2,1.9-2,3.3-3.9,3.1c-1.9-0.2-3.3-2-3.1-3.9c0.2-1.9,2-3.3,3.9-3.1
						C159.4,171.5,160.8,173.2,160.6,175.2z"/>
					<path class="st6" d="M177.9,177.2c-0.2,1.9-2,3.3-3.9,3.1c-1.9-0.2-3.3-2-3.1-3.9c0.2-1.9,2-3.3,3.9-3.1
						C176.8,173.5,178.1,175.3,177.9,177.2z"/>
				</g>
			</g>
		</g>
		<g>
			<path class="st7" d="M110.8,298.8c0,0-2.3,10-1.9,20.2c0.3,9.2-0.8,69.3-0.8,69.3h7.3c0,0,10.5-47.1,10.9-50.8
				c0.4-3.7,5.7-40.9,5.7-40.9L110.8,298.8z"/>
			<path class="st4" d="M115.6,296c0,0,1.7,12.9,4.6,22c2.9,9.1,17,70.3,17,70.3h7.3c0,0-1.4-47.1-1.9-50.8
				c-0.5-3.7-4.2-40.9-4.2-40.9L115.6,296z"/>
			<path class="st4" d="M137.8,388.3v5.1h14c0.8,0,1.1-1,0.4-1.5c-2-1.4-5.3-3.2-8.4-3.7H137.8z"/>
			<path class="st4" d="M108.5,388.3v5.1h14c0.8,0,1.1-1,0.4-1.5c-2-1.4-5.3-3.2-8.4-3.7H108.5z"/>
			<g>
				<path class="st7" d="M133.7,236.3c0,0,4.8-7.3-0.7-8c-4.2-0.5-6,0.7-6,0.7s-4.9-0.5-7.6,1.8c-1.8,1.6-8.6,13.9,2.3,18.4
					c10.9,4.5,8.6-6.9,8.6-6.9L133.7,236.3z"/>
				<path class="st8" d="M133,228.2c-4.2-0.5-6,0.7-6,0.7s-4.9-0.5-7.6,1.8c-1.8,1.6-8.6,13.9,2.3,18.4c5.1,2.1,7.3,0.7,8.2-1.4
					c-10.3,2.9-11.4-9.5-9.7-13.1c1.7-3.6,5.9-1.9,5.9-1.9c1.6-4.1,6.9-3.6,9.1-3.3C134.8,228.8,134.1,228.4,133,228.2z"/>
				<path class="st9" d="M127,239.8c0,0-1.4-1.4-2.5,0c-1.1,1.4-0.4,4.6,1.4,4.8c0,0-0.5,4.6-4.1,4.5v3.7h8.4V250c0,0,5.2-2.1,5-6.4
					c-0.2-4.3-1.4-7.3-1.4-7.3S130.9,239.5,127,239.8z"/>
				<path class="st10" d="M128.2,251.2c0.8,0.3,0.7,0.9,0.7,1.7h1.2V250c0,0-2,0.6-5-1C125.2,248.9,126.9,250.6,128.2,251.2z"/>
			</g>
			<path class="st9" d="M130,233c0,0-4.3-1.7-4.8-0.4c-0.3,0.8,0.5,1.6,1.7,2.3l-1,0.2c-0.2,0-0.3,0.3-0.1,0.5
				c0.3,0.2,1.1,0.4,2.7,0.4L130,233z"/>
			<g>
				<polygon class="st11" points="104.1,280.1 110,298.8 109.8,297.9 110,298.8 111.9,271.5 				"/>
				<path class="st6" d="M161,243.9c-8.3-6.1-30.9-11-30.9-11l-1.9,3.4c0,0,20.5,8,19.2,9.1c-0.8,0.7-10.8,5.3-14.2,6.8
					c-0.7,0.3-1.5,0.5-2.3,0.5l-10.4-0.1c0,0-7.5-0.9-13.4,5.9c-5.3,6.1-14.2,20.1-14.2,20.1l15.1,22.2l1.7,2.5l0,0l0,0.2
					c0,0,0.5,0.1,1.5,0.1c4.9,0.4,20.4,1.7,28.6-0.1l0.2-0.1l-0.4-36.4c13.1-10.4,19.4-18.4,21.7-21
					C161.8,245.4,161.7,244.4,161,243.9z M110.3,293.5l-1.5-3.2l-4.7-10.3l7.8-8.7l-1.4,19.1L110.3,293.5z"/>
			</g>
			<polygon class="st12" points="108.8,290.3 110.3,293.5 109.6,303.3 109.6,303.3 107.9,300.8 			"/>
			<path class="st13" d="M136,265.8c-1.4,1-1,10-1.4,15.7c-0.6,9.4-1.1,17.6-0.7,22.9c2.1-0.1,4.1-0.4,5.8-0.7l0.2-0.1l-0.4-36.4
				c13.1-10.4,19.4-18.4,21.7-21c0.6-0.7,0.5-1.7-0.2-2.2C161,243.9,150.6,255.2,136,265.8z"/>
			<path class="st7" d="M142.7,337.5c-0.4-2.7-2.4-22.8-3.5-33.8l-5.3,0.6c0,0,7.7,63.3,8.2,84.1h2.4
				C144.6,388.3,143.2,341.2,142.7,337.5z"/>
			<g>
				<path class="st4" d="M108.8,240.9l-1.6-2.9c0.8-1.5,1.3-3.2,1.3-5c0-6-4.8-10.8-10.8-10.8c-6,0-10.8,4.8-10.8,10.8
					c0,6,4.8,10.8,10.8,10.8c3,0,5.7-1.2,7.7-3.2L108.8,240.9z"/>
				<g>
					<path class="st5" d="M92.1,232h0.4v1.5c0,0.5,0.1,0.7,0.5,0.7c0.3,0,0.4-0.1,0.7-0.4V232h0.4v2.5h-0.3l0-0.4h0
						c-0.2,0.3-0.5,0.4-0.8,0.4c-0.5,0-0.8-0.3-0.8-1V232z"/>
					<path class="st5" d="M95.8,234.7v0.8h-0.4V232h0.3l0,0.3h0c0.2-0.2,0.5-0.3,0.8-0.3c0.6,0,1,0.5,1,1.3c0,0.8-0.5,1.3-1.1,1.3
						c-0.2,0-0.5-0.1-0.7-0.3L95.8,234.7z M96.4,234.2c0.4,0,0.7-0.4,0.7-1c0-0.5-0.2-0.9-0.6-0.9c-0.2,0-0.4,0.1-0.7,0.3v1.3
						C96,234.1,96.3,234.2,96.4,234.2z"/>
					<path class="st5" d="M98.7,233.9c0.2,0.2,0.4,0.3,0.7,0.3c0.3,0,0.5-0.2,0.5-0.4c0-0.3-0.3-0.4-0.6-0.5
						c-0.3-0.1-0.7-0.3-0.7-0.7c0-0.4,0.3-0.7,0.8-0.7c0.3,0,0.6,0.1,0.8,0.3l-0.2,0.3c-0.2-0.1-0.3-0.2-0.6-0.2
						c-0.3,0-0.5,0.2-0.5,0.4c0,0.2,0.3,0.3,0.5,0.4c0.4,0.1,0.7,0.3,0.7,0.7c0,0.4-0.3,0.7-0.9,0.7c-0.3,0-0.7-0.1-0.9-0.3
						L98.7,233.9z"/>
					<path class="st5" d="M101.6,233.9c0.2,0,0.3,0.1,0.3,0.3c0,0.2-0.1,0.3-0.3,0.3c-0.2,0-0.3-0.1-0.3-0.3
						C101.3,234,101.4,233.9,101.6,233.9z"/>
					<path class="st5" d="M103.3,233.9c0.2,0,0.3,0.1,0.3,0.3c0,0.2-0.1,0.3-0.3,0.3c-0.2,0-0.3-0.1-0.3-0.3
						C103,234,103.2,233.9,103.3,233.9z"/>
				</g>
			</g>
		</g>
		<g>
			<g>
				<g>
					<path class="st2" d="M67.5,370.5c0,0-2.3-2.1-0.7-10.1c1.5-8,5.4-15.7,3.5-24.4c-1.9-8.7-16.7-30.7-16.8-32.1
						c0-1.5-4.6,25.5,3.1,36.2c7.7,10.6,8.6,14.3,8.3,19.9c-0.3,5.6,0.1,10.1,0.9,11.4L67.5,370.5z"/>
					<path class="st14" d="M66.1,354.4c-0.9,3.6-1.4,12.6,0,14.7c0.1,0.2,0.3,0.1,0.6-0.3c-0.4-1.5-0.7-4.1,0.1-8.4
						c1.5-8,5.4-15.7,3.5-24.4c-1.9-8.7-16.7-30.7-16.8-32.1c0,0,2.2,18.3,9.8,30.9C68.6,343.7,67,350.8,66.1,354.4z"/>
				</g>
				<g>
					<path class="st2" d="M70.2,369.9c0,0-4.4-10.9,3-20.3c7.4-9.4,19.2-21.5,19.4-26.3c0,0,3,22.8-6.6,29.2
						c-9.6,6.4-16.4,7.5-14.7,17.4L70.2,369.9z"/>
					<path class="st14" d="M80.6,347.9c-10.7,7.8-11.6,16.8-9.9,21c0.1,0.3,0.4,0.5,0.7,0.6c-1.4-9.6,5.2-10.7,14.7-17
						c9.6-6.4,6.6-29.2,6.6-29.2S91.3,340.1,80.6,347.9z"/>
				</g>
				<g>
					<path class="st2" d="M63,370.2c0,0,1.4-5.8,0.7-12c-0.7-6.2-7.2-9.7-13.3-16.3c-3.1-3.4-4-21.3-2.1-22.9c0,0-10.7,13-9.1,22.5
						c1.7,9.5,19.1,15.7,20.8,20.3c1.6,4.6,1.5,8.5,1.5,8.5L63,370.2z"/>
					<g>
						<path class="st14" d="M44.6,324.1c-3.5,9.6,0.1,21.2,11.9,28.4c8.7,5.3,5.9,16.4,5.9,16.4l1.4-4.4c0.1-1.9,0.1-4.1-0.1-6.3
							c-0.7-6.2-7.2-9.7-13.3-16.3c-3-3.3-4-20-2.3-22.7C47.6,319.9,46.2,321.7,44.6,324.1z"/>
						<path class="st14" d="M48.1,319.2c0.1-0.2,0.2-0.2,0.2-0.2C48.2,319.1,48.1,319.1,48.1,319.2z"/>
					</g>
				</g>
				<g>
					<path class="st2" d="M72.5,369.5c0,0,2.5-9.3,8.7-10.6c6.2-1.3,13.3-10.4,13.7-12.2C94.9,346.7,93.9,364,72.5,369.5z"/>
					<path class="st14" d="M80.8,362c-3.8,1.9-5.4,4.5-6,6.8c19.1-6.1,20-22.1,20-22.1c-0.1,0.4-0.4,1-1,1.8
						C92.1,351.7,87.5,358.6,80.8,362z"/>
				</g>
			</g>
			<path class="st6" d="M85.9,366H53.4l3.9,24.3c0.3,1.8,1.9,3.2,3.7,3.2h17.3c1.9,0,3.5-1.4,3.7-3.2L85.9,366z"/>
			<polygon class="st15" points="85.3,370 85.9,366 53.4,366 54,370 			"/>
			<path class="st15" d="M78,366l-3.9,24.3c-0.3,1.8-1.9,3.2-3.7,3.2h7.9c1.9,0,3.5-1.4,3.7-3.2l3.9-24.3H78z"/>
		</g>
		<g>
			<rect x="163.2" y="322.7" class="st6" width="146.9" height="29.9"/>
			<rect x="163.2" y="322.7" class="st13" width="146.9" height="7.2"/>
			<polygon class="st16" points="175.9,322.7 189.3,322.7 185.7,330 172.3,330 			"/>
			<polygon class="st16" points="206.1,322.7 219.5,322.7 215.9,330 202.5,330 			"/>
			<polygon class="st16" points="236.3,322.7 249.7,322.7 246.1,330 232.7,330 			"/>
			<polygon class="st16" points="266.5,322.7 279.9,322.7 276.3,330 262.9,330 			"/>
			<polygon class="st16" points="310,322.7 310,322.9 306.5,330 293.1,330 296.7,322.7 			"/>
			<rect x="181.4" y="352.6" class="st2" width="10.4" height="40.8"/>
			<rect x="189.4" y="352.6" class="st14" width="2.4" height="40.8"/>
			<rect x="282.2" y="352.6" class="st2" width="10.4" height="40.8"/>
			<rect x="289.5" y="352.6" class="st14" width="3.1" height="40.8"/>
			<rect x="181.4" y="352.6" class="st14" width="10.4" height="5.1"/>
			<rect x="282.2" y="352.6" class="st14" width="10.4" height="5.1"/>
			<rect x="181.4" y="318.1" class="st2" width="10.4" height="4.6"/>
			<rect x="189.4" y="318.1" class="st14" width="2.4" height="4.6"/>
			<rect x="282.2" y="318.1" class="st2" width="10.4" height="4.6"/>
			<rect x="289.5" y="318.1" class="st14" width="3.1" height="4.6"/>
			<rect x="181.4" y="322.1" class="st14" width="10.4" height="0.6"/>
			<rect x="282.2" y="322.1" class="st14" width="10.4" height="0.6"/>
			<g>
				<g>
					<polygon class="st4" points="189.3,322.7 174.5,352.6 163.2,352.6 163.2,348.5 175.9,322.7 					"/>
					<polygon class="st4" points="206.1,322.7 191.3,352.6 204.7,352.6 219.5,322.7 					"/>
					<polygon class="st4" points="249.7,322.7 234.9,352.6 221.5,352.6 236.3,322.7 					"/>
					<polygon class="st4" points="279.9,322.7 265.1,352.6 251.7,352.6 266.5,322.7 					"/>
					<polygon class="st4" points="296.7,322.7 281.9,352.6 295.3,352.6 310,322.9 					"/>
				</g>
			</g>
			<g>
				<g>
					<polygon class="st7" points="189.3,322.7 185.7,330 172.3,330 175.9,322.7 					"/>
					<polygon class="st7" points="219.5,322.7 215.9,330 202.5,330 206.1,322.7 					"/>
					<polygon class="st7" points="249.7,322.7 246.1,330 232.7,330 236.3,322.7 					"/>
					<polygon class="st7" points="279.9,322.7 276.3,330 262.9,330 266.5,322.7 					"/>
					<polygon class="st7" points="310,322.9 306.5,330 293.1,330 296.7,322.7 					"/>
				</g>
			</g>
			<linearGradient id="SVGID_1_" gradientUnits="userSpaceOnUse" x1="237.3719" y1="361.3425" x2="237.3719" y2="337.2882">
				<stop  offset="0" style="stop-color:#FFFFFF"/>
				<stop  offset="1" style="stop-color:#FFFFFF;stop-opacity:0"/>
			</linearGradient>
			<rect x="167.3" y="335.7" class="st17" width="140.2" height="14.9"/>
			
				<ellipse transform="matrix(0.987 -0.1606 0.1606 0.987 -47.6368 33.9826)" class="st6" cx="186.3" cy="311.6" rx="9.2" ry="9.2"/>
			<path class="st4" d="M190.5,311.6c0-2.3-1.9-4.2-4.2-4.2c-2.3,0-4.2,1.9-4.2,4.2c0,2.3,1.9,4.2,4.2,4.2
				C188.7,315.8,190.5,313.9,190.5,311.6z"/>
			
				<ellipse transform="matrix(0.987 -0.1606 0.1606 0.987 -46.3256 50.2014)" class="st6" cx="287.3" cy="311.6" rx="9.2" ry="9.2"/>
			<path class="st4" d="M291.5,311.6c0-2.3-1.9-4.2-4.2-4.2c-2.3,0-4.2,1.9-4.2,4.2c0,2.3,1.9,4.2,4.2,4.2
				C289.6,315.8,291.5,313.9,291.5,311.6z"/>
		</g>
		<g>
			<path class="st6" d="M365.7,390.3h-46.8l7.2-17.3v0l2.9-7l0.8-1.9l1.3-3.1l0.3-0.6l2.9-7l0.5-1.3l5.1-12.4c0.9-2.2,4.1-2.2,5,0
				l5.1,12.4l0.5,1.3l2.9,7l0.3,0.6l1.3,3.1l0.8,1.9l2.9,7v0L365.7,390.3z"/>
			<polygon class="st13" points="322,382.8 318.9,390.3 365.7,390.3 362.6,382.8 			"/>
			<rect x="315.2" y="385.8" class="st2" width="53.6" height="7.6"/>
			<rect x="357.1" y="385.8" class="st14" width="11.6" height="7.6"/>
			<g>
				<path class="st13" d="M363.8,385.8h-6.6l-5.3-12.9v0l-2.9-7l-0.8-1.9l-1.3-3.1l-0.3-0.6l-2.9-7l-0.5-1.3l-4.3-10.4l0.8-2
					c0.9-2.2,4.1-2.2,5,0l5.1,12.4l0.5,1.3l2.9,7l0.3,0.6l1.3,3.1l0.8,1.9l2.9,7v0L363.8,385.8z"/>
				<g>
					<polygon class="st4" points="353.3,360.2 331.3,360.2 334.1,353.2 350.4,353.2 					"/>
					<polygon class="st4" points="358.5,372.9 358.5,372.9 326,372.9 326,372.9 328.9,365.9 355.6,365.9 					"/>
					<polygon class="st7" points="353.3,360.2 346.7,360.2 343.8,353.2 350.4,353.2 					"/>
					<polygon class="st7" points="358.5,372.9 358.5,372.9 351.9,372.9 351.9,372.9 349,365.9 355.6,365.9 					"/>
				</g>
			</g>
		</g>
		<g>
			<path class="st3" d="M67.5,220.2c3.5,0,6.5-2.5,7-6c0.1-0.6,0.1-1.3,0.1-1.9c0-7.7-6.2-14-14-14c-0.3,0-0.6,0-0.9,0
				c-0.6-7.6-7-13.6-14.8-13.6c-8.2,0-14.8,6.6-14.8,14.8c0,0.4,0,0.7,0,1.1c-2.3-1.3-5-2-7.9-1.9c-7.4,0.3-13.6,6.3-14.1,13.7
				c0,0.1,0,0.1,0,0.2c-0.2,4,3,7.4,7.1,7.4H67.5z"/>
			<path class="st3" d="M400.6,231.2c11,0,11.6-16.6,0.6-17.1c-0.3,0-0.6,0-0.9,0c-2,0-3.9,0.3-5.6,0.9c-1.5-9-9.3-15.9-18.7-15.9
				c-9.6,0-17.6,7.2-18.8,16.5c-2.3-1.1-4.8-1.7-7.5-1.7c-1.5,0-3,0.2-4.4,0.6c-9.7,2.5-7.6,16.8,2.3,16.8H400.6z"/>
			<path class="st3" d="M268.1,149.3c11,0,11.6-16.6,0.6-17.1c-0.3,0-0.6,0-0.9,0c-2,0-3.9,0.3-5.6,0.9c-1.5-9-9.3-15.8-18.7-15.8
				c-9.6,0-17.5,7.2-18.8,16.4c-2.3-1.1-4.8-1.7-7.5-1.7c-1.5,0-3,0.2-4.4,0.6c-9.6,2.5-7.6,16.8,2.3,16.8H268.1z"/>
			<circle class="st6" cx="92.4" cy="153.6" r="26.5"/>
			<path class="st15" d="M92.6,127.1c7.2,4.7,11.9,12.9,11.9,22.1c0,14.6-11.8,26.5-26.5,26.5c-0.1,0-0.1,0-0.2,0
				c4.2,2.7,9.1,4.3,14.5,4.3c14.6,0,26.5-11.8,26.5-26.5C118.9,139,107.1,127.2,92.6,127.1z"/>
		</g>
	</g>
</g>
</svg>
