<svg xmlns="http://www.w3.org/2000/svg" viewBox="0 0 259.28 193.96"><defs><style>.cls-1{fill:#dae8fb;}.cls-2{fill:#2168e2;}.cls-3{fill:#d2dff7;}.cls-4{fill:#fbfcfd;}.cls-5{fill:#adccfc;}.cls-6{fill:#f8fbfb;}.cls-7{fill:#f0f6fb;}.cls-8{fill:#5188e7;}.cls-9{fill:#2662c8;}.cls-10{fill:#2a70e8;}.cls-11{fill:#7da6ec;}</style></defs><title>Asset 1</title><g id="Layer_2" data-name="Layer 2"><g id="Layer_1-2" data-name="Layer 1"><path class="cls-1" d="M225.73,76.36c-1.07.37-2.2,1.17-3.22,1.06-5.69-.63-6.91,2.07-6.85,7.31.26,21.15.2,42.3,0,63.46,0,4.22,1.11,6,5.56,6.9,9.6,1.95,19.07,4.58,28.46,7.37,4.26,1.26,9.26,3.16,9.56,8.34.31,5.41-4.76,7.7-8.95,8.75-14.65,3.66-29.33,7.49-44.23,9.81-35.33,5.5-71,5-106.6,3.91C70.76,192.42,42,190,14.23,181.55A43.75,43.75,0,0,1,4.7,177.3c-6.16-3.68-6.4-9.25.08-12.13a155.91,155.91,0,0,1,25.45-8.44c10.73-2.66,9.4.11,9.42-11.46.08-30.81,0-61.63.08-92.44,0-2.41.77-4.81,1.17-7.22-.08,2.16-.22,4.32-.23,6.49q-.08,52.49-.12,105c0,10.28,6.14,16.4,16.52,16.4q70.49,0,141,0c11.59,0,16.78-5.23,16.76-16.77q-.06-37.23-.11-74.48V76.36Z"/><path class="cls-2" d="M225.73,76.36h-11v5.87q.06,37.24.11,74.48c0,11.54-5.17,16.76-16.76,16.77q-70.48,0-141,0c-10.38,0-16.53-6.12-16.52-16.4q0-52.48.12-105c0-2.17.15-4.33.23-6.49,3-7.33,8.36-10.45,16.37-10.41,38.63.18,77.27.08,115.91.08h6c1.79-12.68,7.34-22.62,18-29C212-2.43,226.87-2.12,241,7.42c13.2,8.92,19,21.92,16.28,37.59-2.93,16.75-13.68,26.82-30.17,30.79A9.07,9.07,0,0,0,225.73,76.36Zm-16.94-.81c-7-3.08-12.77,1.53-19,3.19s-5.9-2.47-5.49-6.53H47.2v78.64c0,3-.13,6,.11,9,.41,4.92,3.18,7.71,8.07,7.72q51.21,0,102.42-.14l46.62-.16c5.35-.45,8.13-2.83,8.15-8q.18-39.43-.1-78.85C212.46,78.78,210.07,77.17,208.79,75.55ZM185.6,66.36c1.54-3.1,1.13-5.8-.67-8.88A35.6,35.6,0,0,1,180.35,46c-.73-4.33-2.59-5.19-6.56-5.17-27.46.15-54.92.07-82.38.07-11.65,0-23.3-.09-34.95.07-7,.1-10,3.21-10.18,10.16-.14,5-.15,10-.22,15,2,.48,4,1.37,6.07,1.37q63.88.12,127.77,0C181.8,67.47,183.7,66.75,185.6,66.36ZM190.07,72a46.65,46.65,0,0,0,5.52-1.39c5.23-2.17,10.24-2.14,15.89-.72a32.21,32.21,0,0,0,40.34-34.53C250.54,21.72,242.52,12.56,230,8.1,216.39,3.29,203.78,6,193.76,16.56c-9.21,9.73-11.55,21.58-5.95,33.73C191,57.22,194.54,63.45,190.07,72Z"/><path class="cls-3" d="M8.77,36.9C9.43,22.62,21.68,9.59,34.38,8.71c1.87-.13,3.86,1.5,5.8,2.32-1.64,1.48-3.09,3.91-5,4.29-10.68,2.2-17,8.46-19.31,19-.14.65,0,1.49-.36,1.94-1.3,1.61-2.77,3.08-4.18,4.61Z"/><path class="cls-3" d="M43.34,21.49l3.06,2.35c-1,1.32-1.79,3.41-3.11,3.84C36.56,29.89,32.05,33.81,30.52,41c-.26,1.23-2.49,2-3.81,3-.89-1.26-2.49-2.47-2.57-3.78C23.67,32.26,33.86,21.73,43.34,21.49Z"/><path class="cls-4" d="M157.8,167.42q-51.21.09-102.42.14c-4.89,0-7.66-2.8-8.07-7.72-.24-3-.11-6-.11-9V72.21H184.3c-.41,4.06-.62,8.16,5.49,6.53-1,8.89-1.18,18-3.29,26.61-2.95,12-6.36,24.18-11.48,35.41C170.68,150.28,163.64,158.58,157.8,167.42Zm-31-32.18a114.69,114.69,0,0,0,10.75-4.65c1-.53,1.05-2.65,1.54-4-1.47-.29-3.41-1.33-4.32-.75-5.25,3.33-10.08,3.43-15.16-.37-.83-.62-2.8.28-4.25.47.42,1.43.39,3.54,1.33,4.14A106.21,106.21,0,0,0,126.82,135.24Zm-26.47-24.83h2.41c1.5-2.17,3.92-4.19,4.29-6.53.52-3.31-1.92-5.61-5.48-5.57s-6,2.21-5.49,5.57C96.46,106.22,98.85,108.24,100.35,110.41Zm61.47-5,.1-2.44c-2.09-1.58-4-4.06-6.32-4.52-3.26-.64-5.66,1.64-5.78,5.23s1.9,6.1,5.31,5.67C157.49,109.06,159.6,106.79,161.82,105.41Z"/><path class="cls-5" d="M46.06,66.09c.07-5,.08-10,.22-15,.2-7,3.16-10.06,10.18-10.16,11.65-.16,23.3-.06,34.95-.07,27.46,0,54.92.08,82.38-.07,4,0,5.83.84,6.56,5.17a35.6,35.6,0,0,0,4.58,11.48c1.8,3.08,2.21,5.78.67,8.88q-49.59,0-99.18,0C73,66.29,59.51,66.17,46.06,66.09ZM92.24,54.91l0-2.22c-1.42-.73-2.93-2.16-4.23-2s-2.91,2.08-2.89,3.2,1.81,3,3,3.13C89.37,57.16,90.84,55.68,92.24,54.91Zm-16.65-5-2-.06c-.84,1.22-2.55,2.63-2.33,3.61.33,1.41,2,2.51,3.16,3.75,1.12-1,3-2,3.16-3.1C77.75,52.82,76.33,51.33,75.59,49.92ZM60,57.76l2-.09c.66-1.36,2.06-2.9,1.79-4s-2.15-2.08-3.33-3.1c-.91,1.12-2.5,2.2-2.54,3.35S59.2,56.46,60,57.76Z"/><path class="cls-6" d="M190.07,72c4.47-8.52.93-14.75-2.26-21.68-5.6-12.15-3.26-24,5.95-33.73C203.78,6,216.39,3.29,230,8.1c12.57,4.46,20.59,13.62,21.87,27.23a32.21,32.21,0,0,1-40.34,34.53c-5.65-1.42-10.66-1.45-15.89.72A46.65,46.65,0,0,1,190.07,72Zm41.64-35.23-4.61,2.33c2.41,3.52,4.57,6.7,7.47,10.93l6.63-9.62c-2-3.29-3.67-5.22-4.52-7.46-4.16-11-17.67-16.23-27-10.06-1.17.77-1.53,2.77-2.26,4.21,1.47.21,2.93.52,4.41.59.6,0,1.21-.5,1.83-.73C222.07,23.71,229.19,27.45,231.71,36.74Zm-35.36.78c2.07,3.33,3.55,5.65,5,8,.68,1.13,1.14,2.41,1.86,3.52,5.33,8.22,17.38,11,25.07,5.75,1.08-.75,1.41-2.59,2.09-3.92a22.19,22.19,0,0,0-4.36-.83c-.9,0-1.79.81-2.74,1.11-7.9,2.5-15-1.55-17.15-10l4.28-2.5-7.59-10.61C199.93,32.28,197.77,35.45,196.35,37.52Z"/><path class="cls-7" d="M157.8,167.42c5.84-8.84,12.88-17.14,17.22-26.66,5.12-11.23,8.53-23.37,11.48-35.41,2.11-8.62,2.26-17.72,3.29-26.61,6.23-1.66,12-6.27,19-3.19,0,27.6.22,55.2-.08,82.8,0,3-2.79,5.94-4.29,8.91Z"/><path class="cls-8" d="M204.42,167.26c1.5-3,4.26-5.93,4.29-8.91.3-27.6.12-55.2.08-82.8,1.28,1.62,3.67,3.23,3.68,4.86q.34,39.42.1,78.85C212.55,164.43,209.77,166.81,204.42,167.26Z"/><path class="cls-9" d="M46.06,66.09c13.45.08,26.91.2,40.36.22q49.59.06,99.18,0c-1.9.39-3.8,1.11-5.7,1.11q-63.89.11-127.77,0C50.1,67.46,48.08,66.57,46.06,66.09Z"/><path class="cls-10" d="M126.82,135.24a106.21,106.21,0,0,1-10.11-5.2c-.94-.6-.91-2.71-1.33-4.14,1.45-.19,3.42-1.09,4.25-.47,5.08,3.8,9.91,3.7,15.16.37.91-.58,2.85.46,4.32.75-.49,1.39-.58,3.51-1.54,4A114.69,114.69,0,0,1,126.82,135.24Z"/><path class="cls-2" d="M100.35,110.41c-1.5-2.17-3.89-4.19-4.27-6.53-.54-3.36,2-5.53,5.49-5.57s6,2.26,5.48,5.57c-.37,2.34-2.79,4.36-4.29,6.53Z"/><path class="cls-2" d="M161.82,105.41c-2.22,1.38-4.33,3.65-6.69,3.94-3.41.43-5.43-2.15-5.31-5.67s2.52-5.87,5.78-5.23c2.31.46,4.23,2.94,6.32,4.52Z"/><path class="cls-8" d="M92.24,54.91c-1.4.77-2.87,2.25-4.18,2.12-1.16-.12-3-2-3-3.13s1.73-3,2.89-3.2,2.81,1.26,4.23,2Z"/><path class="cls-8" d="M75.59,49.92c.74,1.41,2.16,2.9,2,4.2-.13,1.14-2,2.07-3.16,3.1-1.12-1.24-2.83-2.34-3.16-3.75-.22-1,1.49-2.39,2.33-3.61Z"/><path class="cls-8" d="M60,57.76c-.75-1.3-2.12-2.62-2.07-3.88s1.63-2.23,2.54-3.35c1.18,1,3,1.88,3.33,3.1s-1.13,2.68-1.79,4Z"/><path class="cls-11" d="M231.71,36.74c-2.52-9.29-9.64-13-18.05-9.81-.62.23-1.23.75-1.83.73-1.48-.07-2.94-.38-4.41-.59.73-1.44,1.09-3.44,2.26-4.21,9.33-6.17,22.84-1,27,10.06.85,2.24,2.49,4.17,4.52,7.46L234.57,50c-2.9-4.23-5.06-7.41-7.47-10.93Z"/><path class="cls-11" d="M196.35,37.52c1.42-2.07,3.58-5.24,6.42-9.41l7.59,10.61-4.28,2.5c2.15,8.4,9.25,12.45,17.15,10,1-.3,1.84-1.12,2.74-1.11a22.19,22.19,0,0,1,4.36.83c-.68,1.33-1,3.17-2.09,3.92-7.69,5.3-19.74,2.47-25.07-5.75-.72-1.11-1.18-2.39-1.86-3.52C199.9,43.17,198.42,40.85,196.35,37.52Z"/></g></g></svg>