<svg xmlns="http://www.w3.org/2000/svg" xmlns:xlink="http://www.w3.org/1999/xlink" viewBox="0 0 810.53 429.99"><defs><style>.cls-1,.cls-2{opacity:0.1;}.cls-1{fill:url(#linear-gradient);}.cls-2{fill:url(#linear-gradient-2);}.cls-3{fill:#030408;}.cls-4{fill:#510394;}.cls-5{fill:#fdffff;}.cls-6{fill:url(#linear-gradient-3);}.cls-7{fill:#dfe6ed;}.cls-8{fill:#f0dbfc;}.cls-9{fill:#fff;}.cls-10{fill:#9909b7;}.cls-11{fill:#2159ff;}.cls-12,.cls-13{fill:#0008ff;}.cls-13{opacity:0.6;}.cls-14{fill:#e64d4e;}.cls-15{fill:url(#linear-gradient-4);}.cls-16{fill:#f2dad4;}.cls-17{fill:url(#linear-gradient-5);}.cls-18{fill:url(#linear-gradient-6);}.cls-19{fill:#192b59;}.cls-20{fill:url(#linear-gradient-7);}.cls-21{fill:url(#linear-gradient-8);}.cls-22{fill:url(#linear-gradient-9);}.cls-23{fill:url(#linear-gradient-10);}.cls-24{fill:url(#linear-gradient-11);}.cls-25{fill:url(#linear-gradient-12);}.cls-26{fill:url(#linear-gradient-13);}.cls-27{fill:#ffac00;}.cls-28{fill:#d3d6db;}.cls-29{fill:url(#linear-gradient-14);}.cls-30{fill:url(#linear-gradient-15);}.cls-31{fill:#7500b2;}.cls-32{fill:url(#linear-gradient-16);}.cls-33{fill:url(#linear-gradient-17);}</style><linearGradient id="linear-gradient" x1="503.55" y1="435.06" x2="502.7" y2="405.23" gradientUnits="userSpaceOnUse"><stop offset="0" stop-color="#510394"/><stop offset="0.12" stop-color="#4a0388"/><stop offset="0.34" stop-color="#380367"/><stop offset="0.63" stop-color="#1b0433"/><stop offset="0.85" stop-color="#030408"/></linearGradient><linearGradient id="linear-gradient-2" x1="82.32" y1="428.98" x2="81.86" y2="413.04" xlink:href="#linear-gradient"/><linearGradient id="linear-gradient-3" x1="390.08" y1="420.16" x2="386.76" y2="327.01" gradientUnits="userSpaceOnUse"><stop offset="0" stop-color="#510394"/><stop offset="0.14" stop-color="#4a0388"/><stop offset="0.4" stop-color="#380367"/><stop offset="0.75" stop-color="#1b0433"/><stop offset="1" stop-color="#030408"/></linearGradient><linearGradient id="linear-gradient-4" x1="518.78" y1="236.94" x2="502.12" y2="253.53" gradientTransform="translate(-31.15 155.51) rotate(-21.46)" gradientUnits="userSpaceOnUse"><stop offset="0" stop-color="#f2bfad"/><stop offset="0.74" stop-color="#f2dad4"/></linearGradient><linearGradient id="linear-gradient-5" x1="562.54" y1="419.39" x2="579" y2="416.56" gradientTransform="translate(4.53 -7.97) rotate(0.84)" gradientUnits="userSpaceOnUse"><stop offset="0" stop-color="#1d0633"/><stop offset="1" stop-color="#192b59"/></linearGradient><linearGradient id="linear-gradient-6" x1="534.66" y1="423.28" x2="508.29" y2="418.37" xlink:href="#linear-gradient-5"/><linearGradient id="linear-gradient-7" x1="478.16" y1="137.65" x2="476.9" y2="144.29" gradientTransform="translate(4.53 -7.97) rotate(0.84)" gradientUnits="userSpaceOnUse"><stop offset="0" stop-color="#f2bfad"/><stop offset="1" stop-color="#f2dad4"/></linearGradient><linearGradient id="linear-gradient-8" x1="380.75" y1="151.2" x2="379.5" y2="157.83" gradientTransform="matrix(-0.98, 0.19, 0.19, 0.98, 927.02, -93.36)" xlink:href="#linear-gradient-7"/><linearGradient id="linear-gradient-9" x1="469.66" y1="218.93" x2="591.97" y2="218.93" gradientTransform="translate(4.53 -7.97) rotate(0.84)" gradientUnits="userSpaceOnUse"><stop offset="0" stop-color="#4e9cff"/><stop offset="1" stop-color="#176ad4"/></linearGradient><linearGradient id="linear-gradient-10" x1="492.51" y1="210.4" x2="163.91" y2="330.77" gradientUnits="userSpaceOnUse"><stop offset="0" stop-color="#f2be3c"/><stop offset="1" stop-color="#ffac00"/></linearGradient><linearGradient id="linear-gradient-11" x1="649.4" y1="127.43" x2="666.97" y2="319.85" xlink:href="#linear-gradient-10"/><linearGradient id="linear-gradient-12" x1="468.03" y1="140.41" x2="478.69" y2="137.41" xlink:href="#linear-gradient-7"/><linearGradient id="linear-gradient-13" x1="589.51" y1="131.75" x2="579.21" y2="127.2" xlink:href="#linear-gradient-7"/><linearGradient id="linear-gradient-14" x1="107.51" y1="311.7" x2="53.1" y2="352.51" gradientTransform="matrix(1, 0, 0, 1, 0, 0)" xlink:href="#linear-gradient-9"/><linearGradient id="linear-gradient-15" x1="27.72" y1="345.93" x2="19.11" y2="426.9" xlink:href="#linear-gradient-10"/><linearGradient id="linear-gradient-16" x1="814.19" y1="341.35" x2="774.17" y2="371.36" gradientTransform="matrix(1, 0, 0, 1, 0, 0)" xlink:href="#linear-gradient-9"/><linearGradient id="linear-gradient-17" x1="755.52" y1="366.53" x2="749.18" y2="426.06" xlink:href="#linear-gradient-10"/></defs><title>500</title><g id="Layer_2" data-name="Layer 2"><g id="Layer_2-2" data-name="Layer 2"><ellipse class="cls-1" cx="503.18" cy="422" rx="307.35" ry="7.98"/><path class="cls-2" d="M164.22,422c0,3.26-36.76,5.9-82.1,5.9S0,425.26,0,422s36.76-5.89,82.1-5.89S164.22,418.75,164.22,422Z"/><path class="cls-3" d="M464.92,417.7H315.09c-1.41,1.77-.22,3.86,1.28,3.86H463.63A2.29,2.29,0,0,0,464.92,417.7Z"/><rect class="cls-4" x="138.42" y="61.41" width="503.2" height="290" rx="11.08" ry="11.08"/><rect class="cls-5" x="143.57" y="66.63" width="492.91" height="276.92" rx="8.94" ry="8.94"/><path class="cls-6" d="M464.59,417.34c-5.3-3.94-14.63-11-17.61-13.65-4.25-3.84-7-52.28-7-52.28H340.07s-2.75,48.44-7,52.28c-3,2.69-12.31,9.71-17.61,13.65a1.56,1.56,0,0,0,.93,2.81H463.66A1.56,1.56,0,0,0,464.59,417.34Z"/><path class="cls-7" d="M620.88,128.81H598.62V104.69A8.73,8.73,0,0,0,589.9,96H224.77a8.73,8.73,0,0,0-8.72,8.72V303.82a8.74,8.74,0,0,0,8.72,8.73H589.9a8.74,8.74,0,0,0,8.72-8.73V132.57h22.26a1.88,1.88,0,0,0,0-3.76Zm-31,180H224.77a5,5,0,0,1-5-5V104.69a5,5,0,0,1,5-5H589.9a5,5,0,0,1,5,5v24.12H345.51a1.88,1.88,0,0,0,0,3.76H594.87V303.82A5,5,0,0,1,589.9,308.79Z"/><path class="cls-7" d="M534.71,120.89a6.07,6.07,0,1,0-6.06-6.06A6.07,6.07,0,0,0,534.71,120.89Z"/><circle class="cls-7" cx="555.13" cy="114.83" r="6.07"/><path class="cls-7" d="M575.55,120.89a6.07,6.07,0,1,0-6.07-6.06A6.07,6.07,0,0,0,575.55,120.89Z"/><path class="cls-7" d="M378.54,153h-132a1.88,1.88,0,0,0-1.88,1.87v132a1.88,1.88,0,0,0,1.88,1.87h132a1.87,1.87,0,0,0,1.87-1.87v-132A1.87,1.87,0,0,0,378.54,153Zm-130.08,132V156.71h128.2v128.2Z"/><path class="cls-8" d="M567.31,206.63a1.88,1.88,0,0,0-1.87,1.88v2.72h-2.72a1.88,1.88,0,1,0,0,3.75h4.59a1.88,1.88,0,0,0,1.88-1.87v-4.6A1.88,1.88,0,0,0,567.31,206.63Z"/><path class="cls-8" d="M544.78,215h9a1.88,1.88,0,1,0,0-3.75h-9a1.88,1.88,0,0,0,0,3.75Z"/><path class="cls-8" d="M517.88,211.23h-9a1.88,1.88,0,1,0,0,3.75h9a1.88,1.88,0,1,0,0-3.75Z"/><path class="cls-8" d="M526.85,215h9a1.88,1.88,0,0,0,0-3.75h-9a1.88,1.88,0,1,0,0,3.75Z"/><path class="cls-7" d="M455.1,215h9a1.88,1.88,0,1,0,0-3.75h-9a1.88,1.88,0,0,0,0,3.75Z"/><path class="cls-7" d="M482,211.23h-9a1.88,1.88,0,1,0,0,3.75h9a1.88,1.88,0,0,0,0-3.75Z"/><path class="cls-7" d="M501.82,213.11a1.88,1.88,0,0,0-1.88-1.88h-9a1.88,1.88,0,1,0,0,3.75h9A1.88,1.88,0,0,0,501.82,213.11Z"/><path class="cls-7" d="M437.17,215h9a1.88,1.88,0,0,0,0-3.75h-9a1.88,1.88,0,1,0,0,3.75Z"/><path class="cls-7" d="M428.2,211.23h-9a1.88,1.88,0,1,0,0,3.75h9a1.88,1.88,0,1,0,0-3.75Z"/><path class="cls-7" d="M405.67,215h4.59a1.88,1.88,0,1,0,0-3.75h-2.71v-2.72a1.88,1.88,0,0,0-3.76,0v4.6A1.88,1.88,0,0,0,405.67,215Z"/><path class="cls-7" d="M405.67,180.94a1.88,1.88,0,0,0,1.88-1.88v-9.82a1.88,1.88,0,0,0-3.76,0v9.82A1.88,1.88,0,0,0,405.67,180.94Z"/><path class="cls-7" d="M405.67,200.57a1.88,1.88,0,0,0,1.88-1.88v-9.81a1.88,1.88,0,1,0-3.76,0v9.81A1.88,1.88,0,0,0,405.67,200.57Z"/><path class="cls-7" d="M405.67,161.3a1.88,1.88,0,0,0,1.88-1.87v-2.72h2.71a1.88,1.88,0,1,0,0-3.75h-4.59a1.88,1.88,0,0,0-1.88,1.87v4.6A1.88,1.88,0,0,0,405.67,161.3Z"/><path class="cls-7" d="M437.17,156.71h9a1.88,1.88,0,0,0,0-3.75h-9a1.88,1.88,0,1,0,0,3.75Z"/><path class="cls-7" d="M419.23,156.71h9a1.88,1.88,0,1,0,0-3.75h-9a1.88,1.88,0,1,0,0,3.75Z"/><path class="cls-7" d="M544.78,156.71h9a1.88,1.88,0,1,0,0-3.75h-9a1.88,1.88,0,0,0,0,3.75Z"/><path class="cls-7" d="M508.91,156.71h9a1.88,1.88,0,1,0,0-3.75h-9a1.88,1.88,0,1,0,0,3.75Z"/><path class="cls-7" d="M491,156.71h9a1.88,1.88,0,1,0,0-3.75h-9a1.88,1.88,0,1,0,0,3.75Z"/><path class="cls-7" d="M526.85,156.71h9a1.88,1.88,0,0,0,0-3.75h-9a1.88,1.88,0,1,0,0,3.75Z"/><path class="cls-7" d="M455.1,156.71h9a1.88,1.88,0,1,0,0-3.75h-9a1.88,1.88,0,0,0,0,3.75Z"/><path class="cls-7" d="M482,153h-9a1.88,1.88,0,1,0,0,3.75h9a1.88,1.88,0,0,0,0-3.75Z"/><path class="cls-7" d="M567.31,153h-4.59a1.88,1.88,0,1,0,0,3.75h2.72v2.72a1.88,1.88,0,0,0,3.75,0v-4.6A1.88,1.88,0,0,0,567.31,153Z"/><path class="cls-7" d="M567.31,187a1.88,1.88,0,0,0-1.87,1.88v9.81a1.88,1.88,0,1,0,3.75,0v-9.81A1.88,1.88,0,0,0,567.31,187Z"/><path class="cls-7" d="M567.31,167.37a1.87,1.87,0,0,0-1.87,1.87v9.82a1.88,1.88,0,1,0,3.75,0v-9.82A1.88,1.88,0,0,0,567.31,167.37Z"/><path class="cls-7" d="M476.94,226.64H405.67a1.88,1.88,0,0,0-1.88,1.88v58.27a1.88,1.88,0,0,0,1.88,1.87h71.27a1.87,1.87,0,0,0,1.87-1.87V228.52A1.88,1.88,0,0,0,476.94,226.64Zm-69.39,58.27V230.39h67.51v54.52Z"/><path class="cls-7" d="M565.78,226.64H494.51a1.88,1.88,0,0,0-1.88,1.88v58.27a1.88,1.88,0,0,0,1.88,1.87h71.27a1.87,1.87,0,0,0,1.87-1.87V228.52A1.88,1.88,0,0,0,565.78,226.64Zm-69.39,58.27V230.39H563.9v54.52Z"/><rect class="cls-7" x="583.16" y="134.41" width="130.54" height="167.22" rx="8" ry="8"/><rect class="cls-9" x="606.65" y="174.64" width="73.89" height="3.28"/><rect class="cls-9" x="606.65" y="185.31" width="73.89" height="3.28"/><rect class="cls-9" x="606.65" y="195.99" width="49.26" height="3.28"/><rect class="cls-9" x="606.65" y="206.66" width="73.89" height="3.28"/><rect class="cls-9" x="606.65" y="217.33" width="49.26" height="3.28"/><rect class="cls-9" x="606.65" y="228.01" width="73.89" height="3.28"/><rect class="cls-9" x="606.65" y="238.68" width="49.26" height="3.28"/><rect class="cls-9" x="606.65" y="249.35" width="73.89" height="3.28"/><rect class="cls-9" x="606.65" y="260.03" width="49.26" height="3.28"/><rect class="cls-10" x="606.65" y="154.93" width="41.05" height="10.67" rx="5.34" ry="5.34"/><rect class="cls-7" x="85.78" width="157.57" height="146.95" rx="8" ry="8"/><rect class="cls-10" x="97.29" y="106.23" width="79.67" height="3.54"/><rect class="cls-10" x="97.29" y="117.73" width="53.11" height="3.54"/><rect class="cls-10" x="207.06" y="110.65" width="28.33" height="28.33" rx="9" ry="9"/><path class="cls-11" d="M93.78,0H235.35a8,8,0,0,1,8,8V95.6a0,0,0,0,1,0,0H85.78a0,0,0,0,1,0,0V8a8,8,0,0,1,8-8Z"/><path class="cls-12" d="M85.78,49.25s22.73,28.08,50.59,25.85,38.82-20.22,62.72-20.22c31,0,44.26,9.52,44.26,9.52V95.6H85.78Z"/><circle class="cls-9" cx="122.96" cy="34.52" r="7.97" transform="translate(85.13 156.51) rotate(-88.45)"/><rect class="cls-13" x="148.63" y="53.11" width="9.74" height="4.43"/><rect class="cls-13" x="164.56" y="15.93" width="9.74" height="4.43" transform="translate(50.03 -103.42) rotate(39.4)"/><rect class="cls-13" x="230.96" y="14.16" width="9.74" height="4.43" transform="translate(13.61 97.01) rotate(-23.92)"/><rect class="cls-13" x="89.32" y="7.08" width="9.74" height="4.43" transform="translate(65.24 -80.82) rotate(66.56)"/><rect class="cls-7" x="179.94" y="30.58" width="186.94" height="49.49" rx="8.72" ry="8.72"/><rect class="cls-9" x="203.08" y="42.66" width="140.67" height="3.38"/><rect class="cls-9" x="203.08" y="53.64" width="140.67" height="3.38"/><rect class="cls-9" x="203.08" y="64.61" width="93.78" height="3.38"/><path class="cls-14" d="M525.13,193.38s-5.7-8.7-6.61-14.27,1.61-10.67,7.82-13.05a12.19,12.19,0,0,1,13.09,2.86c2.15,2.34,2.36,6,3,12C543.24,187.55,525.13,193.38,525.13,193.38Z"/><path class="cls-15" d="M524.25,190.68s1.55,4.27,1.52,5.76-.12,9.11.15,9.37,7.57,3.69,10.42,3.26,6.6-4.67,6.45-5.33a65.54,65.54,0,0,1-1.15-7.65C541.78,195.32,526.65,189.55,524.25,190.68Z"/><path class="cls-16" d="M534.15,172.5c3.85-1.06,6.23.14,6.68,1.49s2.62,9.61,3.2,11.29.5,11.3-2.84,12.32-10.3.44-12.81-2.69a19.46,19.46,0,0,0-4.7-4.62c-.74-.47-3.52-3.57-3.29-4.86s.91-2.24,1.75-1.75a9.16,9.16,0,0,1,3,3.2c.31.7-1-10,1.36-11.38A51.7,51.7,0,0,1,534.15,172.5Z"/><path class="cls-17" d="M574.05,411.11c1.31,2.17,5.6,8.24,6.51,9.71s1.89,4.05,1.24,4.2a22.56,22.56,0,0,1-8.29,1c-3.73-.46-7.73-1.61-8.16-2.83s-.15-3.54-1-3.75-3,0-4.45-.8-1.89-1-1.88-1.57-.38-4.55.08-5.76S574.05,411.11,574.05,411.11Z"/><path class="cls-18" d="M514,411.61c-1.09,1.09-11,9.47-11.9,10.93a3,3,0,0,0-.05,3.37,11.41,11.41,0,0,0,6.41,1.16c3.06-.31,9-1.45,10.76-3.53s3-4.25,3.69-4.15,1.93,1.21,4,.54,4.4-1.45,4.6-1.95a12.57,12.57,0,0,0-.12-4.6C531.05,412.75,514,411.61,514,411.61Z"/><path class="cls-19" d="M514.33,281.71c-.62,4-2.39,21.59-2,30.86s4.8,38,4.2,46.12.76,36.71-.59,40.78-3,12.46-2.58,12.94c.91,1.09,8.27,2.87,11.13,2.91s6.79-.71,7.34-1.51-1.05-16.6-.19-23.59,3.43-24.73,3.43-28.55,2.43-34.49,2.56-36.7.34-9.46,1.12-9.5,3.67,12.23,4.18,14.65,9,28.7,10,41.95,3.16,30,3,31.71,2,10.26,4.94,10.44,7.51-1.39,9.4-1.75,4.43-.05,4.58-1.08-4.21-13.12-4.52-14.78,1.19-20.46.31-26.18-3.21-15.58-3.73-18.07.28-23.71.28-28.45-3.42-37.86-5.94-41.52S514.33,281.71,514.33,281.71Z"/><path class="cls-20" d="M471.36,138.62c-.61,1.56,1.44,6.57,2.05,7.74s2.16,11.68,2.14,12.81-.06,4.09.19,4.28a9.85,9.85,0,0,0,5.49,1.43,3.84,3.84,0,0,0,3.19-3.54c-.05-.53-.75-4.48-1.22-6.72s-.81-6.93.08-7.89,4.45-3.24,4.63-4.31,0-5.68-.7-6.58-2.9.08-3.4.12-1.43.61-1.34,1.1,1.23,1.39,1.53,1.43.66.16.66.52-.56.69-.81.65.24-1.26-1.3-1.28A76.84,76.84,0,0,1,474,137,3.28,3.28,0,0,0,471.36,138.62Z"/><path class="cls-21" d="M591.74,128.39c.88,1.42-.25,6.71-.65,8s-.06,11.87.15,13,.79,4,.57,4.24a9.75,9.75,0,0,1-5.14,2.38,3.85,3.85,0,0,1-3.77-2.92c0-.53,0-4.54,0-6.82s-.42-7-1.47-7.76-5-2.4-5.32-3.42-1-5.58-.47-6.6,2.87-.44,3.37-.48,1.51.34,1.51.84a3.19,3.19,0,0,1-1.26,1.68c-.29.09-.62.27-.55.63a.87.87,0,0,0,.91.5c.23-.09-.46-1.2,1-1.5a76.61,76.61,0,0,0,8.22-2.83A3.27,3.27,0,0,1,591.74,128.39Z"/><path class="cls-22" d="M471.74,165c-.47,3.17,5.26,15.06,6.14,17.63s7.71,17.08,8.54,18.09,8,6.93,10.86,10.66,10.58,9.46,11.91,10.83,4.42,10.4,4,22.47-4.35,39.47-3.65,40.06,17.91-.38,27.29-.13,32.35,1.59,33,0-10.32-38.51-10.36-44.26,2.53-20.48,5.5-23.48,20.89-19.76,23.75-26.62,5.7-33.09,5.48-35.42-12-2.35-12.51-1.15S580,174,578.09,177.59,565.55,197.33,563.22,198,548,203.54,546,202.74s-2-5.26-3.23-5.23-1.43,2.36-3.21,2.53-1.47,2.06-1.5,4-2.34,4.13-3.47,3.77-4.08-5.66-5.76-6.18-3.57-.3-4.12.34-1.06,1.32-2.24.56-10.88-1.55-12-1.46a6,6,0,0,1-5.06-3.25c-1.35-2.55-10.54-10.86-10.73-11.75s-4.46-10.38-5.07-12.57-2.49-11.52-3.89-12.14-5.89-.24-8,.27S471.88,164.15,471.74,165Z"/><path class="cls-23" d="M212.21,395.1c-89,0-118.56-52.77-121.74-80.68-2.4-21,.63-36.26,9.27-46.53,7.9-9.38,20.73-14.46,38.68-15.51v9.23c-15.5.9-25.36,4.77-31.63,12.22-6.92,8.23-9.26,21.16-7.17,39.55,2.87,25.08,30.08,72.51,112.59,72.51,31.58,0,54.53-8.1,72.24-25.47,16.31-16,26.9-38.09,39.16-63.66,17.75-37,37.86-79,81.94-115.08a346.57,346.57,0,0,1,83.7-50.46,4.61,4.61,0,1,1,3.62,8.48,337.23,337.23,0,0,0-81.48,49.11c-42.49,34.8-62.14,75.78-79.47,111.93-12.11,25.26-23.55,49.12-41,66.26C271.36,386.17,246.36,395.1,212.21,395.1Z"/><path class="cls-24" d="M664.11,415c-1.1,0-2.18-.06-3.25-.16-13-1.31-25.64-10.95-36.55-27.88-6-9.31-11.73-21.7-16.68-35.59h9.67c12,32.45,28.16,52.65,44.48,54.3,10.16,1,22.17-5,33.83-17.06,12.81-13.19,23.94-32,31.37-53.07,8.08-22.88,10.92-45.85,8.23-66.43-4.1-31.29-22.21-61.83-51-86-29.9-25.11-69-42.12-113-49.2a4.61,4.61,0,1,1,1.46-9.1c45.63,7.34,86.24,25.06,117.42,51.24,30.55,25.64,49.8,58.27,54.2,91.86,6.34,48.42-16.39,100.6-42.12,127.11C689.49,408.19,676.39,415,664.11,415Z"/><path class="cls-25" d="M473.55,137c.73-.41,1.47-1.69,2.13-1.73s.72.12.93,0,.7-1.26,1.51-1.43a4.78,4.78,0,0,1,1.59.12c.13-.06.33-1,1.14-.91s1,.64,1.15.56.94-.67,1.51-.31a3,3,0,0,1,1.14,1.8c0,.41.07,3.39-.61,3.56a2.3,2.3,0,0,1-1.56.08c-.26-.19-.57,1.05-1.19,1s-1.07-.39-1.3-.35-.2.85-1.09.83-1.29-.63-1.52-.64-.53.68-1.42.6-1.38-.39-1.37-1,.18-1.26-.17-1.35S473.55,137,473.55,137Z"/><path class="cls-26" d="M589.31,127.22c-.79-.28-1.75-1.41-2.41-1.33s-.69.24-.91.17-.92-1.11-1.74-1.14a4.27,4.27,0,0,0-1.54.41c-.14,0-.5-.9-1.28-.7s-.84.79-1,.74-1-.49-1.54,0a3,3,0,0,0-.8,2c.08.4.53,3.35,1.23,3.4a2.27,2.27,0,0,0,1.54-.19c.23-.24.75.93,1.36.79s1-.57,1.22-.57.34.79,1.21.62,1.17-.86,1.39-.9.64.57,1.5.34,1.29-.63,1.17-1.22-.4-1.21-.07-1.35S589.31,127.22,589.31,127.22Z"/><path class="cls-19" d="M522.85,119.44,513,122.72a1.62,1.62,0,0,1-2.05-1h0a1.61,1.61,0,0,1,1-2l9.88-3.28a1.62,1.62,0,0,1,2,1h0A1.62,1.62,0,0,1,522.85,119.44Z"/><path class="cls-19" d="M526.45,130.29l-9.88,3.28a1.62,1.62,0,0,1-2.05-1h0a1.61,1.61,0,0,1,1-2l9.88-3.28a1.62,1.62,0,0,1,2.05,1h0A1.62,1.62,0,0,1,526.45,130.29Z"/><path class="cls-27" d="M515.75,142.23l-9.12,3a15.32,15.32,0,0,1-19.35-9.71h0A15.32,15.32,0,0,1,497,116.2l9.13-3Z"/><path class="cls-27" d="M518.2,143.65h0a1.89,1.89,0,0,1-2.37-1.19L506,113a1.89,1.89,0,0,1,1.19-2.37h0a1.87,1.87,0,0,1,2.37,1.19l9.79,29.51A1.88,1.88,0,0,1,518.2,143.65Z"/><path class="cls-27" d="M554.67,110.55l9.43,1.87a15.31,15.31,0,0,1,12,18h0a15.3,15.3,0,0,1-18,12l-9.43-1.88Z"/><rect class="cls-7" x="17.86" y="172.49" width="171.37" height="134.22" rx="8" ry="8"/><rect class="cls-10" x="29.68" y="181.78" width="51.49" height="7.6"/><rect class="cls-9" x="29.68" y="198.66" width="150.26" height="75.97" rx="6" ry="6"/><rect class="cls-28" x="38.12" y="223.99" width="75.97" height="3.38"/><rect class="cls-28" x="38.12" y="234.96" width="75.97" height="3.38"/><rect class="cls-28" x="38.12" y="245.94" width="50.65" height="3.38"/><rect class="cls-10" x="141.95" y="239.18" width="27.01" height="27.01" rx="9" ry="9"/><path class="cls-10" d="M74.84,214.7H43.61a5.49,5.49,0,0,1-5.49-5.49h0a5.48,5.48,0,0,1,5.49-5.48H74.84a5.48,5.48,0,0,1,5.49,5.48h0A5.49,5.49,0,0,1,74.84,214.7Z"/><path class="cls-29" d="M82.6,311.66c4.62,1.21,22.08.5,18.75-8.12-3.71-9.58-13.61-1.2-17.86,4.11a118.44,118.44,0,0,0,1.8-21.73c3.14-3.77,9.78-27.75-3.29-26.56-17.12,1.56-2,24.25,2,26.83,0,5.53-.37,16.48-2.87,26-.53-6-6.56-23.23-14.57-17.17-11.61,8.79,10.61,19.4,14,19.22a32.88,32.88,0,0,1-4.21,9.22c-1.29,1.84-2.72,4-4.19,6.29l-.08.09c-.74-6.36-6.68-22.7-14.52-16.77-10.84,8.21,7.81,18,13.08,19.12a150.13,150.13,0,0,0-9.24,17.24c-.36-5.75-11.63-17.49-16.11-10.77-2.5,3.74,10.71,15.94,15.07,13.21-2.49,6.06-4,11.74-3.46,15.87.19,1.53.47,3.33.79,5.28-3.09-3.41-14.24-14.86-17.56-6-2.75,7.34,6.45,11.6,10.32,11.6,3,0,6.23-2.86,7.49-4.11.18,1.05.36,2.14.55,3.25,1.56,9,3.43,19.91,2.88,26.45-2.63-5.11-14.4-26.38-21.24-12.7-3.5,7,6.45,12.9,10.32,14.18,3.17,1.06,8.84.11,10.78-.26a11.51,11.51,0,0,1-.44,2,76.33,76.33,0,0,1-7.66,15.32.66.66,0,0,0,.18.9.68.68,0,0,0,.36.1.66.66,0,0,0,.54-.28,85.09,85.09,0,0,0,6.53-12.26c3-.39,14.71-2,18.07-4.22,3.87-2.57,10.79-11.05,5.16-14.18-8.73-4.84-17.87,8-21.87,14.73,1.49-5,.17-15-1.38-24.38,3.12.93,13.27-.88,16.8-3.24,3.87-2.58,10.53-9.26,6.45-12.89-10.25-9.11-21.08,10.19-23.47,14.82-.25-1.46-.49-2.9-.73-4.3-.65-3.74-1.26-7.28-1.59-10-.48-3.84,1-9.37,3.5-15.56a39.49,39.49,0,0,0,16.48,1.46c9-1.29,13.6-8.31,10.32-11.6-5.6-5.6-22.13,6-26.4,9.16A142.93,142.93,0,0,1,72.3,331.86c5.26,1.22,26.21.77,23.37-7.55s-13.56-2.72-19.86,2.16q.78-1.16,1.56-2.28A38.11,38.11,0,0,0,82.6,311.66Z"/><path class="cls-30" d="M45.26,391.5c-10.82-4.33-13.47,12.24-14,17.67a63.92,63.92,0,0,1-2.32-25.41c1.65,0,8-.34,12.49-2.57,5.16-2.58,8.34-12.9,3.87-14.18-7.51-2.15-14.12,10.87-16.13,15.31a27.78,27.78,0,0,1,.64-2.89A116.06,116.06,0,0,0,33.12,358c2,0,7.71-.24,10.85-1.28,3.87-1.29,10.42-11.39,5.16-12.9-7.25-2.07-13.66,8.33-15.91,12.51.44-8,.11-15.64-1.25-20.87a50.93,50.93,0,0,0,1.69-11c0-5.16-6-15.31-11.61-10.32-10.26,9.12,5.12,19.79,8.81,22.13,1.25,5.15,1.52,12.58,1.07,20.29-2.3-5.8-11.61-26.68-22.77-16.63-4.28,3.85,5.16,12.89,11.6,15.47A36.61,36.61,0,0,0,31.84,358a113.68,113.68,0,0,1-3.32,21.11,33.39,33.39,0,0,0-.72,3.4c-2.45-4.93-13.82-25.9-26.37-16.77-5.22,3.79,5.15,12.89,10.31,15.47,4.43,2.21,13.44,2.33,15.9,2.32a65.18,65.18,0,0,0,2.22,25.41C26.07,403.19,15,388.48,6.58,398c-5,5.62,7.94,10.38,11.61,11.6,3.23,1.08,10.14,1.4,12.33,1.48,1.83,5.53,4.33,10.13,7.24,12.55a.63.63,0,0,0,.41.15.64.64,0,0,0,.49-.23.65.65,0,0,0-.08-.91c-2.78-2.31-5.15-6.69-6.91-12a66,66,0,0,0,9.72-4.92C45.26,403.11,51.24,393.9,45.26,391.5Z"/><path class="cls-31" d="M73,423.73H14.32a.65.65,0,1,1,0-1.29H73a.65.65,0,0,1,0,1.29Z"/><path class="cls-31" d="M93.6,423.73H80.07a.65.65,0,1,1,0-1.29H93.6a.65.65,0,1,1,0,1.29Z"/><path class="cls-32" d="M795.87,341.33c3.39.88,16.24.36,13.78-6-2.72-7.05-10-.89-13.13,3a86.93,86.93,0,0,0,1.33-16c2.31-2.78,7.19-20.41-2.42-19.53-12.59,1.14-1.44,17.83,1.46,19.72a80.85,80.85,0,0,1-2.11,19.12c-.39-4.45-4.82-17.08-10.71-12.63-8.54,6.47,7.8,14.27,10.28,14.13a24.33,24.33,0,0,1-3.1,6.78c-1,1.36-2,2.92-3.08,4.63l-.06.06c-.55-4.67-4.91-16.69-10.67-12.32-8,6,5.74,13.23,9.61,14.05a111.2,111.2,0,0,0-6.79,12.68c-.27-4.23-8.56-12.86-11.85-7.92-1.83,2.75,7.88,11.72,11.08,9.71-1.82,4.46-2.92,8.63-2.54,11.68.14,1.12.34,2.44.58,3.87-2.27-2.5-10.47-10.92-12.91-4.41-2,5.4,4.74,8.53,7.58,8.53,2.23,0,4.59-2.1,5.51-3,.13.78.27,1.58.41,2.39,1.15,6.64,2.52,14.64,2.12,19.45-1.94-3.75-10.59-19.39-15.62-9.34-2.58,5.16,4.74,9.48,7.58,10.43,2.34.78,6.51.08,7.94-.2a8.68,8.68,0,0,1-.33,1.47A55.94,55.94,0,0,1,774.18,423a.46.46,0,0,0,.13.65.42.42,0,0,0,.26.08.46.46,0,0,0,.4-.21,61.81,61.81,0,0,0,4.8-9c2.24-.29,10.82-1.46,13.29-3.1,2.84-1.9,7.93-8.13,3.79-10.43-6.41-3.56-13.14,5.91-16.08,10.83,1.1-3.67.13-11-1-17.93,2.29.69,9.75-.65,12.35-2.38,2.85-1.89,7.75-6.81,4.74-9.48-7.54-6.7-15.5,7.49-17.25,10.9-.18-1.08-.37-2.13-.54-3.16-.48-2.75-.93-5.35-1.17-7.32-.36-2.83.7-6.89,2.57-11.45a29,29,0,0,0,12.13,1.08c6.63-.95,10-6.12,7.58-8.53-4.11-4.12-16.27,4.41-19.41,6.73a105.15,105.15,0,0,1,7.53-14.09c3.87.89,19.28.57,17.19-5.55s-10-2-14.6,1.58c.38-.56.76-1.12,1.15-1.67A28.23,28.23,0,0,0,795.87,341.33Z"/><path class="cls-33" d="M768.41,400c-8-3.18-9.9,9-10.32,13a46.73,46.73,0,0,1-1.7-18.68c1.21,0,5.9-.25,9.18-1.89,3.79-1.9,6.13-9.49,2.84-10.43-5.52-1.57-10.38,8-11.86,11.26.13-.74.28-1.45.47-2.13a84.57,84.57,0,0,0,2.47-15.77,33.43,33.43,0,0,0,8-.94c2.85-.95,7.66-8.38,3.8-9.48-5.33-1.52-10,6.12-11.7,9.19.32-5.86.08-11.5-.92-15.34a37.21,37.21,0,0,0,1.24-8.07c0-3.79-4.4-11.26-8.53-7.58-7.55,6.71,3.76,14.55,6.47,16.27.92,3.78,1.12,9.25.79,14.91-1.69-4.26-8.54-19.61-16.74-12.22-3.15,2.83,3.79,9.48,8.53,11.37a27.09,27.09,0,0,0,8.15,1.9,83.93,83.93,0,0,1-2.44,15.51c-.22.8-.39,1.64-.54,2.51-1.79-3.63-10.16-19.05-19.39-12.34-3.83,2.79,3.79,9.48,7.59,11.38,3.25,1.63,9.88,1.71,11.69,1.7a47.81,47.81,0,0,0,1.63,18.69c-2.79-4.21-10.93-15-17.12-8.07-3.67,4.14,5.84,7.64,8.53,8.54,2.38.79,7.46,1,9.07,1.08,1.35,4.07,3.19,7.45,5.32,9.23a.45.45,0,0,0,.31.11.48.48,0,0,0,.36-.17.46.46,0,0,0-.06-.66c-2-1.71-3.79-4.93-5.08-8.83a48.12,48.12,0,0,0,7.15-3.61C768.41,408.57,772.81,401.79,768.41,400Z"/><path class="cls-31" d="M788.79,423.73H745.66a.47.47,0,1,1,0-.94h43.13a.47.47,0,1,1,0,.94Z"/><path class="cls-31" d="M804,423.73H794a.47.47,0,1,1,0-.94h10a.47.47,0,1,1,0,.94Z"/></g></g></svg>