<?xml version="1.0" encoding="utf-8"?>
<!-- Generator: Adobe Illustrator 22.0.1, SVG Export Plug-In . SVG Version: 6.00 Build 0)  -->
<svg version="1.1" id="OBJECTS" xmlns="http://www.w3.org/2000/svg" xmlns:xlink="http://www.w3.org/1999/xlink" x="0px" y="0px"
	 viewBox="0 0 400.5 252" style="enable-background:new 0 0 400.5 252;" xml:space="preserve">
<style type="text/css">
	.st0{fill:#F6A530;}
	.st1{fill:#FFFFFF;}
	.st2{fill:#415B91;}
	.st3{fill-rule:evenodd;clip-rule:evenodd;fill:#B6D0FB;}
	.st4{fill-rule:evenodd;clip-rule:evenodd;fill:#415B91;}
	.st5{fill:#E8E8E8;}
	.st6{fill:#405B91;}
	.st7{fill:#B6D0FB;}
	.st8{fill:#3F5B91;}
	.st9{fill:#D7E7FF;}
</style>
<g>
	<g>
		<path class="st0" d="M66.4,228.2H40c-0.6,0-1-0.5-1-1c0-0.6,0.5-1,1-1h26.3c0.6,0,1,0.5,1,1C67.4,227.8,66.9,228.2,66.4,228.2z"/>
	</g>
	<g>
		<g>
			<path class="st1" d="M278.2,136.9h-0.8c0-0.6-0.5-1.1-1.1-1.1s-1.1,0.5-1.1,1.1h-0.8c0-1,0.8-1.9,1.9-1.9
				C277.4,135,278.2,135.9,278.2,136.9z"/>
		</g>
	</g>
	<g>
		<g>
			<path class="st1" d="M280.9,93.1h-0.8c0-0.6-0.5-1.1-1.1-1.1c-0.6,0-1.1,0.5-1.1,1.1h-0.8c0-1,0.8-1.9,1.9-1.9
				C280,91.3,280.9,92.1,280.9,93.1z"/>
		</g>
	</g>
	<g>
		<g>
			<g>
				<path class="st2" d="M187.3,244.6h-35.8l0.6-1.4c2.3-5.6,2.6-10.3,2.2-15.8l-0.1-1.1l30.2-0.1l0,1c0,3.5,1,11.5,2.4,16
					L187.3,244.6z M154.6,242.5h29.9c-1.2-4.4-1.9-10.6-2.1-14.3l-25.9,0.1C156.7,233.2,156.4,237.6,154.6,242.5z"/>
			</g>
		</g>
	</g>
	<g>
		<g>
			<g>
				<path class="st2" d="M141.2,227.9c-27.2,0-49.2-0.1-50.1-0.5c-2.3-0.8-5.4-4.1-5.4-6.3c-0.1-5-0.3-11.7-0.5-19.5
					c-0.7-23.5-1.8-55.8-0.4-73.6c0.2-3.3,2.9-5.8,6.1-5.8c0,0,0.1,0,0.1,0l156.6,0.2c3.3,0.1,6,2.7,6,6.1
					c0.1,5.2,0.3,10.5,0.5,15.9c0.7,22.6,1.5,46-1,68.1c-0.1,0.9-0.1,1.8-0.2,2.8c-0.2,4.6-0.5,10.4-6.4,11.6
					C243.4,227.6,185.5,227.9,141.2,227.9z M90.8,123.9c-2.4,0-4.3,1.8-4.5,4.2c-1.3,17.8-0.3,49.9,0.4,73.4
					c0.2,7.8,0.5,14.6,0.5,19.5c0,1.4,2.4,4.1,4.3,4.8c3.3,0.7,150.6,0.2,154.4-0.5c4.7-0.9,4.9-5.6,5.1-10c0-1,0.1-2,0.2-2.9
					c2.5-22,1.7-45.3,1-67.8c-0.2-5.4-0.3-10.7-0.5-15.9c-0.1-2.5-2-4.4-4.4-4.5L90.8,123.9C90.9,123.9,90.8,123.9,90.8,123.9z"/>
			</g>
		</g>
	</g>
	<g>
		<g>
			<path class="st3" d="M243.2,128.9l-147.6-0.2c-2.7,0-4.9,1.8-5.1,4.2c-1.7,19.8,0.6,61,0.9,77.6c0,1.6,2.7,4,4.6,4.6
				c2.2,0.7,142.5,0.2,145.9-0.4c6.2-1.1,5.1-7.4,5.6-11.4c2.9-22.8,1.1-47.6,0.5-69.9C248,130.8,245.8,128.9,243.2,128.9z"/>
		</g>
	</g>
	<g>
		<g>
			<g>
				<path class="st2" d="M200.1,251h-61.4c-2.4,0-3.7-1.9-3.7-3.8c0-1.9,1.3-3.8,3.7-3.8h61.4c2.4,0,3.7,1.9,3.7,3.8
					C203.8,249.1,202.5,251,200.1,251z M138.7,245c-1.6,0-2,1.3-2,2.1c0,0.8,0.4,2.1,2,2.1h61.4c1.6,0,2-1.3,2-2.1
					c0-0.8-0.4-2.1-2-2.1H138.7z"/>
			</g>
		</g>
	</g>
	<g>
		<g>
			<g>
				<g>
					<g>
						<path class="st4" d="M95.9,221C95.6,221,95.6,221,95.9,221"/>
					</g>
				</g>
			</g>
			<g>
				<g>
					<g>
						<g>
							<path class="st2" d="M95.9,223.1c2.8,0,2.8-4.3,0-4.3C93.2,218.8,93.2,223.1,95.9,223.1L95.9,223.1z"/>
						</g>
					</g>
				</g>
			</g>
		</g>
		<g>
			<g>
				<g>
					<g>
						<path class="st4" d="M104.6,221C104.2,221,104.2,221,104.6,221"/>
					</g>
				</g>
			</g>
			<g>
				<g>
					<g>
						<g>
							<path class="st2" d="M104.6,223.1c2.8,0,2.8-4.3,0-4.3C101.8,218.8,101.8,223.1,104.6,223.1L104.6,223.1z"/>
						</g>
					</g>
				</g>
			</g>
		</g>
		<g>
			<g>
				<g>
					<g>
						<path class="st4" d="M113.2,221C112.8,221,112.8,221,113.2,221"/>
					</g>
				</g>
			</g>
			<g>
				<g>
					<g>
						<g>
							<path class="st2" d="M113.2,223.1c2.8,0,2.8-4.3,0-4.3C110.4,218.8,110.4,223.1,113.2,223.1L113.2,223.1z"/>
						</g>
					</g>
				</g>
			</g>
		</g>
	</g>
	<g>
		<g>
			<g>
				<g>
					<path class="st4" d="M169.4,126.6C169.2,126.6,169.2,126.6,169.4,126.6"/>
				</g>
			</g>
		</g>
		<g>
			<g>
				<g>
					<g>
						<path class="st2" d="M169.4,127.6c1.3,0,1.3-2,0-2C168.1,125.6,168.1,127.6,169.4,127.6L169.4,127.6z"/>
					</g>
				</g>
			</g>
		</g>
	</g>
	<g>
		<g>
			<polygon class="st0" points="342.6,246.9 321.4,246.9 329.5,220.2 334.4,220.2 			"/>
		</g>
		<g>
			<rect x="319.6" y="246.9" class="st0" width="24.7" height="3.1"/>
		</g>
		<g>
			<polygon class="st5" points="323.4,240.2 321.4,246.9 342.6,246.9 340.5,240.2 			"/>
		</g>
		<g>
			<polygon class="st5" points="325.5,233.5 338.5,233.5 336.4,226.9 327.5,226.9 			"/>
		</g>
	</g>
	<g id="XMLID_11_">
		<g id="XMLID_493_">
			<path class="st0" d="M351.2,249.8h4.7v-18.2H380v18.2h4.7v-18.2h5v-14.5h-4v-1.3h-6.8v1.3h-21.4v-1.3h-6.8v1.3h-4.4v14.5h4.9
				V249.8z M388.2,218.6L388.2,218.6l-2.9,11.5h-5.2l2.9-11.5H388.2z M374.7,230.1h-5.2l2.9-11.5h5.2L374.7,230.1z M364.1,230.1
				h-5.2l2.9-11.5h5.2L364.1,230.1z M351.3,218.6h5.2l-2.9,11.5h-5.2L351.3,218.6z"/>
		</g>
	</g>
	<g>
		<g>
			<g>
				<path class="st0" d="M120.3,72.1l1.4-1.4c0.3-0.3,0.3-0.7,0-1l-1.2-1.2c-0.3-0.3-0.4-0.8-0.2-1.2l1-2.4c0.1-0.4,0.5-0.7,0.9-0.7
					h1.7c0.4,0,0.7-0.3,0.7-0.7v-2c0-0.4-0.3-0.7-0.7-0.7h-1.7c-0.4,0-0.8-0.3-0.9-0.7l-1-2.4c-0.2-0.4-0.1-0.9,0.2-1.2l1.2-1.2
					c0.3-0.3,0.3-0.7,0-1l-1.4-1.4c-0.3-0.3-0.7-0.3-1,0L118,54c-0.3,0.3-0.8,0.4-1.2,0.2l-2.4-1c-0.4-0.1-0.7-0.5-0.7-0.9v-1.7
					c0-0.4-0.3-0.7-0.7-0.7h-2c-0.4,0-0.7,0.3-0.7,0.7v1.7c0,0.4-0.3,0.8-0.7,0.9l-2.4,1c-0.4,0.2-0.9,0.1-1.2-0.2l-1.2-1.2
					c-0.3-0.3-0.7-0.3-1,0l-1.4,1.4c-0.3,0.3-0.3,0.7,0,1l1.2,1.2c0.3,0.3,0.4,0.8,0.2,1.2l-1,2.4c-0.1,0.4-0.5,0.7-0.9,0.7h-1.7
					c-0.4,0-0.7,0.3-0.7,0.7v2c0,0.4,0.3,0.7,0.7,0.7h1.7c0.4,0,0.8,0.3,0.9,0.7l1,2.4c0.2,0.4,0.1,0.9-0.2,1.2l-1.2,1.2
					c-0.3,0.3-0.3,0.7,0,1l1.4,1.4c0.3,0.3,0.7,0.3,1,0l1.2-1.2c0.3-0.3,0.8-0.4,1.2-0.2l2.4,1c0.4,0.1,0.7,0.5,0.7,0.9v1.7
					c0,0.4,0.3,0.7,0.7,0.7h2c0.4,0,0.7-0.3,0.7-0.7v-1.7c0-0.4,0.3-0.8,0.7-0.9l2.4-1c0.4-0.2,0.9-0.1,1.2,0.2l1.2,1.2
					C119.5,72.4,120,72.4,120.3,72.1z M112,68.2c-3.2,0-5.8-2.6-5.8-5.8c0-3.2,2.6-5.8,5.8-5.8c3.2,0,5.8,2.6,5.8,5.8
					C117.8,65.6,115.2,68.2,112,68.2z"/>
			</g>
		</g>
		<g>
			<g>
				<path class="st0" d="M133.7,77.6l-0.4-1.2c-0.1-0.2-0.3-0.4-0.6-0.3l-1,0.3c-0.2,0.1-0.5,0-0.7-0.3l-1-1.3
					c-0.2-0.2-0.2-0.5-0.1-0.7l0.5-0.9c0.1-0.2,0-0.5-0.2-0.6l-1.1-0.6c-0.2-0.1-0.5,0-0.6,0.2l-0.5,0.9c-0.1,0.2-0.4,0.4-0.7,0.3
					l-1.6-0.2c-0.2,0-0.5-0.2-0.6-0.4l-0.3-1c-0.1-0.2-0.3-0.4-0.6-0.3l-1.2,0.4c-0.2,0.1-0.4,0.3-0.3,0.6l0.3,1
					c0.1,0.2,0,0.5-0.3,0.7l-1.3,1c-0.2,0.2-0.5,0.2-0.7,0.1l-0.9-0.5c-0.2-0.1-0.5,0-0.6,0.2l-0.6,1.1c-0.1,0.2,0,0.5,0.2,0.6
					l0.9,0.5c0.2,0.1,0.4,0.4,0.3,0.7l-0.2,1.6c0,0.2-0.2,0.5-0.4,0.6l-1,0.3c-0.2,0.1-0.4,0.3-0.3,0.6l0.4,1.2
					c0.1,0.2,0.3,0.4,0.6,0.3l1-0.3c0.2-0.1,0.5,0,0.7,0.2l1,1.3c0.2,0.2,0.2,0.5,0.1,0.7l-0.5,0.9c-0.1,0.2,0,0.5,0.2,0.6l1.1,0.6
					c0.2,0.1,0.5,0,0.6-0.2l0.5-0.9c0.1-0.2,0.4-0.4,0.7-0.3l1.6,0.2c0.3,0,0.5,0.2,0.6,0.4l0.3,1c0.1,0.2,0.3,0.4,0.6,0.3l1.2-0.4
					c0.2-0.1,0.4-0.3,0.3-0.6l-0.3-1c-0.1-0.2,0-0.5,0.2-0.7l1.3-1c0.2-0.2,0.5-0.2,0.7-0.1l0.9,0.5c0.2,0.1,0.5,0,0.6-0.2l0.6-1.1
					c0.1-0.2,0-0.5-0.2-0.6l-0.9-0.5c-0.2-0.1-0.4-0.4-0.3-0.7L132,79c0-0.2,0.2-0.5,0.4-0.6l1-0.3
					C133.7,78.1,133.8,77.8,133.7,77.6z M129.2,81c-0.9,1.8-3.1,2.4-4.9,1.5c-1.8-0.9-2.4-3.1-1.5-4.9c0.9-1.8,3.1-2.4,4.9-1.5
					C129.5,77,130.2,79.2,129.2,81z"/>
			</g>
		</g>
	</g>
	<g>
		<path class="st6" d="M192.6,100.4H160c-0.6,0-1-0.5-1-1c0-0.6,0.5-1,1-1h32.6c0.6,0,1,0.5,1,1C193.7,99.9,193.2,100.4,192.6,100.4
			z"/>
	</g>
	<g>
		<path class="st6" d="M126.3,115.2H73.6c-0.6,0-1-0.5-1-1s0.5-1,1-1h52.7c0.6,0,1,0.5,1,1S126.8,115.2,126.3,115.2z"/>
	</g>
	<g>
		<path class="st6" d="M378.7,143.2h-52.7c-0.6,0-1-0.5-1-1s0.5-1,1-1h52.7c0.6,0,1,0.5,1,1S379.3,143.2,378.7,143.2z"/>
	</g>
	<g>
		<path class="st6" d="M399.4,252H1c-0.6,0-1-0.5-1-1c0-0.6,0.5-1,1-1h398.4c0.6,0,1,0.5,1,1C400.5,251.5,400,252,399.4,252z"/>
	</g>
	<g>
		<g>
			<g>
				<path class="st0" d="M253.3,87.3c-2.2,0-4.3,0.9-5.9,2.4c-2.7,2.7-3.2,6.9-1.3,10.1l0.1,0.2l-8.5,8.5c0,0-0.4,0.4-0.4,1
					c0,0.4,0.2,0.9,0.6,1.3c0.5,0.5,0.9,0.7,1.4,0.7c0.6,0,1-0.3,1-0.3l8.4-8.5l0.2,0.1c1.3,0.8,2.7,1.1,4.2,1.1
					c2.2,0,4.3-0.9,5.9-2.4c3.3-3.3,3.3-8.6,0-11.8C257.6,88.2,255.5,87.3,253.3,87.3z M253.3,101.6c-3.2,0-5.9-2.6-5.9-5.9
					c0-3.2,2.6-5.9,5.9-5.9l0,0c3.2,0,5.9,2.6,5.9,5.9C259.2,98.9,256.5,101.6,253.3,101.6z"/>
			</g>
		</g>
		<g>
			<g>
				<path class="st0" d="M250.2,96.9h6.1v-1.5h-6.1V96.9z"/>
			</g>
		</g>
	</g>
	<g>
		<g>
			<path class="st6" d="M98,250.1c-0.6,0-1-0.5-1-1v-79.9c0-0.6,0.5-1,1-1c0.6,0,1,0.5,1,1v79.9C99,249.6,98.6,250.1,98,250.1z"/>
		</g>
		<g>
			<path class="st6" d="M116.5,250.1c-0.6,0-1-0.5-1-1v-79.9c0-0.6,0.5-1,1-1s1,0.5,1,1v79.9C117.6,249.6,117.1,250.1,116.5,250.1z"
				/>
		</g>
		<g>
			<path class="st6" d="M116.5,175.7H98c-0.6,0-1-0.5-1-1c0-0.6,0.5-1,1-1h18.6c0.6,0,1,0.5,1,1
				C117.6,175.2,117.1,175.7,116.5,175.7z"/>
		</g>
		<g>
			<path class="st6" d="M116.5,184.8H98c-0.6,0-1-0.5-1-1c0-0.6,0.5-1,1-1h18.6c0.6,0,1,0.5,1,1
				C117.6,184.3,117.1,184.8,116.5,184.8z"/>
		</g>
		<g>
			<path class="st6" d="M116.5,193.9H98c-0.6,0-1-0.5-1-1c0-0.6,0.5-1,1-1h18.6c0.6,0,1,0.5,1,1
				C117.6,193.5,117.1,193.9,116.5,193.9z"/>
		</g>
		<g>
			<path class="st6" d="M116.5,203.1H98c-0.6,0-1-0.5-1-1c0-0.6,0.5-1,1-1h18.6c0.6,0,1,0.5,1,1
				C117.6,202.6,117.1,203.1,116.5,203.1z"/>
		</g>
		<g>
			<path class="st6" d="M116.5,212.2H98c-0.6,0-1-0.5-1-1c0-0.6,0.5-1,1-1h18.6c0.6,0,1,0.5,1,1
				C117.6,211.7,117.1,212.2,116.5,212.2z"/>
		</g>
		<g>
			<path class="st6" d="M116.5,221.3H98c-0.6,0-1-0.5-1-1s0.5-1,1-1h18.6c0.6,0,1,0.5,1,1S117.1,221.3,116.5,221.3z"/>
		</g>
		<g>
			<path class="st6" d="M116.5,230.4H98c-0.6,0-1-0.5-1-1c0-0.6,0.5-1,1-1h18.6c0.6,0,1,0.5,1,1C117.6,230,117.1,230.4,116.5,230.4z
				"/>
		</g>
		<g>
			<path class="st6" d="M116.5,239.5H98c-0.6,0-1-0.5-1-1c0-0.6,0.5-1,1-1h18.6c0.6,0,1,0.5,1,1
				C117.6,239.1,117.1,239.5,116.5,239.5z"/>
		</g>
	</g>
	<g>
		<g>
			<path class="st6" d="M72.7,173.1c-0.6,0-1-0.5-1-1v-4c0-0.6,0.5-1,1-1c0.6,0,1,0.5,1,1v4C73.7,172.6,73.3,173.1,72.7,173.1z"/>
		</g>
		<g>
			<path class="st6" d="M74.7,171h-4c-0.6,0-1-0.5-1-1c0-0.6,0.5-1,1-1h4c0.6,0,1,0.5,1,1C75.8,170.6,75.3,171,74.7,171z"/>
		</g>
	</g>
	<g>
		<g>
			<path class="st6" d="M166,28.6c-0.6,0-1-0.5-1-1v-4c0-0.6,0.5-1,1-1c0.6,0,1,0.5,1,1v4C167,28.2,166.5,28.6,166,28.6z"/>
		</g>
		<g>
			<path class="st6" d="M168,26.6h-4c-0.6,0-1-0.5-1-1s0.5-1,1-1h4c0.6,0,1,0.5,1,1S168.6,26.6,168,26.6z"/>
		</g>
	</g>
	<g>
		<g>
			<path class="st6" d="M198.7,237.7c-0.1,0-0.2,0-0.3,0l-3.9-1.1c-0.6-0.2-0.9-0.7-0.7-1.3c0.2-0.6,0.7-0.9,1.3-0.7l3.9,1.1
				c0.6,0.2,0.9,0.7,0.7,1.3C199.5,237.4,199.1,237.7,198.7,237.7z"/>
		</g>
		<g>
			<path class="st6" d="M196.2,239.1c-0.1,0-0.2,0-0.3,0c-0.6-0.2-0.9-0.7-0.7-1.3l1.1-3.9c0.2-0.6,0.7-0.9,1.3-0.7
				c0.6,0.2,0.9,0.7,0.7,1.3l-1.1,3.9C197,238.8,196.6,239.1,196.2,239.1z"/>
		</g>
	</g>
	<g>
		<g>
			<path class="st6" d="M178.3,115.7c-0.1,0-0.2,0-0.3,0l-3.9-1.1c-0.6-0.2-0.9-0.7-0.7-1.3c0.2-0.6,0.7-0.9,1.3-0.7l3.9,1.1
				c0.6,0.2,0.9,0.7,0.7,1.3C179.1,115.4,178.7,115.7,178.3,115.7z"/>
		</g>
		<g>
			<path class="st6" d="M175.8,117.1c-0.1,0-0.2,0-0.3,0c-0.6-0.2-0.9-0.7-0.7-1.3l1.1-3.9c0.2-0.6,0.7-0.9,1.3-0.7
				c0.6,0.2,0.9,0.7,0.7,1.3l-1.1,3.9C176.6,116.8,176.2,117.1,175.8,117.1z"/>
		</g>
	</g>
	<g>
		<g>
			<g>
				
					<ellipse transform="matrix(0.7071 -0.7071 0.7071 0.7071 -3.3815 146.828)" class="st7" cx="175.5" cy="77.5" rx="14.4" ry="14.4"/>
			</g>
		</g>
		<g>
			<g>
				<g>
					<circle class="st1" cx="175.5" cy="77.5" r="10.8"/>
				</g>
			</g>
			<g>
				<g>
					<g>
						<path class="st6" d="M175.5,88.7c-6.2,0-11.2-5-11.2-11.2c0-6.2,5-11.2,11.2-11.2s11.2,5,11.2,11.2
							C186.8,83.7,181.7,88.7,175.5,88.7z M175.5,67.1c-5.7,0-10.4,4.7-10.4,10.4c0,5.7,4.7,10.4,10.4,10.4
							c5.7,0,10.4-4.7,10.4-10.4C185.9,71.8,181.3,67.1,175.5,67.1z"/>
					</g>
				</g>
			</g>
		</g>
		<g>
			<g>
				<g>
					<path class="st6" d="M175.5,77.9c-0.2,0-0.4-0.2-0.4-0.4V72c0-0.2,0.2-0.4,0.4-0.4c0.2,0,0.4,0.2,0.4,0.4v5.5
						C176,77.7,175.8,77.9,175.5,77.9z"/>
				</g>
			</g>
			<g>
				<g>
					<path class="st6" d="M182,77.9h-6.4c-0.2,0-0.4-0.2-0.4-0.4c0-0.2,0.2-0.4,0.4-0.4h6.4c0.2,0,0.4,0.2,0.4,0.4
						C182.4,77.7,182.2,77.9,182,77.9z"/>
				</g>
			</g>
		</g>
		<g>
			<g>
				<g>
					<path class="st6" d="M176,67.9c0,0.2-0.2,0.4-0.4,0.4s-0.4-0.2-0.4-0.4c0-0.2,0.2-0.4,0.4-0.4S176,67.7,176,67.9z"/>
				</g>
			</g>
			<g>
				<g>
					<circle class="st6" cx="182.3" cy="70.7" r="0.4"/>
				</g>
			</g>
			<g>
				<g>
					<path class="st6" d="M185.1,77.9c-0.2,0-0.4-0.2-0.4-0.4c0-0.2,0.2-0.4,0.4-0.4c0.2,0,0.4,0.2,0.4,0.4
						C185.5,77.7,185.4,77.9,185.1,77.9z"/>
				</g>
			</g>
			<g>
				<g>
					<circle class="st6" cx="182.3" cy="84.3" r="0.4"/>
				</g>
			</g>
			<g>
				<g>
					<path class="st6" d="M175.1,87.1c0-0.2,0.2-0.4,0.4-0.4s0.4,0.2,0.4,0.4c0,0.2-0.2,0.4-0.4,0.4S175.1,87.3,175.1,87.1z"/>
				</g>
			</g>
			<g>
				<g>
					<path class="st6" d="M168.5,84c0.2-0.2,0.4-0.2,0.6,0c0.2,0.2,0.2,0.4,0,0.6c-0.2,0.2-0.4,0.2-0.6,0
						C168.3,84.4,168.3,84.1,168.5,84z"/>
				</g>
			</g>
			<g>
				<g>
					<circle class="st6" cx="166" cy="77.5" r="0.4"/>
				</g>
			</g>
			<g>
				<g>
					<path class="st6" d="M169.1,70.4c0.2,0.2,0.2,0.4,0,0.6c-0.2,0.2-0.4,0.2-0.6,0c-0.2-0.2-0.2-0.4,0-0.6
						C168.6,70.3,168.9,70.3,169.1,70.4z"/>
				</g>
			</g>
		</g>
		<g>
			<g>
				<g>
					<path class="st6" d="M196.6,72h-6c-0.2,0-0.4-0.2-0.4-0.4c0-0.2,0.2-0.4,0.4-0.4h6c0.2,0,0.4,0.2,0.4,0.4
						C197,71.8,196.9,72,196.6,72z"/>
				</g>
			</g>
			<g>
				<g>
					<path class="st6" d="M196.6,83.8h-6c-0.2,0-0.4-0.2-0.4-0.4c0-0.2,0.2-0.4,0.4-0.4h6c0.2,0,0.4,0.2,0.4,0.4
						C197,83.6,196.9,83.8,196.6,83.8z"/>
				</g>
			</g>
			<g>
				<g>
					<path class="st6" d="M204.1,77.9h-11.3c-0.2,0-0.4-0.2-0.4-0.4c0-0.2,0.2-0.4,0.4-0.4h11.3c0.2,0,0.4,0.2,0.4,0.4
						C204.6,77.7,204.4,77.9,204.1,77.9z"/>
				</g>
			</g>
		</g>
	</g>
	<g>
		<g>
			<rect x="217.2" y="233.5" class="st1" width="6.7" height="6.7"/>
			<path class="st2" d="M224.4,240.7h-7.7V233h7.7V240.7z M217.7,239.7h5.6v-5.6h-5.6V239.7z"/>
		</g>
		<g>
			<g>
				<g>
					<path class="st6" d="M232.3,235h-6c-0.2,0-0.4-0.2-0.4-0.4c0-0.2,0.2-0.4,0.4-0.4h6c0.2,0,0.4,0.2,0.4,0.4
						C232.7,234.8,232.5,235,232.3,235z"/>
				</g>
			</g>
			<g>
				<g>
					<path class="st6" d="M234.6,239.6h-8.2c-0.3,0-0.6-0.2-0.6-0.4c0-0.2,0.3-0.4,0.6-0.4h8.2c0.3,0,0.6,0.2,0.6,0.4
						C235.2,239.4,234.9,239.6,234.6,239.6z"/>
				</g>
			</g>
			<g>
				<g>
					<path class="st6" d="M237.6,237.2h-11.3c-0.2,0-0.4-0.2-0.4-0.4c0-0.2,0.2-0.4,0.4-0.4h11.3c0.2,0,0.4,0.2,0.4,0.4
						C238,237,237.8,237.2,237.6,237.2z"/>
				</g>
			</g>
		</g>
	</g>
	<g>
		<g>
			
				<rect x="70.5" y="135.5" transform="matrix(-1 -1.224647e-16 1.224647e-16 -1 147.5834 277.6446)" class="st1" width="6.7" height="6.7"/>
			<path class="st2" d="M77.7,142.7h-7.7V135h7.7V142.7z M71,141.6h5.6V136H71V141.6z"/>
		</g>
		<g>
			<g>
				<g>
					<path class="st6" d="M62,137h6c0.2,0,0.4-0.2,0.4-0.4c0-0.2-0.2-0.4-0.4-0.4h-6c-0.2,0-0.4,0.2-0.4,0.4
						C61.6,136.8,61.8,137,62,137z"/>
				</g>
			</g>
			<g>
				<g>
					<path class="st6" d="M59.7,141.5h8.2c0.3,0,0.6-0.2,0.6-0.4c0-0.2-0.3-0.4-0.6-0.4h-8.2c-0.3,0-0.6,0.2-0.6,0.4
						C59.2,141.3,59.4,141.5,59.7,141.5z"/>
				</g>
			</g>
			<g>
				<g>
					<path class="st6" d="M56.7,139.1H68c0.2,0,0.4-0.2,0.4-0.4c0-0.2-0.2-0.4-0.4-0.4H56.7c-0.2,0-0.4,0.2-0.4,0.4
						C56.3,138.9,56.5,139.1,56.7,139.1z"/>
				</g>
			</g>
		</g>
	</g>
	<g>
		<g>
			<rect x="271.2" y="160.6" class="st8" width="2.1" height="89.2"/>
		</g>
		<g>
			<path class="st7" d="M272.5,171.4h-0.5c-3.4,0-6.2-2.8-6.2-6.2V157c0-3.4,2.8-6.2,6.2-6.2h0.5c3.4,0,6.2,2.8,6.2,6.2v8.2
				C278.7,168.6,275.9,171.4,272.5,171.4z"/>
		</g>
		<g>
			<g>
				<path class="st8" d="M280.6,165.4c0.7,0.1,1.5,0.2,2.2,0.4c0.5,0.1,0.7-0.7,0.2-0.8c-0.7-0.1-1.5-0.2-2.2-0.4
					C280.3,164.6,280.1,165.3,280.6,165.4L280.6,165.4z"/>
			</g>
		</g>
		<g>
			<g>
				<path class="st8" d="M280.6,160.7c0.6-0.1,1.1-0.1,1.7-0.1c0.5,0,0.5-0.7,0-0.8c-0.6-0.1-1.3,0-1.9,0.1
					C279.9,160,280.1,160.7,280.6,160.7L280.6,160.7z"/>
			</g>
		</g>
		<g>
			<g>
				<path class="st8" d="M280.3,156.3c0.6-0.2,1.1-0.4,1.7-0.7c0.5-0.2,0.3-0.9-0.2-0.8c-0.6,0.2-1.1,0.4-1.7,0.7
					C279.7,155.8,279.9,156.5,280.3,156.3L280.3,156.3z"/>
			</g>
		</g>
		<g>
			<g>
				<path class="st8" d="M261.2,166.1c0.6-0.1,1.1-0.2,1.7-0.4c0.5-0.2,0.3-0.9-0.2-0.8c-0.5,0.2-1.1,0.3-1.7,0.4
					C260.5,165.5,260.8,166.2,261.2,166.1L261.2,166.1z"/>
			</g>
		</g>
		<g>
			<g>
				<path class="st8" d="M260.2,160.6c0.7,0,1.4,0.1,2.1,0.3c0.5,0.1,0.7-0.6,0.2-0.8c-0.8-0.2-1.5-0.3-2.3-0.4
					C259.7,159.8,259.7,160.6,260.2,160.6L260.2,160.6z"/>
			</g>
		</g>
		<g>
			<g>
				<path class="st8" d="M260.9,154.2c0.6,0.2,1.1,0.4,1.7,0.5c0.5,0.2,0.7-0.6,0.2-0.8c-0.6-0.2-1.1-0.4-1.7-0.5
					C260.6,153.3,260.4,154.1,260.9,154.2L260.9,154.2z"/>
			</g>
		</g>
		<g>
			<polygon class="st6" points="267.4,251 268.8,239.1 275.6,239.1 277.1,250.8 			"/>
		</g>
	</g>
	<g>
		<g>
			<g>
				<path class="st9" d="M139.7,179.3c8.4-7.6,16.7-15.1,25.1-22.7c1.2-1.1-0.6-3-1.8-1.8c-8.4,7.6-16.7,15.1-25.1,22.7
					C136.7,178.6,138.5,180.4,139.7,179.3L139.7,179.3z"/>
			</g>
		</g>
		<g>
			<g>
				<path class="st9" d="M168.1,190.9c8.4-7.6,16.7-15.1,25.1-22.7c1.2-1.1-0.6-3-1.8-1.8c-8.4,7.6-16.7,15.1-25.1,22.7
					C165.1,190.2,166.9,192,168.1,190.9L168.1,190.9z"/>
			</g>
		</g>
		<g>
			<g>
				<path class="st9" d="M137.3,199.4c17.5-17.1,35.1-34.2,52.6-51.3c1.2-1.2-0.6-3-1.8-1.8c-17.5,17.1-35.1,34.2-52.6,51.3
					C134.3,198.8,136.1,200.6,137.3,199.4L137.3,199.4z"/>
			</g>
		</g>
	</g>
	<g>
		<g>
			<g>
				<g>
					<g>
						<rect x="216.6" y="39.8" class="st2" width="1.1" height="72.4"/>
					</g>
				</g>
				<g>
					<g>
						<path class="st2" d="M221.8,112.3c0,2.5-2.1,4.6-4.6,4.6c-2.5,0-4.6-2.1-4.6-4.6c0-2.5,2.1-4.6,4.6-4.6
							C219.7,107.7,221.8,109.7,221.8,112.3z"/>
					</g>
				</g>
				<g>
					<g>
						<path class="st2" d="M217.2,127.7c-0.1,0-1.6,0-2.7-1.1c-0.7-0.7-1.1-1.7-1.1-3c0-0.3,0.3-0.6,0.6-0.6c0.3,0,0.6,0.3,0.6,0.6
							c0,0.9,0.3,1.7,0.7,2.2c0.7,0.7,1.8,0.8,1.8,0.8c1.7,0,3.1-1.4,3.1-3.1c0-1.7-1.4-3.1-3.1-3.1c-0.3,0-0.6-0.3-0.6-0.6v-3.4
							c0-0.3,0.3-0.6,0.6-0.6c0.3,0,0.6,0.3,0.6,0.6v2.8c2.1,0.3,3.7,2.1,3.7,4.3C221.6,125.8,219.6,127.7,217.2,127.7
							C217.2,127.7,217.2,127.7,217.2,127.7z"/>
					</g>
				</g>
			</g>
			<g>
				<g>
					<g>
						<path class="st2" d="M193.1,130.5c-0.2,0-0.4-0.2-0.5-0.5c0-0.3,0.2-0.6,0.5-0.6l24.9-3.7c0.3,0,0.6,0.2,0.6,0.5
							c0,0.3-0.2,0.6-0.5,0.6l-24.9,3.7C193.2,130.5,193.1,130.5,193.1,130.5z"/>
					</g>
				</g>
				<g>
					<g>
						<path class="st2" d="M240.9,138.8c-0.1,0-0.1,0-0.2-0.1l-22.9-11.9c-0.3-0.1-0.4-0.5-0.2-0.8c0.1-0.3,0.5-0.4,0.8-0.2
							l22.9,11.9c0.3,0.1,0.4,0.5,0.2,0.8C241.3,138.7,241.1,138.9,240.9,138.8z"/>
					</g>
				</g>
				<g>
					<path class="st1" d="M239,186.6L178,176c-3.2-0.6-5.3-3.6-4.8-6.8l6.1-35.1c0.6-3.2,3.6-5.3,6.8-4.8l61,10.6
						c3.2,0.6,5.3,3.6,4.8,6.8l-6.1,35.1C245.2,185,242.2,187.1,239,186.6z"/>
					<path class="st2" d="M239.8,187.4c-0.4,0-0.8,0-1.2-0.1l-60.5-10.5c-1.8-0.3-3.4-1.3-4.4-2.8c-1.1-1.5-1.5-3.3-1.1-5.1l6-34.7
						c0.6-3.7,4.2-6.2,7.9-5.6l60.5,10.5c1.8,0.3,3.4,1.3,4.4,2.8c1.1,1.5,1.5,3.3,1.2,5.1l-6,34.7
						C246,185.1,243.1,187.4,239.8,187.4z M185.3,130.1c-2.5,0-4.8,1.8-5.2,4.4l-6,34.7c-0.2,1.4,0.1,2.8,0.9,4
						c0.8,1.2,2,1.9,3.4,2.2l60.5,10.5c2.9,0.5,5.6-1.4,6.1-4.3l6-34.7c0.2-1.4-0.1-2.8-0.9-4c-0.8-1.2-2-1.9-3.4-2.2l-60.5-10.5
						C185.9,130.1,185.6,130.1,185.3,130.1z"/>
				</g>
				<g>
					<path class="st7" d="M238.5,182.8l-58.8-10.2c-2-0.4-3.4-2.3-3.1-4.3l5.6-32c0.4-2,2.3-3.4,4.3-3.1l58.8,10.2
						c2,0.4,3.4,2.3,3.1,4.3l-5.6,32C242.5,181.8,240.6,183.1,238.5,182.8z"/>
					<path class="st6" d="M239.1,183.6c-0.3,0-0.5,0-0.8-0.1l-58.5-10.2c-1.2-0.2-2.3-0.9-3-1.9c-0.7-1-1-2.3-0.8-3.5l5.5-31.8
						c0.4-2.5,2.9-4.2,5.4-3.8l58.5,10.2c2.5,0.4,4.2,2.9,3.8,5.4l-5.5,31.8c-0.2,1.2-0.9,2.3-1.9,3
						C241,183.3,240,183.6,239.1,183.6z M238.5,182c0.8,0.1,1.6,0,2.3-0.5c0.7-0.5,1.1-1.2,1.3-2l5.5-31.8c0.3-1.7-0.8-3.3-2.5-3.6
						l-58.5-10.2c-1.7-0.3-3.3,0.8-3.6,2.5l-5.5,31.8c-0.1,0.8,0,1.6,0.5,2.3c0.5,0.7,1.2,1.1,2,1.3L238.5,182z"/>
				</g>
				<g>
					<polygon class="st1" points="210.7,177.9 225.9,164 234.3,182.1 					"/>
					<path class="st2" d="M235.2,182.7l-25.6-4.5l16.5-15.1L235.2,182.7z M211.8,177.6l21.6,3.8l-7.7-16.5L211.8,177.6z"/>
				</g>
				<g>
					<polygon class="st1" points="180.6,172.7 207.5,148 222.5,180 					"/>
					<path class="st2" d="M223.4,180.7l-43.9-7.6l28.3-25.9L223.4,180.7z M181.7,172.4l39.9,6.9l-14.2-30.5L181.7,172.4z"/>
				</g>
				<g>
					<path class="st1" d="M239.6,152.7c-0.4,2.1-2.3,3.4-4.4,3.1c-2.1-0.4-3.4-2.3-3.1-4.4s2.3-3.4,4.4-3.1
						C238.6,148.7,240,150.6,239.6,152.7z"/>
					<path class="st2" d="M235.9,156.3c-0.2,0-0.5,0-0.7-0.1c-2.3-0.4-3.9-2.6-3.5-5c0.2-1.1,0.8-2.1,1.8-2.8
						c0.9-0.7,2.1-0.9,3.2-0.7c1.1,0.2,2.1,0.8,2.8,1.8c0.7,0.9,0.9,2.1,0.7,3.2c-0.2,1.1-0.8,2.1-1.8,2.8
						C237.6,156.1,236.8,156.3,235.9,156.3z M235.9,148.8c-0.7,0-1.3,0.2-1.9,0.6c-0.7,0.5-1.2,1.2-1.3,2.1c-0.1,0.9,0,1.7,0.5,2.4
						c0.5,0.7,1.2,1.2,2.1,1.3c0.9,0.1,1.7,0,2.4-0.5c0.7-0.5,1.2-1.2,1.3-2.1l0,0c0.3-1.8-0.9-3.5-2.6-3.8
						C236.3,148.8,236.1,148.8,235.9,148.8z"/>
				</g>
			</g>
			<g>
				<g>
					<rect x="207.3" y="37.4" class="st2" width="56.5" height="6.2"/>
				</g>
			</g>
			<g>
				<g>
					<g>
						<g>
							<g>
								<g>
									<path class="st2" d="M312.9,166h-18.8V0.1h18.8V166z M296,164.1h15.1V1.9H296V164.1z"/>
								</g>
							</g>
							<g>
								<g>
									<g>
										<path class="st2" d="M312.7,18.3h-18.3V0h18.3V18.3z M296.3,16.4h14.5V1.9h-14.5V16.4z"/>
									</g>
								</g>
								<g>
									<g>
										
											<rect x="302.6" y="-2.5" transform="matrix(0.7071 -0.7071 0.7071 0.7071 82.4378 217.318)" class="st2" width="1.9" height="23.2"/>
									</g>
								</g>
								<g>
									<g>
										
											<rect x="291.9" y="8.2" transform="matrix(0.7071 -0.7071 0.7071 0.7071 82.4384 217.3187)" class="st2" width="23.2" height="1.9"/>
									</g>
								</g>
							</g>
							<g>
								<g>
									<g>
										<path class="st2" d="M312.7,34.7h-18.3V16.4h18.3V34.7z M296.3,32.8h14.5V18.3h-14.5V32.8z"/>
									</g>
								</g>
								<g>
									<g>
										
											<rect x="302.6" y="14" transform="matrix(0.7071 -0.7071 0.7071 0.7071 70.8318 222.1263)" class="st2" width="1.9" height="23.2"/>
									</g>
								</g>
								<g>
									<g>
										
											<rect x="291.9" y="24.6" transform="matrix(0.7071 -0.7071 0.7071 0.7071 70.8318 222.1263)" class="st2" width="23.2" height="1.9"/>
									</g>
								</g>
							</g>
							<g>
								<g>
									<g>
										<path class="st2" d="M312.7,51.1h-18.3V32.8h18.3V51.1z M296.3,49.2h14.5V34.7h-14.5V49.2z"/>
									</g>
								</g>
								<g>
									<g>
										
											<rect x="302.6" y="30.4" transform="matrix(0.7071 -0.7071 0.7071 0.7071 59.224 226.9325)" class="st2" width="1.9" height="23.2"/>
									</g>
								</g>
								<g>
									<g>
										
											<rect x="291.9" y="41" transform="matrix(0.7071 -0.7071 0.7071 0.7071 59.2321 226.9432)" class="st2" width="23.2" height="1.9"/>
									</g>
								</g>
							</g>
							<g>
								<g>
									<g>
										<path class="st2" d="M312.7,67.5h-18.3V49.2h18.3V67.5z M296.3,65.7h14.5V51.1h-14.5V65.7z"/>
									</g>
								</g>
								<g>
									<g>
										
											<rect x="302.6" y="46.8" transform="matrix(0.7071 -0.7071 0.7071 0.7071 47.6179 231.7408)" class="st2" width="1.9" height="23.2"/>
									</g>
								</g>
								<g>
									<g>
										
											<rect x="291.9" y="57.4" transform="matrix(0.7071 -0.7071 0.7071 0.7071 47.6184 231.7416)" class="st2" width="23.2" height="1.9"/>
									</g>
								</g>
							</g>
							<g>
								<g>
									<g>
										<path class="st2" d="M312.7,84h-18.3V65.7h18.3V84z M296.3,82.1h14.5V67.5h-14.5V82.1z"/>
									</g>
								</g>
								<g>
									<g>
										
											<rect x="302.6" y="63.2" transform="matrix(0.7071 -0.7071 0.7071 0.7071 36.0118 236.5493)" class="st2" width="1.9" height="23.2"/>
									</g>
								</g>
								<g>
									<g>
										
											<rect x="291.9" y="73.9" transform="matrix(0.7071 -0.7071 0.7071 0.7071 36.0179 236.5593)" class="st2" width="23.2" height="1.9"/>
									</g>
								</g>
							</g>
							<g>
								<g>
									<g>
										<path class="st2" d="M312.7,100.4h-18.3V82.1h18.3V100.4z M296.3,98.5h14.5V84h-14.5V98.5z"/>
									</g>
								</g>
								<g>
									<g>
										
											<rect x="302.6" y="79.6" transform="matrix(0.7071 -0.7071 0.7071 0.7071 24.4042 241.3552)" class="st2" width="1.9" height="23.2"/>
									</g>
								</g>
								<g>
									<g>
										
											<rect x="291.9" y="90.3" transform="matrix(0.7071 -0.7071 0.7071 0.7071 24.4108 241.3674)" class="st2" width="23.2" height="1.9"/>
									</g>
								</g>
							</g>
							<g>
								<g>
									<g>
										<path class="st2" d="M312.7,116.8h-18.3V98.5h18.3V116.8z M296.3,114.9h14.5v-14.5h-14.5V114.9z"/>
									</g>
								</g>
								<g>
									<g>
										
											<rect x="302.6" y="96" transform="matrix(0.7071 -0.7071 0.7071 0.7071 12.7985 246.1645)" class="st2" width="1.9" height="23.2"/>
									</g>
								</g>
								<g>
									<g>
										
											<rect x="291.9" y="106.7" transform="matrix(0.7071 -0.7071 0.7071 0.7071 12.8037 246.1755)" class="st2" width="23.2" height="1.9"/>
									</g>
								</g>
							</g>
							<g>
								<g>
									<g>
										<path class="st2" d="M312.7,133.2h-18.3v-18.3h18.3V133.2z M296.3,131.3h14.5v-14.5h-14.5V131.3z"/>
									</g>
								</g>
								<g>
									<g>
										
											<rect x="302.6" y="112.4" transform="matrix(0.7071 -0.7071 0.7071 0.7071 1.1915 250.9712)" class="st2" width="1.9" height="23.2"/>
									</g>
								</g>
								<g>
									<g>
										
											<rect x="291.9" y="123.1" transform="matrix(0.7071 -0.7071 0.7071 0.7071 1.1966 250.9835)" class="st2" width="23.2" height="1.9"/>
									</g>
								</g>
							</g>
							<g>
								<g>
									<g>
										<path class="st2" d="M312.7,149.6h-18.3v-18.3h18.3V149.6z M296.3,147.7h14.5v-14.5h-14.5V147.7z"/>
									</g>
								</g>
								<g>
									<g>
										
											<rect x="302.6" y="128.9" transform="matrix(0.7071 -0.7071 0.7071 0.7071 -10.4148 255.7798)" class="st2" width="1.9" height="23.2"/>
									</g>
								</g>
								<g>
									<g>
										
											<rect x="291.9" y="139.5" transform="matrix(0.7071 -0.7071 0.7071 0.7071 -10.4105 255.7916)" class="st2" width="23.2" height="1.9"/>
									</g>
								</g>
							</g>
							<g>
								<g>
									<g>
										<path class="st2" d="M312.7,166h-18.3v-18.3h18.3V166z M296.3,164.1h14.5v-14.5h-14.5V164.1z"/>
									</g>
								</g>
								<g>
									<g>
										
											<rect x="302.6" y="145.3" transform="matrix(0.7071 -0.7071 0.7071 0.7071 -22.0223 260.5844)" class="st2" width="1.9" height="23.2"/>
									</g>
								</g>
								<g>
									<g>
										
											<rect x="291.9" y="155.9" transform="matrix(0.7072 -0.707 0.707 0.7072 -22.0409 260.5262)" class="st2" width="23.2" height="1.9"/>
									</g>
								</g>
							</g>
						</g>
						<g>
							<g>
								<g>
									<g>
										<path class="st2" d="M345.4,34.5h-18.3V16.2h18.3V34.5z M328.9,32.6h14.5V18h-14.5V32.6z"/>
									</g>
								</g>
								<g>
									<g>
										
											<rect x="324.6" y="24.4" transform="matrix(0.707 -0.7072 0.7072 0.707 80.6143 245.197)" class="st2" width="23.2" height="1.9"/>
									</g>
								</g>
								<g>
									<g>
										
											<rect x="335.3" y="13.7" transform="matrix(0.7071 -0.7071 0.7071 0.7071 80.5723 245.1481)" class="st2" width="1.9" height="23.2"/>
									</g>
								</g>
							</g>
							<g>
								<g>
									<g>
										<path class="st2" d="M328.9,34.5h-18.3V16.2h18.3V34.5z M312.5,32.6h14.5V18h-14.5V32.6z"/>
									</g>
								</g>
								<g>
									<g>
										
											<rect x="308.2" y="24.4" transform="matrix(0.707 -0.7072 0.7072 0.707 75.8045 233.5882)" class="st2" width="23.2" height="1.9"/>
									</g>
								</g>
								<g>
									<g>
										
											<rect x="318.9" y="13.7" transform="matrix(0.7071 -0.7071 0.7071 0.7071 75.7641 233.5408)" class="st2" width="1.9" height="23.2"/>
									</g>
								</g>
							</g>
							<g>
								<g>
									<path class="st2" d="M312.5,34.5h-18.3V16.2h18.3V34.5z M296.1,32.6h14.5V18h-14.5V32.6z"/>
								</g>
							</g>
							<g>
								<g>
									<g>
										<path class="st2" d="M296.1,34.5h-18.3V16.2h18.3V34.5z M279.7,32.6h14.5V18h-14.5V32.6z"/>
									</g>
								</g>
								<g>
									<g>
										
											<rect x="275.4" y="24.4" transform="matrix(0.7071 -0.7071 0.7071 0.7071 66.1501 210.3289)" class="st2" width="23.2" height="1.9"/>
									</g>
								</g>
								<g>
									<g>
										
											<rect x="286" y="13.7" transform="matrix(0.7071 -0.7071 0.7071 0.7071 66.149 210.3276)" class="st2" width="1.9" height="23.2"/>
									</g>
								</g>
							</g>
							<g>
								<g>
									<g>
										<path class="st2" d="M279.7,34.5h-18.3V16.2h18.3V34.5z M263.3,32.6h14.5V18h-14.5V32.6z"/>
									</g>
								</g>
								<g>
									<g>
										
											<rect x="258.9" y="24.4" transform="matrix(0.7071 -0.7071 0.7071 0.7071 61.3419 198.7216)" class="st2" width="23.2" height="1.9"/>
									</g>
								</g>
								<g>
									<g>
										
											<rect x="269.6" y="13.7" transform="matrix(0.7071 -0.7071 0.7071 0.7071 61.3429 198.7228)" class="st2" width="1.9" height="23.2"/>
									</g>
								</g>
							</g>
							<g>
								<g>
									<g>
										<path class="st2" d="M263.3,34.5H245V16.2h18.3V34.5z M246.9,32.6h14.5V18h-14.5V32.6z"/>
									</g>
								</g>
								<g>
									<g>
										<path class="st2" d="M245.9,34.5h-16.4c-0.4,0-0.7-0.2-0.9-0.6c-0.1-0.4-0.1-0.8,0.2-1l16.4-16.4l1.3,1.3l-14.8,14.8h13.8
											l16.1-16.1l1.3,1.3l-16.4,16.4C246.4,34.4,246.2,34.5,245.9,34.5z"/>
									</g>
								</g>
								<g>
									<g>
										
											<rect x="253.2" y="13.7" transform="matrix(0.7071 -0.7071 0.7071 0.7071 56.5339 187.1144)" class="st2" width="1.9" height="23.2"/>
									</g>
								</g>
							</g>
						</g>
					</g>
					<g>
						<g>
							<g>
								<path class="st2" d="M313,184.3h-18.8V166H313V184.3z M296.1,182.4H311v-14.5h-14.9V182.4z"/>
							</g>
						</g>
						<g>
							<g>
								<polygon class="st2" points="311.3,184 294.4,167.6 295.8,166.3 312.7,182.7 								"/>
							</g>
						</g>
						<g>
							<g>
								<polygon class="st2" points="295.8,184 294.4,182.7 311.3,166.3 312.7,167.6 								"/>
							</g>
						</g>
					</g>
					<g>
						<g>
							<g>
								<path class="st2" d="M313,250h-18.8v-18.3H313V250z M296.1,248.1H311v-14.5h-14.9V248.1z"/>
							</g>
						</g>
						<g>
							<g>
								<polygon class="st2" points="311.3,249.7 294.4,233.3 295.8,231.9 312.7,248.3 								"/>
							</g>
						</g>
						<g>
							<g>
								<polygon class="st2" points="295.8,249.7 294.4,248.3 311.3,231.9 312.7,233.3 								"/>
							</g>
						</g>
					</g>
				</g>
				<g>
					<g>
						<g>
							<path class="st2" d="M313,199.2h-18.8v-18.3H313V199.2z M296.1,197.3H311v-14.5h-14.9V197.3z"/>
						</g>
					</g>
					<g>
						<g>
							<polygon class="st2" points="311.3,198.9 294.4,182.5 295.8,181.1 312.7,197.6 							"/>
						</g>
					</g>
					<g>
						<g>
							<polygon class="st2" points="295.8,198.9 294.4,197.6 311.3,181.1 312.7,182.5 							"/>
						</g>
					</g>
				</g>
				<g>
					<g>
						<g>
							<path class="st2" d="M313,215.6h-18.8v-18.3H313V215.6z M296.1,213.7H311v-14.5h-14.9V213.7z"/>
						</g>
					</g>
					<g>
						<g>
							<polygon class="st2" points="311.3,215.3 294.4,198.9 295.8,197.6 312.7,214 							"/>
						</g>
					</g>
					<g>
						<g>
							<polygon class="st2" points="295.8,215.3 294.4,214 311.3,197.6 312.7,198.9 							"/>
						</g>
					</g>
				</g>
				<g>
					<g>
						<g>
							<path class="st2" d="M313,232h-18.8v-18.3H313V232z M296.1,230.1H311v-14.5h-14.9V230.1z"/>
						</g>
					</g>
					<g>
						<g>
							<polygon class="st2" points="311.3,231.7 294.4,215.3 295.8,214 312.7,230.4 							"/>
						</g>
					</g>
					<g>
						<g>
							<polygon class="st2" points="295.8,231.7 294.4,230.4 311.3,214 312.7,215.3 							"/>
						</g>
					</g>
				</g>
			</g>
		</g>
	</g>
	<g>
		<path class="st6" d="M103.1,98"/>
		<g>
			<path class="st6" d="M103.1,99.6c2,0,2-3.1,0-3.1C101.1,96.4,101.1,99.6,103.1,99.6L103.1,99.6z"/>
		</g>
	</g>
	<g>
		<path class="st6" d="M271.8,65.5"/>
		<g>
			<path class="st6" d="M271.8,67.1c2,0,2-3.1,0-3.1C269.8,63.9,269.8,67.1,271.8,67.1L271.8,67.1z"/>
		</g>
	</g>
	<g>
		<path class="st6" d="M341.6,176.8c0.2,0,0.5,0,0.7,0"/>
		<g>
			<path class="st6" d="M341.6,178.4c0.2,0,0.5,0,0.7,0c0.8,0,1.6-0.7,1.6-1.6c0-0.8-0.7-1.6-1.6-1.6c-0.2,0-0.5,0-0.7,0
				c-0.8,0-1.6,0.7-1.6,1.6C340.1,177.7,340.8,178.4,341.6,178.4L341.6,178.4z"/>
		</g>
	</g>
	<g>
		<path class="st6" d="M61.6,199.6"/>
		<g>
			<path class="st6" d="M61.6,201.2c2,0,2-3.1,0-3.1C59.6,198.1,59.6,201.2,61.6,201.2L61.6,201.2z"/>
		</g>
	</g>
	<g>
		<path class="st6" d="M190.2,50.3"/>
		<g>
			<path class="st6" d="M190.2,51.8c2,0,2-3.1,0-3.1C188.2,48.7,188.2,51.8,190.2,51.8L190.2,51.8z"/>
		</g>
	</g>
</g>
</svg>
