<?xml version="1.0" standalone="no"?>
<!DOCTYPE svg PUBLIC "-//W3C//DTD SVG 20010904//EN"
 "http://www.w3.org/TR/2001/REC-SVG-20010904/DTD/svg10.dtd">
<svg version="1.0" xmlns="http://www.w3.org/2000/svg"
 width="300.000000pt" height="300.000000pt" viewBox="0 0 300.000000 300.000000"
 preserveAspectRatio="xMidYMid meet">
<metadata>
Created by potrace 1.14, written by Peter Selinger 2001-2017
</metadata>
<g transform="translate(0.000000,300.000000) scale(0.100000,-0.100000)"
fill="#000000" stroke="none">
<path d="M1478 2645 c-2 -2 -26 -5 -55 -9 -209 -25 -398 -189 -457 -396 -21
-75 -27 -154 -15 -189 19 -53 77 -75 132 -50 32 15 48 43 52 98 13 146 83 252
208 315 68 34 170 45 244 26 150 -37 263 -173 277 -333 5 -62 19 -91 53 -106
78 -36 144 21 138 119 -13 233 -192 450 -415 503 -59 14 -156 27 -162 22z"/>
<path d="M416 1863 c-73 -19 -156 -99 -176 -171 -49 -176 91 -398 293 -463
110 -35 154 -32 386 27 254 66 292 65 373 -8 63 -57 87 -143 63 -225 -7 -24
-11 -43 -9 -43 2 0 -1 -12 -7 -27 -11 -29 -14 -161 -5 -202 42 -187 178 -330
359 -375 57 -14 120 -17 387 -17 305 0 321 1 369 22 88 37 141 112 157 220 4
30 8 56 9 59 1 3 5 28 10 55 4 28 9 59 11 70 32 164 127 758 132 813 8 114
-53 213 -157 252 -50 19 -80 20 -1114 19 -584 -1 -1071 -4 -1081 -6z"/>
<path d="M915 1049 c-55 -16 -109 -30 -120 -33 -84 -17 -309 -82 -336 -97 -27
-14 -49 -69 -43 -105 8 -45 41 -72 149 -124 55 -26 108 -56 117 -67 10 -10 42
-69 73 -130 49 -99 59 -112 92 -126 72 -28 122 3 152 97 31 98 131 482 131
505 0 33 -25 75 -52 88 -43 21 -63 20 -163 -8z"/>
</g>
</svg>
