<?xml version="1.0" standalone="no"?>
<!DOCTYPE svg PUBLIC "-//W3C//DTD SVG 20010904//EN"
 "http://www.w3.org/TR/2001/REC-SVG-20010904/DTD/svg10.dtd">
<svg version="1.0" xmlns="http://www.w3.org/2000/svg"
 width="2000.000000pt" height="2000.000000pt" viewBox="0 0 2000.000000 2000.000000"
 preserveAspectRatio="xMidYMid meet">
<metadata>
Created by potrace 1.14, written by Peter Selinger 2001-2017
</metadata>
<g transform="translate(0.000000,2000.000000) scale(0.100000,-0.100000)"
fill="#000000" stroke="none">
<path d="M9727 17914 c-1 -1 -50 -5 -108 -8 -58 -4 -117 -8 -130 -11 -13 -2
-42 -6 -64 -9 -236 -31 -517 -108 -770 -211 -80 -32 -325 -150 -365 -175 -8
-5 -62 -37 -120 -71 -152 -90 -312 -204 -469 -334 -189 -156 -441 -417 -589
-610 -78 -103 -219 -314 -254 -380 -9 -16 -38 -73 -66 -125 -175 -329 -309
-770 -347 -1145 -3 -33 -8 -78 -11 -100 -13 -101 -12 -422 2 -484 52 -243 272
-452 512 -487 315 -46 610 104 728 372 42 94 50 148 58 354 3 69 8 142 11 163
12 84 15 103 20 127 2 14 10 50 16 80 43 217 134 451 254 657 191 326 468 602
801 799 254 149 556 252 849 288 22 3 58 8 81 11 92 13 388 7 504 -10 19 -2
55 -7 80 -10 25 -3 52 -8 60 -10 8 -2 29 -7 45 -10 190 -33 402 -103 590 -195
421 -206 733 -517 967 -967 128 -246 198 -448 223 -648 2 -22 7 -58 10 -80 3
-22 7 -71 10 -110 3 -38 7 -92 10 -120 2 -27 7 -81 10 -120 12 -157 65 -274
175 -385 61 -62 93 -84 170 -122 52 -25 113 -49 135 -53 22 -4 51 -9 65 -12
37 -8 169 -8 218 0 186 29 351 139 448 298 70 115 92 219 88 409 -3 139 -11
286 -18 330 -2 14 -7 50 -11 80 -4 30 -9 64 -11 75 -2 11 -6 38 -9 61 -6 41
-52 242 -70 307 -13 45 -86 273 -95 292 -4 11 -15 36 -23 55 -9 19 -25 58 -36
87 -69 176 -235 466 -379 661 -135 184 -375 442 -527 567 -33 28 -62 53 -65
56 -3 3 -48 38 -100 78 -52 39 -99 75 -105 79 -11 9 -118 78 -205 134 -282
178 -680 346 -1050 442 -128 33 -151 39 -217 51 -16 3 -39 8 -53 11 -13 3 -38
7 -55 10 -16 2 -39 6 -50 8 -11 2 -45 8 -75 12 -30 4 -57 9 -60 9 -3 1 -36 5
-75 9 -38 4 -84 9 -100 11 -64 9 -451 24 -458 19z"/>
<path d="M4399 12946 c-2 -2 -35 -6 -74 -9 -38 -4 -83 -9 -100 -12 -16 -3 -46
-7 -65 -10 -19 -3 -75 -17 -125 -31 -665 -188 -1143 -824 -1148 -1527 0 -111
8 -249 18 -287 5 -17 11 -56 20 -120 30 -221 132 -590 211 -767 94 -211 201
-394 317 -543 78 -100 281 -298 389 -378 53 -40 99 -72 102 -72 3 0 24 -13 48
-29 143 -96 490 -242 633 -267 22 -4 45 -9 50 -13 6 -3 19 -7 30 -8 11 -2 52
-10 90 -18 88 -18 117 -23 180 -30 28 -3 61 -8 75 -10 150 -26 679 -26 875 0
34 5 95 12 170 20 107 12 402 65 443 79 23 8 42 13 42 11 0 -2 15 1 33 6 17 6
39 12 47 14 140 34 446 115 685 180 116 32 224 61 240 65 17 4 116 31 220 60
105 29 222 60 260 70 39 10 77 20 85 24 8 3 26 8 40 10 14 3 59 14 100 25 234
61 539 61 775 -1 444 -116 782 -373 954 -723 44 -89 112 -279 125 -345 3 -14
14 -72 26 -130 38 -194 45 -465 16 -640 -8 -43 -31 -206 -40 -280 -3 -25 -8
-63 -11 -85 -2 -22 -7 -60 -9 -85 -3 -25 -7 -65 -10 -90 -21 -174 -30 -348
-30 -575 0 -195 7 -353 19 -426 2 -13 6 -46 9 -74 3 -27 8 -59 10 -70 2 -11 7
-40 11 -65 54 -333 188 -718 355 -1020 46 -83 162 -269 190 -303 154 -190 200
-244 262 -307 292 -297 625 -510 1012 -646 64 -22 227 -71 266 -79 81 -17 235
-45 275 -50 28 -4 64 -8 80 -10 205 -26 1445 -27 1535 0 8 2 37 7 64 10 27 3
52 7 56 10 3 2 22 7 41 10 119 20 398 127 551 212 404 223 706 548 848 913 18
47 105 333 115 380 2 8 13 51 24 96 12 45 24 90 26 100 2 10 27 111 55 224 28
113 62 255 76 315 14 61 34 146 45 190 11 44 22 94 25 110 3 17 9 44 14 60 7
25 40 171 54 240 3 11 14 58 25 105 11 47 23 97 26 113 3 15 7 37 10 50 3 12
7 31 9 42 3 11 12 52 21 90 16 67 50 222 61 275 3 14 14 62 24 108 11 46 22
96 25 110 2 15 18 88 34 163 17 74 33 150 36 169 3 18 7 36 9 39 2 3 7 22 10
41 3 19 12 64 20 100 8 36 17 76 20 90 3 14 7 34 10 45 2 11 12 56 21 100 9
44 20 96 25 115 5 19 11 49 14 65 3 17 15 75 27 130 11 55 23 111 25 125 3 14
9 41 14 60 5 19 12 51 15 70 5 30 28 140 39 190 8 33 134 652 141 690 2 14 16
81 30 150 15 69 28 136 31 150 2 14 7 36 10 50 4 14 8 34 9 45 2 11 28 148 58
305 49 248 81 415 93 485 2 11 6 34 9 50 16 86 45 255 50 289 3 21 7 48 10 60
7 31 22 143 34 256 11 94 11 365 0 405 -4 16 -10 48 -13 70 -10 75 -57 235
-92 315 -69 154 -116 237 -204 355 -209 279 -491 472 -838 570 -46 13 -98 27
-115 30 -179 34 -96 34 -5833 34 -3081 0 -5603 -2 -5605 -3z"/>
<path d="M8105 8269 c-82 -8 -155 -24 -330 -74 -49 -14 -99 -28 -110 -30 -11
-3 -373 -104 -805 -226 -432 -121 -798 -224 -815 -229 -16 -4 -73 -20 -125
-35 -52 -15 -111 -31 -130 -36 -19 -5 -42 -11 -50 -14 -8 -2 -213 -61 -455
-130 -242 -69 -449 -128 -460 -130 -11 -3 -51 -14 -90 -26 -38 -11 -95 -27
-125 -36 -30 -8 -75 -21 -100 -29 -25 -7 -70 -20 -100 -28 -30 -8 -127 -35
-215 -61 -88 -26 -200 -58 -250 -72 -49 -13 -110 -31 -135 -38 -25 -7 -87 -25
-139 -39 -202 -56 -325 -122 -442 -237 -176 -173 -274 -424 -277 -714 -2 -193
36 -325 137 -474 117 -172 298 -298 591 -410 47 -18 94 -37 105 -41 52 -22
271 -89 520 -160 99 -28 200 -57 225 -65 244 -77 324 -104 445 -153 358 -142
541 -309 691 -630 30 -65 59 -126 64 -137 31 -70 100 -270 185 -530 246 -757
337 -960 507 -1136 246 -254 634 -340 978 -217 266 95 450 282 556 565 13 35
21 63 19 63 -3 0 -1 8 4 18 5 9 12 34 15 56 4 21 8 41 10 45 3 5 112 419 121
461 3 17 157 618 215 845 69 269 252 990 256 1009 2 10 8 33 14 51 6 18 12 41
14 51 14 67 43 182 167 666 22 86 42 164 44 175 2 10 41 164 85 343 45 179 83
332 85 340 2 8 22 87 44 175 50 198 62 285 57 400 -12 241 -100 440 -270 611
-63 62 -102 92 -208 157 -123 76 -350 122 -523 106z"/>
</g>
</svg>
